<svg width="1280" height="302" viewBox="0 0 1280 302" fill="none" xmlns="http://www.w3.org/2000/svg">
<path d="M1104.12 155.113L1030.18 229.041C1026.24 232.979 1020.9 235.191 1015.33 235.191L1010.4 235.191L996.777 235.191L974.777 235.191L956.957 235.191C951.388 235.191 946.047 232.979 942.109 229.042L930.277 217.212L905.14 192.077L868.172 155.113C864.234 151.175 858.893 148.963 853.323 148.963H691.001V96.1528C691.001 92.6131 692.564 89.2539 695.271 86.9738L697.119 85.4183C699.285 83.5939 702.027 82.5947 704.859 82.5972L1242.73 83.0862C1246.67 83.0898 1250.44 84.6376 1253.24 87.3964L1276 109.799C1279.06 112.806 1280.78 116.914 1280.78 121.201V148.963H1118.96C1113.39 148.963 1108.05 151.175 1104.12 155.113Z" fill="url(#paint0_linear_0_1)"/>
<path d="M691.122 180.19H845.328C848.498 180.19 851.539 181.445 853.788 183.68L892.527 222.191L916.924 247.596C920.68 251.507 922.777 256.72 922.777 262.142V301.191" stroke="#202023"/>
<path d="M1280.78 181.19H1126.57C1123.4 181.19 1120.36 182.445 1118.11 184.68L1079.37 223.191L1054.97 248.596C1051.22 252.507 1049.12 257.72 1049.12 263.142V301.191" stroke="#202023"/>
<path d="M691.277 118.06L722.777 118.06L774.277 118.059L811.516 118.059L867.732 118.059C871.61 118.059 875.338 119.561 878.133 122.251L941.457 183.19" stroke="url(#paint1_linear_0_1)"/>
<path d="M1279.77 118.06L1243.86 118.06L1192.36 118.059L1155.12 118.059L1098.91 118.059C1095.03 118.059 1091.3 119.561 1088.5 122.251L1025.18 183.19" stroke="url(#paint2_linear_0_1)"/>
<path d="M176.885 155.113L250.822 229.041C254.76 232.979 260.101 235.191 265.67 235.191L270.597 235.191L284.223 235.191L306.223 235.191L324.043 235.191C329.612 235.191 334.953 232.979 338.891 229.042L350.723 217.212L375.86 192.077L412.828 155.113C416.766 151.175 422.107 148.963 427.677 148.963H589.999V96.1528C589.999 92.6131 588.436 89.2539 585.729 86.9738L583.881 85.4183C581.715 83.5939 578.973 82.5947 576.141 82.5972L38.2656 83.0862C34.333 83.0898 30.559 84.6376 27.7565 87.3964L4.99838 109.799C1.94314 112.806 0.222656 116.914 0.222656 121.201V148.963H162.036C167.606 148.963 172.947 151.175 176.885 155.113Z" fill="url(#paint3_linear_0_1)"/>
<path d="M589.878 180.19H435.672C432.502 180.19 429.461 181.445 427.212 183.68L388.473 222.191L364.076 247.596C360.32 251.507 358.223 256.72 358.223 262.142V301.191" stroke="#202023"/>
<path d="M0.223572 181.19H154.429C157.599 181.19 160.641 182.445 162.889 184.68L201.629 223.191L226.026 248.596C229.781 252.507 231.879 257.72 231.879 263.142V301.191" stroke="#202023"/>
<path d="M589.723 118.06L558.223 118.06L506.723 118.059L469.484 118.059L413.268 118.059C409.39 118.059 405.662 119.561 402.867 122.251L339.543 183.19" stroke="url(#paint4_linear_0_1)"/>
<path d="M1.2251 118.06L37.1401 118.06L88.6401 118.059L125.879 118.059L182.095 118.059C185.973 118.059 189.701 119.561 192.496 122.251L255.82 183.19" stroke="url(#paint5_linear_0_1)"/>
<path d="M672.1 151.661V134.527V90.4745C672.1 87.2129 673.428 84.0919 675.778 81.8298L724.263 35.1498L758.37 1M640 151.661V134.527L640 21.0881M607.9 151.661V134.527V95.6329C607.9 89.0758 605.232 82.8015 600.511 78.2567L555.737 35.1498L521.63 1M704.201 151.661V134.527C704.201 128.134 706.737 122.002 711.252 117.481L738.779 89.9194C743.294 85.3987 749.418 82.859 755.803 82.859H1236.91C1240.09 82.859 1243.15 81.5926 1245.4 79.3389L1276.49 48.2054C1278.74 45.9554 1280 42.9055 1280 39.7255V25.1057M575.799 151.661V134.527C575.799 128.134 573.263 122.002 568.748 117.481L541.221 89.9194C536.706 85.3987 530.582 82.859 524.197 82.859H43.0942C39.9089 82.859 36.8544 81.5926 34.6035 79.3389L3.50935 48.2054C1.2622 45.9554 0 42.9055 0 39.7255V25.1057" stroke="url(#paint6_radial_0_1)"/>
<defs>
<linearGradient id="paint0_linear_0_1" x1="658.777" y1="-119.537" x2="1365.73" y2="-331.512" gradientUnits="userSpaceOnUse">
<stop stop-color="#2A2A2F" stop-opacity="0"/>
<stop offset="0.67469" stop-color="#0E0E0E"/>
<stop offset="1" stop-color="#0E0E0E"/>
</linearGradient>
<linearGradient id="paint1_linear_0_1" x1="1187.78" y1="89.1912" x2="1097.14" y2="-96.5091" gradientUnits="userSpaceOnUse">
<stop stop-opacity="0"/>
<stop offset="0.410481" stop-color="#292929"/>
<stop offset="0.695" stop-color="#292929"/>
<stop offset="1" stop-opacity="0"/>
</linearGradient>
<linearGradient id="paint2_linear_0_1" x1="859.775" y1="174.691" x2="867.916" y2="67.6908" gradientUnits="userSpaceOnUse">
<stop stop-opacity="0"/>
<stop offset="0.410481" stop-color="#292929"/>
<stop offset="0.695" stop-color="#292929"/>
<stop offset="1" stop-opacity="0"/>
</linearGradient>
<linearGradient id="paint3_linear_0_1" x1="622.223" y1="-119.537" x2="-84.7296" y2="-331.512" gradientUnits="userSpaceOnUse">
<stop stop-color="#2A2A2F" stop-opacity="0"/>
<stop offset="0.67469" stop-color="#0E0E0E"/>
<stop offset="1" stop-color="#0E0E0E"/>
</linearGradient>
<linearGradient id="paint4_linear_0_1" x1="93.2231" y1="89.1912" x2="183.863" y2="-96.5091" gradientUnits="userSpaceOnUse">
<stop stop-opacity="0"/>
<stop offset="0.410481" stop-color="#292929"/>
<stop offset="0.695" stop-color="#292929"/>
<stop offset="1" stop-opacity="0"/>
</linearGradient>
<linearGradient id="paint5_linear_0_1" x1="421.225" y1="174.691" x2="413.084" y2="67.6908" gradientUnits="userSpaceOnUse">
<stop stop-opacity="0"/>
<stop offset="0.410481" stop-color="#292929"/>
<stop offset="0.695" stop-color="#292929"/>
<stop offset="1" stop-opacity="0"/>
</linearGradient>
<radialGradient id="paint6_radial_0_1" cx="0" cy="0" r="1" gradientUnits="userSpaceOnUse" gradientTransform="translate(640 274.198) rotate(90) scale(231.302 649.268)">
<stop stop-color="#8EFE49"/>
<stop offset="1" stop-color="white" stop-opacity="0.1"/>
</radialGradient>
</defs>
</svg>
