<svg width="469" height="1333" viewBox="0 0 469 1333" fill="none" xmlns="http://www.w3.org/2000/svg">
<g opacity="0.5">
<mask id="mask0_11624_8221" style="mask-type:alpha" maskUnits="userSpaceOnUse" x="-503" y="0" width="972" height="1333">
<rect width="972" height="1333" transform="matrix(-1 0 0 1 469 0)" fill="#D9D9D9"/>
</mask>
<g mask="url(#mask0_11624_8221)">
<g opacity="0.55">
<mask id="mask1_11624_8221" style="mask-type:alpha" maskUnits="userSpaceOnUse" x="-1305" y="237" width="1559" height="1410">
<rect width="1557.27" height="1409.44" transform="matrix(-1 1.74846e-07 1.74846e-07 1 253.211 237.168)" fill="url(#paint0_linear_11624_8221)"/>
</mask>
<g mask="url(#mask1_11624_8221)">
<g opacity="0.66">
<path d="M7.63451 1070.58L-84.2636 978.678V924.238L-183.653 824.849V759.421L-162.177 737.945L-140.701 759.421V798.877L-75.2735 864.305H-0.856073L64.5714 798.877V671.519L-84.2636 522.684H-127.216L-202.133 447.767V410.308H-127.216L-75.2735 358.366H7.63451V329.398H-35.3178V293.438L16.6245 241.496" stroke="white"/>
<path d="M-92.75 562.64L35.6076 690.998V790.887" stroke="white"/>
<path d="M67.071 1072.07V1040.11H21.6214L-59.2889 959.2V916.248L-154.184 821.353" stroke="white"/>
</g>
</g>
</g>
</g>
</g>
<defs>
<linearGradient id="paint0_linear_11624_8221" x1="734.642" y1="-112.37" x2="741.498" y2="866.65" gradientUnits="userSpaceOnUse">
<stop stop-color="#D9D9D9"/>
<stop offset="1" stop-color="#D9D9D9" stop-opacity="0"/>
</linearGradient>
</defs>
</svg>
