<svg width="1130" height="394" viewBox="0 0 1130 394" fill="none" xmlns="http://www.w3.org/2000/svg">
<mask id="mask0_11318_14965" style="mask-type:alpha" maskUnits="userSpaceOnUse" x="0" y="69" width="876" height="325">
<path d="M57.0677 394H860C868.837 394 876 386.837 876 378V69H431.495C425.924 69 420.582 71.2135 416.643 75.1534L218.29 273.577C214.352 277.517 209.009 279.731 203.438 279.731H0V336.918C0 341.16 1.68494 345.229 4.68427 348.229L45.752 389.312C48.7527 392.314 52.8232 394 57.0677 394Z" fill="url(#paint0_linear_11318_14965)"/>
</mask>
<g mask="url(#mask0_11318_14965)">
<path d="M57.0677 394H860C868.837 394 876 386.837 876 378V69H431.495C425.924 69 420.582 71.2135 416.643 75.1534L218.29 273.577C214.352 277.517 209.009 279.731 203.438 279.731H0V336.918C0 341.16 1.68494 345.229 4.68427 348.229L45.752 389.312C48.7527 392.314 52.8232 394 57.0677 394Z" fill="url(#paint1_radial_11318_14965)"/>
</g>
<mask id="mask1_11318_14965" style="mask-type:alpha" maskUnits="userSpaceOnUse" x="254" y="69" width="876" height="325">
<path d="M1072.93 394H270C261.163 394 254 386.837 254 378V69H698.505C704.076 69 709.418 71.2135 713.357 75.1534L911.71 273.577C915.648 277.517 920.991 279.731 926.562 279.731H1130V336.918C1130 341.16 1128.32 345.229 1125.32 348.229L1084.25 389.312C1081.25 392.314 1077.18 394 1072.93 394Z" fill="url(#paint2_linear_11318_14965)"/>
</mask>
<g mask="url(#mask1_11318_14965)">
<path d="M1072.93 394H270C261.163 394 254 386.837 254 378V69H698.505C704.076 69 709.418 71.2135 713.357 75.1534L911.71 273.577C915.648 277.517 920.991 279.731 926.562 279.731H1130V336.918C1130 341.16 1128.32 345.229 1125.32 348.229L1084.25 389.312C1081.25 392.314 1077.18 394 1072.93 394Z" fill="url(#paint3_radial_11318_14965)"/>
</g>
<rect x="246" y="7.62939e-06" width="4" height="4" rx="2" transform="rotate(90 246 7.62939e-06)" fill="#202020"/>
<rect x="218" y="7.62939e-06" width="4" height="4" rx="2" transform="rotate(90 218 7.62939e-06)" fill="#202020"/>
<rect x="190" y="7.62939e-06" width="4" height="4" rx="2" transform="rotate(90 190 7.62939e-06)" fill="#202020"/>
<rect x="162" y="7.62939e-06" width="4" height="4" rx="2" transform="rotate(90 162 7.62939e-06)" fill="#202020"/>
<rect x="134" width="4" height="4" rx="2" transform="rotate(90 134 0)" fill="#202020"/>
<rect x="106" width="4" height="4" rx="2" transform="rotate(90 106 0)" fill="#202020"/>
<g opacity="0.5">
<mask id="mask2_11318_14965" style="mask-type:alpha" maskUnits="userSpaceOnUse" x="546" y="17" width="39" height="23">
<ellipse cx="19.5" cy="11.5" rx="19.5" ry="11.5" transform="matrix(-1 8.74228e-08 8.74228e-08 1 585 17)" fill="#C8E1FF" fill-opacity="0.9"/>
</mask>
<g mask="url(#mask2_11318_14965)">
<rect width="63" height="128" transform="matrix(-1 8.74228e-08 8.74228e-08 1 597 27)" fill="#8EFE49"/>
</g>
</g>
<path d="M547.745 27H582.255C582.772 27 583.267 26.7942 583.632 26.4281C584.388 25.6693 584.388 24.4418 583.632 23.683L582.541 22.5882C582.166 22.2117 581.656 22 581.125 22H548.875C548.344 22 547.834 22.2117 547.459 22.5882L546.368 23.683C545.612 24.4418 545.612 25.6693 546.368 26.4281C546.733 26.7942 547.228 27 547.745 27Z" fill="#8EFE49" stroke="white" stroke-opacity="0.05"/>
<path d="M533.499 28V57.3726C533.499 61.6161 531.813 65.6857 528.812 68.6863L483.685 113.814C480.684 116.814 476.615 118.5 472.371 118.5H421M597.499 28V57.3726C597.499 61.6161 599.184 65.6857 602.185 68.6863L647.312 113.814C650.313 116.814 654.382 118.5 658.626 118.5H709.999M709.999 118.5L680.499 89M709.999 118.5L762.499 171M793.999 118.5H922.871C927.115 118.5 931.184 116.814 934.185 113.814L958.999 89M421 118.5L450.5 89M421 118.5L368.5 171M337 118.5H208.127C203.884 118.5 199.814 116.814 196.814 113.814L172 89" stroke="#FFDBB9" stroke-opacity="0.08"/>
<mask id="mask3_11318_14965" style="mask-type:alpha" maskUnits="userSpaceOnUse" x="171" y="28" width="789" height="144">
<path d="M533.499 28V57.3726C533.499 61.6161 531.813 65.6857 528.812 68.6863L483.685 113.814C480.684 116.814 476.615 118.5 472.371 118.5H421M597.499 28V57.3726C597.499 61.6161 599.184 65.6857 602.185 68.6863L647.312 113.814C650.313 116.814 654.382 118.5 658.626 118.5H709.999M709.999 118.5L680.499 89M709.999 118.5L762.499 171M793.999 118.5H922.871C927.115 118.5 931.184 116.814 934.185 113.814L958.999 89M421 118.5L450.5 89M421 118.5L368.5 171M337 118.5H208.127C203.884 118.5 199.814 116.814 196.814 113.814L172 89" stroke="#FFDBB9"/>
</mask>
<g mask="url(#mask3_11318_14965)">
<g filter="url(#filter0_f_11318_14965)">
<rect x="544.498" y="-439" width="42" height="1054" fill="#FFDBB9"/>
</g>
<g filter="url(#filter1_f_11318_14965)">
<rect x="544.498" y="-439" width="42" height="1054" fill="#FFDBB9"/>
</g>
</g>
<path d="M200.5 181L200.5 309.873C200.5 314.116 198.814 318.186 195.814 321.186L171 346" stroke="url(#paint4_linear_11318_14965)" stroke-opacity="0.08"/>
<path d="M903.5 181L903.5 309.873C903.5 314.116 901.814 318.186 898.814 321.186L874 346" stroke="url(#paint5_linear_11318_14965)" stroke-opacity="0.08"/>
<path d="M127.5 181L127.5 309.873C127.5 314.116 125.814 318.186 122.814 321.186L98 346" stroke="url(#paint6_linear_11318_14965)" stroke-opacity="0.08"/>
<path d="M830.5 181L830.5 309.873C830.5 314.116 828.814 318.186 825.814 321.186L801 346" stroke="url(#paint7_linear_11318_14965)" stroke-opacity="0.08"/>
<path d="M223 181L223 309.873C223 314.116 224.686 318.186 227.686 321.186L252.5 346" stroke="url(#paint8_linear_11318_14965)" stroke-opacity="0.08"/>
<path d="M926 181L926 309.873C926 314.116 927.686 318.186 930.686 321.186L955.5 346" stroke="url(#paint9_linear_11318_14965)" stroke-opacity="0.08"/>
<path d="M336 181L336 309.873C336 314.116 337.686 318.186 340.686 321.186L365.5 346" stroke="url(#paint10_linear_11318_14965)" stroke-opacity="0.08"/>
<path d="M1039 181L1039 309.873C1039 314.116 1040.69 318.186 1043.69 321.186L1068.5 346" stroke="url(#paint11_linear_11318_14965)" stroke-opacity="0.08"/>
<defs>
<filter id="filter0_f_11318_14965" x="529.498" y="-454" width="72" height="1084" filterUnits="userSpaceOnUse" color-interpolation-filters="sRGB">
<feFlood flood-opacity="0" result="BackgroundImageFix"/>
<feBlend mode="normal" in="SourceGraphic" in2="BackgroundImageFix" result="shape"/>
<feGaussianBlur stdDeviation="7.5" result="effect1_foregroundBlur_11318_14965"/>
</filter>
<filter id="filter1_f_11318_14965" x="529.498" y="-454" width="72" height="1084" filterUnits="userSpaceOnUse" color-interpolation-filters="sRGB">
<feFlood flood-opacity="0" result="BackgroundImageFix"/>
<feBlend mode="normal" in="SourceGraphic" in2="BackgroundImageFix" result="shape"/>
<feGaussianBlur stdDeviation="7.5" result="effect1_foregroundBlur_11318_14965"/>
</filter>
<linearGradient id="paint0_linear_11318_14965" x1="388.5" y1="85.5" x2="438" y2="335" gradientUnits="userSpaceOnUse">
<stop stop-color="#D9D9D9"/>
<stop offset="1" stop-color="#737373" stop-opacity="0"/>
</linearGradient>
<radialGradient id="paint1_radial_11318_14965" cx="0" cy="0" r="1" gradientUnits="userSpaceOnUse" gradientTransform="translate(235.875 48.2238) rotate(57.3541) scale(319.003 654.909)">
<stop stop-color="#262626"/>
<stop offset="1" stop-opacity="0"/>
</radialGradient>
<linearGradient id="paint2_linear_11318_14965" x1="741.5" y1="85.5" x2="692" y2="335" gradientUnits="userSpaceOnUse">
<stop stop-color="#D9D9D9"/>
<stop offset="1" stop-color="#737373" stop-opacity="0"/>
</linearGradient>
<radialGradient id="paint3_radial_11318_14965" cx="0" cy="0" r="1" gradientUnits="userSpaceOnUse" gradientTransform="translate(894.125 48.2238) rotate(122.646) scale(319.003 654.909)">
<stop stop-color="#262626"/>
<stop offset="1" stop-opacity="0"/>
</radialGradient>
<linearGradient id="paint4_linear_11318_14965" x1="185.75" y1="346" x2="185.75" y2="181" gradientUnits="userSpaceOnUse">
<stop stop-color="#8EFE49"/>
<stop offset="1" stop-color="#8EFE49" stop-opacity="0"/>
</linearGradient>
<linearGradient id="paint5_linear_11318_14965" x1="888.75" y1="346" x2="888.75" y2="181" gradientUnits="userSpaceOnUse">
<stop stop-color="#8EFE49"/>
<stop offset="1" stop-color="#8EFE49" stop-opacity="0"/>
</linearGradient>
<linearGradient id="paint6_linear_11318_14965" x1="112.75" y1="346" x2="112.75" y2="181" gradientUnits="userSpaceOnUse">
<stop stop-color="#8EFE49"/>
<stop offset="1" stop-color="#8EFE49" stop-opacity="0"/>
</linearGradient>
<linearGradient id="paint7_linear_11318_14965" x1="815.75" y1="346" x2="815.75" y2="181" gradientUnits="userSpaceOnUse">
<stop stop-color="#8EFE49"/>
<stop offset="1" stop-color="#8EFE49" stop-opacity="0"/>
</linearGradient>
<linearGradient id="paint8_linear_11318_14965" x1="237.75" y1="346" x2="237.75" y2="181" gradientUnits="userSpaceOnUse">
<stop stop-color="#8EFE49"/>
<stop offset="1" stop-color="#8EFE49" stop-opacity="0"/>
</linearGradient>
<linearGradient id="paint9_linear_11318_14965" x1="940.75" y1="346" x2="940.75" y2="181" gradientUnits="userSpaceOnUse">
<stop stop-color="#8EFE49"/>
<stop offset="1" stop-color="#8EFE49" stop-opacity="0"/>
</linearGradient>
<linearGradient id="paint10_linear_11318_14965" x1="350.75" y1="346" x2="350.75" y2="181" gradientUnits="userSpaceOnUse">
<stop stop-color="#8EFE49"/>
<stop offset="1" stop-color="#8EFE49" stop-opacity="0"/>
</linearGradient>
<linearGradient id="paint11_linear_11318_14965" x1="1053.75" y1="346" x2="1053.75" y2="181" gradientUnits="userSpaceOnUse">
<stop stop-color="#8EFE49"/>
<stop offset="1" stop-color="#8EFE49" stop-opacity="0"/>
</linearGradient>
</defs>
</svg>
