<svg width="92" height="92" viewBox="0 0 92 92" fill="none" xmlns="http://www.w3.org/2000/svg">
<g clip-path="url(#clip0_11302_1589)">
<path d="M48.9137 59.6157V60.3824V71.0544H59.5857V51.7344V40.2344H41.431L33.1817 50.9064H48.1163H48.9137V51.7037V59.6157Z" fill="#8EFE49"/>
<path d="M39.4373 20.1787C25.5147 20.1787 13.8307 31.2187 13.432 44.8347C13.2173 51.7347 15.7627 58.2974 20.5773 63.2654C25.3 68.1414 31.6173 70.9014 38.364 71.024L46.736 60.4134L38.824 60.352C34.6533 60.352 30.636 58.5734 27.8453 55.4454C25.0547 52.3174 23.7053 48.1467 24.196 43.9454C25.024 36.4934 31.4947 30.8814 39.2533 30.8814H61.2413L69.4907 20.2094L39.4373 20.1787Z" fill="#8EFE49"/>
<path d="M70.1956 40.2656L61.9463 50.9376H78.5676V40.2656H70.1956Z" fill="#8EFE49"/>
</g>
<defs>
<clipPath id="clip0_11302_1589">
<rect width="92" height="92" fill="white"/>
</clipPath>
</defs>
</svg>
