<svg width="602" height="336" viewBox="0 0 602 336" fill="none" xmlns="http://www.w3.org/2000/svg">
<g clip-path="url(#clip0_11311_6380)">
<path d="M8 32C8 18.7452 18.7452 8 32 8H570C583.255 8 594 18.7452 594 32V304C594 317.255 583.255 328 570 328H32C18.7451 328 8 317.255 8 304V32Z" fill="url(#paint0_linear_11311_6380)"/>
<path d="M326 283.941V304C326 315.314 326 320.971 329.515 324.485C333.029 328 338.686 328 350 328H594V142C594 130.686 594 125.029 590.485 121.515C586.971 118 581.314 118 570 118H490.144C485.141 118 482.64 118 480.4 118.947C478.16 119.893 476.417 121.687 472.931 125.275L435.569 163.725C432.083 167.313 430.34 169.107 428.1 170.053C425.86 171 423.359 171 418.356 171H361.75C358.263 171 356.52 171 355.084 171.36C350.789 172.435 347.435 175.789 346.36 180.084C346 181.52 346 183.263 346 186.75C346 192.561 346 195.467 345.401 197.86C343.608 205.018 338.018 210.608 330.86 212.401C328.467 213 325.561 213 319.75 213H317.875C313.338 213 311.069 213 309.236 213.606C305.628 214.798 302.798 217.628 301.606 221.236C301 223.069 301 225.338 301 229.875V239.059C301 243.964 301 246.416 301.913 248.622C302.827 250.827 304.561 252.561 308.029 256.029L318.971 266.971C322.439 270.439 324.173 272.173 325.087 274.378C326 276.584 326 279.036 326 283.941Z" fill="white" fill-opacity="0.05"/>
<path d="M326 283.941V304C326 315.314 326 320.971 329.515 324.485C333.029 328 338.686 328 350 328H594V142C594 130.686 594 125.029 590.485 121.515C586.971 118 581.314 118 570 118H490.144C485.141 118 482.64 118 480.4 118.947C478.16 119.893 476.417 121.687 472.931 125.275L435.569 163.725C432.083 167.313 430.34 169.107 428.1 170.053C425.86 171 423.359 171 418.356 171H361.75C358.263 171 356.52 171 355.084 171.36C350.789 172.435 347.435 175.789 346.36 180.084C346 181.52 346 183.263 346 186.75C346 192.561 346 195.467 345.401 197.86C343.608 205.018 338.018 210.608 330.86 212.401C328.467 213 325.561 213 319.75 213H317.875C313.338 213 311.069 213 309.236 213.606C305.628 214.798 302.798 217.628 301.606 221.236C301 223.069 301 225.338 301 229.875V239.059C301 243.964 301 246.416 301.913 248.622C302.827 250.827 304.561 252.561 308.029 256.029L318.971 266.971C322.439 270.439 324.173 272.173 325.087 274.378C326 276.584 326 279.036 326 283.941Z" fill="url(#paint1_linear_11311_6380)"/>
<path d="M276 52.0589V32C276 20.6863 276 15.0294 272.485 11.5147C268.971 8 263.314 8 252 8H18C13.2859 8 10.9289 8 9.46448 9.46446C8 10.9289 8 13.2859 8 18V194C8 205.314 8 210.971 11.5147 214.485C15.0294 218 20.6863 218 32 218H111.856C116.859 218 119.36 218 121.6 217.053C123.84 216.107 125.583 214.313 129.069 210.725L166.431 172.275C169.917 168.687 171.66 166.893 173.9 165.947C176.14 165 178.641 165 183.644 165H240.25C243.737 165 245.48 165 246.916 164.64C251.211 163.565 254.565 160.211 255.64 155.916C256 154.48 256 152.737 256 149.25C256 143.439 256 140.533 256.599 138.14C258.392 130.982 263.982 125.392 271.14 123.599C273.533 123 276.439 123 282.25 123H284.125C288.662 123 290.931 123 292.764 122.394C296.372 121.202 299.202 118.372 300.394 114.764C301 112.931 301 110.662 301 106.125V96.9411C301 92.0361 301 89.5836 300.087 87.3784C299.173 85.1731 297.439 83.4389 293.971 79.9706L283.029 69.0294C279.561 65.5611 277.827 63.8269 276.913 61.6216C276 59.4164 276 56.9639 276 52.0589Z" fill="white" fill-opacity="0.05"/>
<path d="M276 52.0589V32C276 20.6863 276 15.0294 272.485 11.5147C268.971 8 263.314 8 252 8H18C13.2859 8 10.9289 8 9.46448 9.46446C8 10.9289 8 13.2859 8 18V194C8 205.314 8 210.971 11.5147 214.485C15.0294 218 20.6863 218 32 218H111.856C116.859 218 119.36 218 121.6 217.053C123.84 216.107 125.583 214.313 129.069 210.725L166.431 172.275C169.917 168.687 171.66 166.893 173.9 165.947C176.14 165 178.641 165 183.644 165H240.25C243.737 165 245.48 165 246.916 164.64C251.211 163.565 254.565 160.211 255.64 155.916C256 154.48 256 152.737 256 149.25C256 143.439 256 140.533 256.599 138.14C258.392 130.982 263.982 125.392 271.14 123.599C273.533 123 276.439 123 282.25 123H284.125C288.662 123 290.931 123 292.764 122.394C296.372 121.202 299.202 118.372 300.394 114.764C301 112.931 301 110.662 301 106.125V96.9411C301 92.0361 301 89.5836 300.087 87.3784C299.173 85.1731 297.439 83.4389 293.971 79.9706L283.029 69.0294C279.561 65.5611 277.827 63.8269 276.913 61.6216C276 59.4164 276 56.9639 276 52.0589Z" fill="url(#paint2_linear_11311_6380)"/>
<g opacity="0.1" clip-path="url(#clip1_11311_6380)">
<line x1="249.22" y1="101.717" x2="263.362" y2="87.5754" stroke="white"/>
<line x1="255.362" y1="101.717" x2="269.504" y2="87.5754" stroke="white"/>
<line x1="261.504" y1="101.717" x2="275.646" y2="87.5754" stroke="white"/>
<line x1="267.646" y1="101.717" x2="281.789" y2="87.5754" stroke="white"/>
<line x1="273.789" y1="101.717" x2="287.931" y2="87.5754" stroke="white"/>
<line x1="279.931" y1="101.717" x2="294.073" y2="87.5754" stroke="white"/>
</g>
<path d="M305 91.1274V111.286C305 114.745 305 116.475 305.526 117.853C306.338 119.981 308.019 121.662 310.147 122.474C311.525 123 313.255 123 316.714 123C325.363 123 329.687 123 333.132 124.315C338.452 126.346 342.654 130.548 344.685 135.868C346 139.313 346 143.637 346 152.286V154.429C346 158.693 346 160.826 346.792 162.471C347.579 164.104 348.896 165.421 350.529 166.208C352.174 167 354.307 167 358.571 167H418.373C421.643 167 423.278 167 424.748 166.391C426.218 165.782 427.374 164.626 429.686 162.314L473.314 118.686C475.626 116.374 476.782 115.218 478.252 114.609C479.722 114 481.357 114 484.627 114H578C585.542 114 589.314 114 591.657 111.657C594 109.314 594 105.542 594 98V8H296C288.458 8 284.686 8 282.343 10.3431C280 12.6863 280 16.4575 280 24V52.8726C280 56.1426 280 57.7776 280.609 59.2478C281.218 60.7179 282.374 61.8741 284.686 64.1863L300.314 79.8137C302.626 82.126 303.782 83.2821 304.391 84.7522C305 86.2224 305 87.8574 305 91.1274Z" fill="white" fill-opacity="0.05"/>
<path d="M305 91.1274V111.286C305 114.745 305 116.475 305.526 117.853C306.338 119.981 308.019 121.662 310.147 122.474C311.525 123 313.255 123 316.714 123C325.363 123 329.687 123 333.132 124.315C338.452 126.346 342.654 130.548 344.685 135.868C346 139.313 346 143.637 346 152.286V154.429C346 158.693 346 160.826 346.792 162.471C347.579 164.104 348.896 165.421 350.529 166.208C352.174 167 354.307 167 358.571 167H418.373C421.643 167 423.278 167 424.748 166.391C426.218 165.782 427.374 164.626 429.686 162.314L473.314 118.686C475.626 116.374 476.782 115.218 478.252 114.609C479.722 114 481.357 114 484.627 114H578C585.542 114 589.314 114 591.657 111.657C594 109.314 594 105.542 594 98V8H296C288.458 8 284.686 8 282.343 10.3431C280 12.6863 280 16.4575 280 24V52.8726C280 56.1426 280 57.7776 280.609 59.2478C281.218 60.7179 282.374 61.8741 284.686 64.1863L300.314 79.8137C302.626 82.126 303.782 83.2821 304.391 84.7522C305 86.2224 305 87.8574 305 91.1274Z" fill="url(#paint3_linear_11311_6380)"/>
<rect x="352" y="157" width="4" height="4" rx="2" fill="#393939"/>
<rect x="419" y="157" width="4" height="4" rx="2" fill="#393939"/>
<rect x="286" y="14" width="4" height="4" rx="2" fill="white" fill-opacity="0.05"/>
<rect x="286" y="22" width="4" height="4" rx="2" fill="white" fill-opacity="0.05"/>
<rect x="294" y="14" width="4" height="4" rx="2" fill="white" fill-opacity="0.05"/>
<path d="M297 244.873V224.714C297 221.255 297 219.525 296.474 218.147C295.662 216.019 293.981 214.338 291.853 213.526C290.475 213 288.745 213 285.286 213C276.637 213 272.313 213 268.868 211.685C263.548 209.654 259.346 205.452 257.315 200.132C256 196.687 256 192.363 256 183.714V181.571C256 177.307 256 175.174 255.208 173.529C254.421 171.896 253.104 170.579 251.471 169.792C249.826 169 247.693 169 243.429 169H183.627C180.357 169 178.722 169 177.252 169.609C175.782 170.218 174.626 171.374 172.314 173.686L128.686 217.314C126.374 219.626 125.218 220.782 123.748 221.391C122.278 222 120.643 222 117.373 222H24C16.4575 222 12.6863 222 10.3431 224.343C8 226.686 8 230.458 8 238V328H306C313.542 328 317.314 328 319.657 325.657C322 323.314 322 319.542 322 312V283.127C322 279.857 322 278.222 321.391 276.752C320.782 275.282 319.626 274.126 317.314 271.814L301.686 256.186C299.374 253.874 298.218 252.718 297.609 251.248C297 249.778 297 248.143 297 244.873Z" fill="white" fill-opacity="0.05"/>
<path d="M297 244.873V224.714C297 221.255 297 219.525 296.474 218.147C295.662 216.019 293.981 214.338 291.853 213.526C290.475 213 288.745 213 285.286 213C276.637 213 272.313 213 268.868 211.685C263.548 209.654 259.346 205.452 257.315 200.132C256 196.687 256 192.363 256 183.714V181.571C256 177.307 256 175.174 255.208 173.529C254.421 171.896 253.104 170.579 251.471 169.792C249.826 169 247.693 169 243.429 169H183.627C180.357 169 178.722 169 177.252 169.609C175.782 170.218 174.626 171.374 172.314 173.686L128.686 217.314C126.374 219.626 125.218 220.782 123.748 221.391C122.278 222 120.643 222 117.373 222H24C16.4575 222 12.6863 222 10.3431 224.343C8 226.686 8 230.458 8 238V328H306C313.542 328 317.314 328 319.657 325.657C322 323.314 322 319.542 322 312V283.127C322 279.857 322 278.222 321.391 276.752C320.782 275.282 319.626 274.126 317.314 271.814L301.686 256.186C299.374 253.874 298.218 252.718 297.609 251.248C297 249.778 297 248.143 297 244.873Z" fill="url(#paint4_linear_11311_6380)"/>
<rect x="250" y="179" width="4" height="4" rx="2" transform="rotate(180 250 179)" fill="#393939"/>
<rect x="260" y="127" width="82" height="82" rx="17.9394" fill="#1D1D1D"/>
<rect x="260.28" y="127.28" width="81.4394" height="81.4394" rx="17.6591" stroke="#8EFE49" stroke-opacity="0.19" stroke-width="0.560606"/>
<g filter="url(#filter0_di_11311_6380)">
<rect x="274.091" y="141.091" width="53.8182" height="53.8182" rx="13.4545" fill="#161616"/>
<rect x="274.091" y="141.091" width="53.8182" height="53.8182" rx="13.4545" fill="url(#paint5_linear_11311_6380)" fill-opacity="0.15"/>
<rect x="274.652" y="141.652" width="52.697" height="52.697" rx="12.8939" stroke="url(#paint6_linear_11311_6380)" stroke-opacity="0.34" stroke-width="1.12121"/>
</g>
<path d="M301 179.212C307.192 179.212 312.212 174.192 312.212 168C312.212 161.808 307.192 156.788 301 156.788C294.808 156.788 289.788 161.808 289.788 168C289.788 174.192 294.808 179.212 301 179.212Z" stroke="#8EFE49" stroke-width="1.12121" stroke-linecap="round" stroke-linejoin="round"/>
<path d="M301 162.394V168L304.364 171.364" stroke="#8EFE49" stroke-width="1.12121" stroke-linecap="round" stroke-linejoin="round"/>
<g filter="url(#filter1_f_11311_6380)">
<path d="M301 179.212C307.192 179.212 312.212 174.192 312.212 168C312.212 161.808 307.192 156.788 301 156.788C294.808 156.788 289.788 161.808 289.788 168C289.788 174.192 294.808 179.212 301 179.212Z" stroke="#8EFE49" stroke-width="1.12121" stroke-linecap="round" stroke-linejoin="round"/>
<path d="M301 162.394V168L304.364 171.364" stroke="#8EFE49" stroke-width="1.12121" stroke-linecap="round" stroke-linejoin="round"/>
</g>
</g>
<path d="M32 8.5H570C582.979 8.5 593.5 19.0213 593.5 32V304C593.5 316.979 582.979 327.5 570 327.5H32C19.0213 327.5 8.5 316.979 8.5 304V32C8.5 19.0213 19.0213 8.5 32 8.5Z" stroke="url(#paint7_linear_11311_6380)" stroke-opacity="0.1"/>
<rect x="0.5" y="0.5" width="601" height="335" rx="31.5" stroke="url(#paint8_linear_11311_6380)" stroke-opacity="0.15"/>
<defs>
<filter id="filter0_di_11311_6380" x="270.727" y="137.727" width="60.5454" height="60.5455" filterUnits="userSpaceOnUse" color-interpolation-filters="sRGB">
<feFlood flood-opacity="0" result="BackgroundImageFix"/>
<feColorMatrix in="SourceAlpha" type="matrix" values="0 0 0 0 0 0 0 0 0 0 0 0 0 0 0 0 0 0 127 0" result="hardAlpha"/>
<feMorphology radius="3.36364" operator="dilate" in="SourceAlpha" result="effect1_dropShadow_11311_6380"/>
<feOffset/>
<feComposite in2="hardAlpha" operator="out"/>
<feColorMatrix type="matrix" values="0 0 0 0 0 0 0 0 0 0 0 0 0 0 0 0 0 0 0.1 0"/>
<feBlend mode="normal" in2="BackgroundImageFix" result="effect1_dropShadow_11311_6380"/>
<feBlend mode="normal" in="SourceGraphic" in2="effect1_dropShadow_11311_6380" result="shape"/>
<feColorMatrix in="SourceAlpha" type="matrix" values="0 0 0 0 0 0 0 0 0 0 0 0 0 0 0 0 0 0 127 0" result="hardAlpha"/>
<feOffset dy="3.36364"/>
<feGaussianBlur stdDeviation="2.57879"/>
<feComposite in2="hardAlpha" operator="arithmetic" k2="-1" k3="1"/>
<feColorMatrix type="matrix" values="0 0 0 0 0 0 0 0 0 0 0 0 0 0 0 0 0 0 0.25 0"/>
<feBlend mode="normal" in2="shape" result="effect2_innerShadow_11311_6380"/>
</filter>
<filter id="filter1_f_11311_6380" x="278.352" y="145.351" width="45.297" height="45.2969" filterUnits="userSpaceOnUse" color-interpolation-filters="sRGB">
<feFlood flood-opacity="0" result="BackgroundImageFix"/>
<feBlend mode="normal" in="SourceGraphic" in2="BackgroundImageFix" result="shape"/>
<feGaussianBlur stdDeviation="4.59697" result="effect1_foregroundBlur_11311_6380"/>
</filter>
<linearGradient id="paint0_linear_11311_6380" x1="301" y1="8" x2="301" y2="328" gradientUnits="userSpaceOnUse">
<stop stop-color="#181818"/>
<stop offset="1" stop-color="#181818" stop-opacity="0"/>
</linearGradient>
<linearGradient id="paint1_linear_11311_6380" x1="594" y1="328" x2="301" y2="118" gradientUnits="userSpaceOnUse">
<stop stop-color="#181818" stop-opacity="0"/>
<stop offset="1" stop-color="#181818"/>
</linearGradient>
<linearGradient id="paint2_linear_11311_6380" x1="7.99999" y1="7.99999" x2="301" y2="218" gradientUnits="userSpaceOnUse">
<stop stop-color="#181818" stop-opacity="0"/>
<stop offset="1" stop-color="#181818"/>
</linearGradient>
<linearGradient id="paint3_linear_11311_6380" x1="594" y1="167" x2="359.762" y2="-70.6253" gradientUnits="userSpaceOnUse">
<stop stop-color="#181818" stop-opacity="0"/>
<stop offset="1" stop-color="#181818"/>
</linearGradient>
<linearGradient id="paint4_linear_11311_6380" x1="7.99999" y1="169" x2="242.238" y2="406.625" gradientUnits="userSpaceOnUse">
<stop stop-color="#181818" stop-opacity="0"/>
<stop offset="1" stop-color="#181818"/>
</linearGradient>
<linearGradient id="paint5_linear_11311_6380" x1="301" y1="141.091" x2="301" y2="194.909" gradientUnits="userSpaceOnUse">
<stop stop-color="#6C6C6C"/>
<stop offset="1" stop-color="white" stop-opacity="0"/>
</linearGradient>
<linearGradient id="paint6_linear_11311_6380" x1="301" y1="141.091" x2="301" y2="194.909" gradientUnits="userSpaceOnUse">
<stop stop-color="white" stop-opacity="0.56"/>
<stop offset="1" stop-color="white" stop-opacity="0"/>
</linearGradient>
<linearGradient id="paint7_linear_11311_6380" x1="301" y1="8" x2="301" y2="328" gradientUnits="userSpaceOnUse">
<stop stop-color="white"/>
<stop offset="1" stop-color="white" stop-opacity="0"/>
</linearGradient>
<linearGradient id="paint8_linear_11311_6380" x1="-1.3262e-06" y1="168" x2="152" y2="72" gradientUnits="userSpaceOnUse">
<stop stop-color="white"/>
<stop offset="1" stop-color="white" stop-opacity="0"/>
</linearGradient>
<clipPath id="clip0_11311_6380">
<path d="M8 32C8 18.7452 18.7452 8 32 8H570C583.255 8 594 18.7452 594 32V304C594 317.255 583.255 328 570 328H32C18.7451 328 8 317.255 8 304V32Z" fill="white"/>
</clipPath>
<clipPath id="clip1_11311_6380">
<rect width="20" height="20" fill="white" transform="translate(262 85)"/>
</clipPath>
</defs>
</svg>
