<svg width="504" height="320" viewBox="0 0 504 320" fill="none" xmlns="http://www.w3.org/2000/svg">
<g clip-path="url(#clip0_11302_1370)">
<path d="M480 320H24C10.7452 320 0 309.255 0 296V48.4411C0 42.0759 2.52856 35.9714 7.02944 31.4706L31.4706 7.02942C35.9714 2.52856 42.0759 0 48.4411 0H480C493.255 0 504 10.7451 504 24V296C504 309.255 493.255 320 480 320Z" fill="url(#paint0_linear_11302_1370)"/>
<path d="M24 319.5H480C492.979 319.5 503.5 308.979 503.5 296V24C503.5 11.0213 492.979 0.5 480 0.5H48.4411C42.2085 0.5 36.2312 2.97589 31.8241 7.38297L7.38299 31.8241C2.97589 36.2312 0.5 42.2085 0.5 48.4411V296C0.5 308.979 11.0213 319.5 24 319.5Z" stroke="url(#paint1_linear_11302_1370)" stroke-opacity="0.1"/>
<path d="M-474 -162H-518C-527.389 -162 -535 -154.389 -535 -145V246.5C-535 255.889 -527.389 263.5 -518 263.5H-157.5C-148.111 263.5 -140.5 271.111 -140.5 280.5V317.5C-140.5 326.889 -132.889 334.5 -123.5 334.5H93.5H-14.7453C-20.2389 334.5 -25.3939 331.845 -28.5845 327.373L-137.339 174.931C-139.395 172.049 -140.5 168.597 -140.5 165.058V98C-140.5 88.6112 -132.889 81 -123.5 81H-43.5C-34.1112 81 -26.5 73.3888 -26.5 64V-145C-26.5 -154.389 -18.8888 -162 -9.5 -162H235C244.389 -162 252 -154.389 252 -145V-9.5C252 -0.111163 244.389 7.5 235 7.5H110.5C101.111 7.5 93.5 15.1112 93.5 24.5V145C93.5 154.389 101.111 162 110.5 162H215.5" stroke="white" stroke-opacity="0.2" stroke-dasharray="6 6"/>
<path d="M-81 -88H-125C-134.389 -88 -142 -80.3888 -142 -71V320.5C-142 329.889 -134.389 337.5 -125 337.5H235.5C244.889 337.5 252.5 345.111 252.5 354.5V391.5C252.5 400.889 260.111 408.5 269.5 408.5H469.5C478.889 408.5 486.5 400.889 486.5 391.5V261.5C486.5 252.111 478.889 244.5 469.5 244.5H269.5C260.111 244.5 252.5 236.889 252.5 227.5V172C252.5 162.611 260.111 155 269.5 155H349.5C358.889 155 366.5 147.389 366.5 138V-71C366.5 -80.3888 374.111 -88 383.5 -88H628C637.389 -88 645 -80.3888 645 -71V64.5C645 73.8888 637.389 81.5 628 81.5H503.5C494.111 81.5 486.5 89.1112 486.5 98.5V219C486.5 228.389 494.111 236 503.5 236H608.5" stroke="white" stroke-opacity="0.2" stroke-dasharray="6 6"/>
<g filter="url(#filter0_di_11302_1370)">
<path d="M220 154.909C220 142.224 220 135.881 223.941 131.941C227.881 128 234.224 128 246.909 128H257.091C269.776 128 276.119 128 280.059 131.941C284 135.881 284 142.224 284 154.909V165.091C284 177.776 284 184.119 280.059 188.059C276.119 192 269.776 192 257.091 192H246.909C234.224 192 227.881 192 223.941 188.059C220 184.119 220 177.776 220 165.091V154.909Z" fill="#161616"/>
<path d="M220 154.909C220 142.224 220 135.881 223.941 131.941C227.881 128 234.224 128 246.909 128H257.091C269.776 128 276.119 128 280.059 131.941C284 135.881 284 142.224 284 154.909V165.091C284 177.776 284 184.119 280.059 188.059C276.119 192 269.776 192 257.091 192H246.909C234.224 192 227.881 192 223.941 188.059C220 184.119 220 177.776 220 165.091V154.909Z" fill="url(#paint2_linear_11302_1370)" fill-opacity="0.15"/>
<path d="M246.909 128.561H257.091C263.449 128.561 268.162 128.562 271.78 129.048C275.381 129.532 277.814 130.488 279.663 132.337C281.512 134.186 282.468 136.619 282.952 140.22C283.438 143.838 283.439 148.551 283.439 154.909V165.091C283.439 171.449 283.438 176.162 282.952 179.78C282.468 183.381 281.512 185.814 279.663 187.663C277.814 189.512 275.381 190.468 271.78 190.952C268.162 191.438 263.449 191.439 257.091 191.439H246.909C240.551 191.439 235.838 191.438 232.22 190.952C228.619 190.468 226.186 189.512 224.337 187.663C222.488 185.814 221.532 183.381 221.048 179.78C220.562 176.162 220.561 171.449 220.561 165.091V154.909C220.561 148.551 220.562 143.838 221.048 140.22C221.532 136.619 222.488 134.186 224.337 132.337C226.186 130.488 228.619 129.532 232.22 129.048C235.838 128.562 240.551 128.561 246.909 128.561Z" stroke="url(#paint3_linear_11302_1370)" stroke-opacity="0.34" stroke-width="1.12121"/>
</g>
<path d="M260.048 159.762L249.548 171.012C249.437 171.131 249.29 171.21 249.13 171.238C248.969 171.266 248.804 171.241 248.659 171.167C248.515 171.093 248.398 170.973 248.326 170.827C248.255 170.681 248.234 170.515 248.265 170.356L249.639 163.481L244.236 161.452C244.12 161.409 244.017 161.337 243.935 161.244C243.853 161.151 243.796 161.039 243.768 160.918C243.74 160.798 243.743 160.672 243.775 160.552C243.808 160.433 243.87 160.323 243.955 160.233L254.455 148.983C254.566 148.865 254.713 148.785 254.873 148.757C255.034 148.729 255.199 148.754 255.344 148.828C255.489 148.903 255.605 149.022 255.677 149.168C255.748 149.314 255.77 149.48 255.738 149.64L254.36 156.522L259.763 158.548C259.878 158.591 259.981 158.663 260.062 158.756C260.143 158.848 260.2 158.96 260.228 159.08C260.256 159.2 260.253 159.325 260.221 159.444C260.189 159.563 260.129 159.672 260.044 159.762H260.048Z" fill="white"/>
<g opacity="0.5" filter="url(#filter1_f_11302_1370)">
<path d="M260.048 159.762L249.548 171.012C249.437 171.131 249.29 171.21 249.13 171.238C248.969 171.266 248.804 171.241 248.659 171.167C248.515 171.093 248.398 170.973 248.326 170.827C248.255 170.681 248.234 170.515 248.265 170.356L249.639 163.481L244.236 161.452C244.12 161.409 244.017 161.337 243.935 161.244C243.853 161.151 243.796 161.039 243.768 160.918C243.74 160.798 243.743 160.672 243.775 160.552C243.808 160.433 243.87 160.323 243.955 160.233L254.455 148.983C254.566 148.865 254.713 148.785 254.873 148.757C255.034 148.729 255.199 148.754 255.344 148.828C255.489 148.903 255.605 149.022 255.677 149.168C255.748 149.314 255.77 149.48 255.738 149.64L254.36 156.522L259.763 158.548C259.878 158.591 259.981 158.663 260.062 158.756C260.143 158.848 260.2 158.96 260.228 159.08C260.256 159.2 260.253 159.325 260.221 159.444C260.189 159.563 260.129 159.672 260.044 159.762H260.048Z" fill="white"/>
</g>
<path d="M71 68C71 61.3726 76.3726 56 83 56H107C113.627 56 119 61.3726 119 68V92C119 98.6274 113.627 104 107 104H83C76.3726 104 71 98.6274 71 92V68Z" fill="#151515"/>
<path d="M83 56.35H107C113.434 56.35 118.65 61.5659 118.65 68V92C118.65 98.4341 113.434 103.65 107 103.65H83C76.5659 103.65 71.35 98.4341 71.35 92V68C71.35 61.5659 76.5659 56.35 83 56.35Z" stroke="url(#paint4_linear_11302_1370)" stroke-opacity="0.44" stroke-width="0.7"/>
<path d="M95.0003 85.8333C97.1697 85.8333 99.1204 84.6462 100.139 82.7335L95.5837 80L100.139 77.2665C99.1204 75.3537 97.1697 74.1666 95.0003 74.1666C91.7838 74.1666 89.167 76.7835 89.167 80C89.167 83.2165 91.7838 85.8333 95.0003 85.8333ZM94.7087 76.5C94.9408 76.5 95.1634 76.5923 95.3275 76.7565C95.4916 76.9207 95.5837 77.1434 95.5837 77.3755C95.5836 77.6077 95.4913 77.8303 95.3271 77.9944C95.1629 78.1585 94.9402 78.2506 94.7081 78.2505C94.4759 78.2505 94.2533 78.1582 94.0892 77.994C93.9251 77.8298 93.833 77.6071 93.8331 77.375C93.8332 77.1428 93.9254 76.9202 94.0896 76.7561C94.2539 76.592 94.4765 76.4999 94.7087 76.5Z" fill="#8EFE49"/>
<path d="M464 148C464 141.373 469.373 136 476 136H500C506.627 136 512 141.373 512 148V172C512 178.627 506.627 184 500 184H476C469.373 184 464 178.627 464 172V148Z" fill="#151515"/>
<path d="M476 136.35H500C506.434 136.35 511.65 141.566 511.65 148V172C511.65 178.434 506.434 183.65 500 183.65H476C469.566 183.65 464.35 178.434 464.35 172V148C464.35 141.566 469.566 136.35 476 136.35Z" stroke="url(#paint5_linear_11302_1370)" stroke-opacity="0.44" stroke-width="0.7"/>
<path d="M488 168.333C484.901 168.333 482.114 166.637 480.659 163.905L487.166 160L480.659 156.095C482.114 153.362 484.901 151.667 488 151.667C492.595 151.667 496.333 155.405 496.333 160C496.333 164.595 492.595 168.333 488 168.333ZM488.416 155C488.085 155 487.767 155.132 487.532 155.366C487.298 155.601 487.166 155.919 487.166 156.251C487.166 156.582 487.298 156.9 487.533 157.135C487.767 157.369 488.086 157.501 488.417 157.501C488.749 157.501 489.067 157.369 489.301 157.134C489.536 156.9 489.667 156.582 489.667 156.25C489.667 155.918 489.535 155.6 489.301 155.366C489.066 155.131 488.748 155 488.416 155Z" fill="#8EFE49"/>
<path d="M33.4382 242V228.909H35.4134V240.3H41.3452V242H33.4382ZM42.725 242V232.182H44.6362V242H42.725ZM43.6902 230.667C43.3578 230.667 43.0723 230.556 42.8336 230.335C42.5992 230.109 42.4821 229.84 42.4821 229.529C42.4821 229.214 42.5992 228.945 42.8336 228.724C43.0723 228.498 43.3578 228.385 43.6902 228.385C44.0225 228.385 44.3059 228.498 44.5403 228.724C44.7789 228.945 44.8983 229.214 44.8983 229.529C44.8983 229.84 44.7789 230.109 44.5403 230.335C44.3059 230.556 44.0225 230.667 43.6902 230.667ZM50.6039 245.886C49.824 245.886 49.1529 245.784 48.5904 245.58C48.0321 245.375 47.5762 245.104 47.2225 244.768C46.8688 244.431 46.6046 244.063 46.4299 243.662L48.0726 242.984C48.1877 243.172 48.3411 243.37 48.5328 243.579C48.7289 243.792 48.9931 243.973 49.3254 244.122C49.6621 244.271 50.0946 244.346 50.623 244.346C51.3475 244.346 51.9462 244.169 52.4192 243.815C52.8922 243.466 53.1287 242.908 53.1287 242.141V240.21H53.0073C52.8922 240.419 52.726 240.651 52.5087 240.907C52.2956 241.163 52.0016 241.384 51.6266 241.572C51.2516 241.759 50.7637 241.853 50.1628 241.853C49.3872 241.853 48.6884 241.672 48.0662 241.31C47.4483 240.943 46.9583 240.404 46.596 239.692C46.2381 238.977 46.0591 238.097 46.0591 237.053C46.0591 236.009 46.236 235.114 46.5897 234.368C46.9476 233.622 47.4377 233.051 48.0598 232.655C48.682 232.254 49.3872 232.054 50.1756 232.054C50.785 232.054 51.2772 232.156 51.6522 232.361C52.0272 232.561 52.3191 232.795 52.5279 233.064C52.7409 233.332 52.905 233.569 53.02 233.773H53.1607V232.182H55.0335V242.217C55.0335 243.061 54.8375 243.754 54.4455 244.295C54.0534 244.836 53.5229 245.237 52.8539 245.496C52.1891 245.756 51.4391 245.886 50.6039 245.886ZM50.5847 240.268C51.1344 240.268 51.5989 240.14 51.9781 239.884C52.3617 239.624 52.6514 239.254 52.8475 238.772C53.0477 238.286 53.1479 237.705 53.1479 237.027C53.1479 236.366 53.0499 235.785 52.8539 235.282C52.6578 234.779 52.3702 234.387 51.9909 234.106C51.6117 233.82 51.1429 233.678 50.5847 233.678C50.0094 233.678 49.53 233.827 49.1465 234.125C48.7629 234.419 48.4732 234.82 48.2772 235.327C48.0854 235.834 47.9895 236.401 47.9895 237.027C47.9895 237.67 48.0875 238.235 48.2835 238.721C48.4796 239.207 48.7693 239.586 49.1529 239.859C49.5406 240.131 50.0179 240.268 50.5847 240.268ZM58.788 236.17V242H56.8768V228.909H58.7624V233.78H58.8839C59.114 233.251 59.4655 232.832 59.9385 232.521C60.4116 232.21 61.0295 232.054 61.7922 232.054C62.4655 232.054 63.0536 232.192 63.5564 232.469C64.0635 232.746 64.4556 233.16 64.7326 233.71C65.0138 234.255 65.1545 234.937 65.1545 235.755V242H63.2432V235.985C63.2432 235.265 63.0579 234.707 62.6871 234.31C62.3164 233.91 61.8008 233.71 61.1402 233.71C60.6885 233.71 60.2837 233.805 59.9258 233.997C59.5721 234.189 59.2929 234.47 59.0884 234.841C58.8881 235.207 58.788 235.651 58.788 236.17ZM71.568 232.182V233.716H66.205V232.182H71.568ZM67.6433 229.83H69.5545V239.117C69.5545 239.488 69.6099 239.767 69.7207 239.955C69.8315 240.138 69.9742 240.263 70.1489 240.332C70.3279 240.396 70.5218 240.428 70.7306 240.428C70.884 240.428 71.0183 240.417 71.1333 240.396C71.2484 240.374 71.3379 240.357 71.4018 240.344L71.747 241.923C71.6362 241.966 71.4785 242.009 71.2739 242.051C71.0694 242.098 70.8137 242.124 70.5069 242.128C70.0041 242.136 69.5353 242.047 69.1006 241.859C68.666 241.672 68.3144 241.382 68.046 240.99C67.7775 240.598 67.6433 240.106 67.6433 239.513V229.83ZM74.8734 236.17V242H72.9621V232.182H74.7967V233.78H74.9181C75.144 233.26 75.4977 232.842 75.9792 232.527C76.465 232.212 77.0765 232.054 77.8137 232.054C78.4827 232.054 79.0687 232.195 79.5715 232.476C80.0744 232.753 80.4643 233.166 80.7413 233.716C81.0183 234.266 81.1567 234.945 81.1567 235.755V242H79.2455V235.985C79.2455 235.273 79.0602 234.717 78.6894 234.317C78.3187 233.912 77.8094 233.71 77.1617 233.71C76.7185 233.71 76.3244 233.805 75.9792 233.997C75.6383 234.189 75.3677 234.47 75.1674 234.841C74.9714 235.207 74.8734 235.651 74.8734 236.17ZM83 242V232.182H84.9112V242H83ZM83.9652 230.667C83.6328 230.667 83.3473 230.556 83.1086 230.335C82.8742 230.109 82.7571 229.84 82.7571 229.529C82.7571 229.214 82.8742 228.945 83.1086 228.724C83.3473 228.498 83.6328 228.385 83.9652 228.385C84.2975 228.385 84.5809 228.498 84.8153 228.724C85.0539 228.945 85.1733 229.214 85.1733 229.529C85.1733 229.84 85.0539 230.109 84.8153 230.335C84.5809 230.556 84.2975 230.667 83.9652 230.667ZM88.6736 236.17V242H86.7624V232.182H88.5969V233.78H88.7183C88.9442 233.26 89.2979 232.842 89.7794 232.527C90.2652 232.212 90.8767 232.054 91.6139 232.054C92.283 232.054 92.8689 232.195 93.3718 232.476C93.8746 232.753 94.2645 233.166 94.5415 233.716C94.8185 234.266 94.957 234.945 94.957 235.755V242H93.0458V235.985C93.0458 235.273 92.8604 234.717 92.4897 234.317C92.1189 233.912 91.6097 233.71 90.962 233.71C90.5188 233.71 90.1246 233.805 89.7794 233.997C89.4385 234.189 89.1679 234.47 88.9676 234.841C88.7716 235.207 88.6736 235.651 88.6736 236.17ZM100.917 245.886C100.137 245.886 99.4657 245.784 98.9032 245.58C98.3449 245.375 97.889 245.104 97.5353 244.768C97.1816 244.431 96.9174 244.063 96.7427 243.662L98.3854 242.984C98.5005 243.172 98.6539 243.37 98.8456 243.579C99.0417 243.792 99.3059 243.973 99.6383 244.122C99.9749 244.271 100.407 244.346 100.936 244.346C101.66 244.346 102.259 244.169 102.732 243.815C103.205 243.466 103.442 242.908 103.442 242.141V240.21H103.32C103.205 240.419 103.039 240.651 102.821 240.907C102.608 241.163 102.314 241.384 101.939 241.572C101.564 241.759 101.076 241.853 100.476 241.853C99.7 241.853 99.0012 241.672 98.379 241.31C97.7611 240.943 97.2711 240.404 96.9089 239.692C96.5509 238.977 96.3719 238.097 96.3719 237.053C96.3719 236.009 96.5488 235.114 96.9025 234.368C97.2604 233.622 97.7505 233.051 98.3726 232.655C98.9948 232.254 99.7 232.054 100.488 232.054C101.098 232.054 101.59 232.156 101.965 232.361C102.34 232.561 102.632 232.795 102.841 233.064C103.054 233.332 103.218 233.569 103.333 233.773H103.473V232.182H105.346V242.217C105.346 243.061 105.15 243.754 104.758 244.295C104.366 244.836 103.836 245.237 103.167 245.496C102.502 245.756 101.752 245.886 100.917 245.886ZM100.897 240.268C101.447 240.268 101.912 240.14 102.291 239.884C102.674 239.624 102.964 239.254 103.16 238.772C103.361 238.286 103.461 237.705 103.461 237.027C103.461 236.366 103.363 235.785 103.167 235.282C102.971 234.779 102.683 234.387 102.304 234.106C101.924 233.82 101.456 233.678 100.897 233.678C100.322 233.678 99.8428 233.827 99.4593 234.125C99.0758 234.419 98.786 234.82 98.59 235.327C98.3982 235.834 98.3023 236.401 98.3023 237.027C98.3023 237.67 98.4003 238.235 98.5964 238.721C98.7924 239.207 99.0821 239.586 99.4657 239.859C99.8535 240.131 100.331 240.268 100.897 240.268ZM112.974 235.64V237.295H107.17V235.64H112.974ZM114.955 242V228.909H123.073V230.609H116.93V234.598H122.491V236.292H116.93V242H114.955ZM127.451 242.217C126.828 242.217 126.266 242.102 125.763 241.872C125.26 241.638 124.862 241.299 124.568 240.856C124.278 240.413 124.133 239.869 124.133 239.226C124.133 238.672 124.24 238.216 124.453 237.858C124.666 237.5 124.953 237.217 125.316 237.008C125.678 236.799 126.083 236.641 126.53 236.535C126.978 236.428 127.434 236.347 127.898 236.292C128.486 236.224 128.963 236.168 129.33 236.126C129.696 236.079 129.963 236.004 130.129 235.902C130.295 235.8 130.378 235.634 130.378 235.403V235.359C130.378 234.8 130.22 234.368 129.905 234.061C129.594 233.754 129.13 233.601 128.512 233.601C127.868 233.601 127.361 233.744 126.99 234.029C126.624 234.31 126.37 234.624 126.23 234.969L124.434 234.56C124.647 233.963 124.958 233.482 125.367 233.115C125.78 232.744 126.255 232.476 126.792 232.31C127.329 232.139 127.894 232.054 128.486 232.054C128.878 232.054 129.294 232.101 129.733 232.195C130.176 232.284 130.589 232.45 130.973 232.693C131.36 232.936 131.678 233.283 131.925 233.735C132.172 234.183 132.296 234.764 132.296 235.48V242H130.429V240.658H130.353C130.229 240.905 130.044 241.148 129.796 241.386C129.549 241.625 129.232 241.823 128.844 241.981C128.456 242.138 127.992 242.217 127.451 242.217ZM127.866 240.683C128.394 240.683 128.846 240.579 129.221 240.37C129.6 240.161 129.888 239.888 130.084 239.552C130.284 239.211 130.385 238.847 130.385 238.459V237.193C130.316 237.261 130.184 237.325 129.988 237.385C129.796 237.44 129.577 237.489 129.33 237.532C129.083 237.57 128.842 237.607 128.608 237.641C128.373 237.67 128.177 237.696 128.019 237.717C127.649 237.764 127.31 237.843 127.003 237.954C126.701 238.065 126.458 238.224 126.274 238.433C126.095 238.638 126.006 238.911 126.006 239.251C126.006 239.724 126.181 240.082 126.53 240.325C126.88 240.564 127.325 240.683 127.866 240.683ZM141.479 234.579L139.746 234.886C139.674 234.664 139.559 234.453 139.401 234.253C139.248 234.053 139.039 233.888 138.775 233.761C138.511 233.633 138.18 233.569 137.784 233.569C137.243 233.569 136.791 233.69 136.429 233.933C136.067 234.172 135.886 234.481 135.886 234.86C135.886 235.188 136.007 235.452 136.25 235.653C136.493 235.853 136.885 236.017 137.426 236.145L138.986 236.503C139.889 236.712 140.562 237.033 141.006 237.468C141.449 237.903 141.67 238.467 141.67 239.162C141.67 239.75 141.5 240.274 141.159 240.734C140.822 241.19 140.351 241.548 139.746 241.808C139.146 242.068 138.449 242.198 137.656 242.198C136.557 242.198 135.66 241.964 134.965 241.495C134.271 241.022 133.844 240.351 133.687 239.482L135.534 239.2C135.649 239.682 135.886 240.046 136.244 240.293C136.601 240.536 137.068 240.658 137.643 240.658C138.27 240.658 138.771 240.528 139.146 240.268C139.521 240.004 139.708 239.682 139.708 239.303C139.708 238.996 139.593 238.738 139.363 238.529C139.137 238.32 138.79 238.163 138.321 238.056L136.659 237.692C135.743 237.483 135.065 237.151 134.626 236.695C134.192 236.239 133.974 235.661 133.974 234.962C133.974 234.383 134.136 233.876 134.46 233.441C134.784 233.006 135.231 232.668 135.802 232.425C136.373 232.178 137.028 232.054 137.765 232.054C138.826 232.054 139.661 232.284 140.271 232.744C140.88 233.2 141.283 233.812 141.479 234.579ZM147.635 232.182V233.716H142.272V232.182H147.635ZM143.71 229.83H145.621V239.117C145.621 239.488 145.677 239.767 145.788 239.955C145.898 240.138 146.041 240.263 146.216 240.332C146.395 240.396 146.589 240.428 146.797 240.428C146.951 240.428 147.085 240.417 147.2 240.396C147.315 240.374 147.405 240.357 147.469 240.344L147.814 241.923C147.703 241.966 147.545 242.009 147.341 242.051C147.136 242.098 146.881 242.124 146.574 242.128C146.071 242.136 145.602 242.047 145.168 241.859C144.733 241.672 144.381 241.382 144.113 240.99C143.844 240.598 143.71 240.106 143.71 239.513V229.83ZM162.085 233.045C161.962 232.657 161.796 232.31 161.587 232.003C161.382 231.692 161.137 231.428 160.852 231.21C160.566 230.989 160.24 230.82 159.874 230.705C159.512 230.59 159.113 230.533 158.679 230.533C157.941 230.533 157.277 230.722 156.684 231.102C156.092 231.481 155.623 232.037 155.278 232.77C154.937 233.499 154.767 234.391 154.767 235.448C154.767 236.509 154.939 237.406 155.284 238.139C155.63 238.872 156.103 239.428 156.703 239.808C157.304 240.187 157.988 240.376 158.755 240.376C159.467 240.376 160.087 240.232 160.615 239.942C161.148 239.652 161.559 239.243 161.849 238.714C162.143 238.182 162.29 237.555 162.29 236.835L162.801 236.931H159.056V235.301H164.201V236.79C164.201 237.89 163.967 238.844 163.498 239.654C163.034 240.46 162.39 241.082 161.568 241.521C160.75 241.96 159.812 242.179 158.755 242.179C157.571 242.179 156.531 241.906 155.636 241.361C154.745 240.815 154.051 240.042 153.552 239.04C153.054 238.035 152.804 236.842 152.804 235.461C152.804 234.417 152.949 233.479 153.239 232.648C153.529 231.817 153.936 231.112 154.46 230.533C154.988 229.949 155.608 229.504 156.32 229.197C157.036 228.886 157.818 228.73 158.666 228.73C159.373 228.73 160.031 228.835 160.641 229.043C161.255 229.252 161.8 229.548 162.277 229.932C162.759 230.315 163.157 230.771 163.473 231.3C163.788 231.824 164.001 232.406 164.112 233.045H162.085ZM168.692 242.217C168.07 242.217 167.508 242.102 167.005 241.872C166.502 241.638 166.104 241.299 165.81 240.856C165.52 240.413 165.375 239.869 165.375 239.226C165.375 238.672 165.481 238.216 165.694 237.858C165.908 237.5 166.195 237.217 166.557 237.008C166.92 236.799 167.324 236.641 167.772 236.535C168.219 236.428 168.675 236.347 169.14 236.292C169.728 236.224 170.205 236.168 170.572 236.126C170.938 236.079 171.204 236.004 171.371 235.902C171.537 235.8 171.62 235.634 171.62 235.403V235.359C171.62 234.8 171.462 234.368 171.147 234.061C170.836 233.754 170.371 233.601 169.753 233.601C169.11 233.601 168.603 233.744 168.232 234.029C167.866 234.31 167.612 234.624 167.471 234.969L165.675 234.56C165.888 233.963 166.199 233.482 166.609 233.115C167.022 232.744 167.497 232.476 168.034 232.31C168.571 232.139 169.136 232.054 169.728 232.054C170.12 232.054 170.535 232.101 170.974 232.195C171.417 232.284 171.831 232.45 172.214 232.693C172.602 232.936 172.92 233.283 173.167 233.735C173.414 234.183 173.538 234.764 173.538 235.48V242H171.671V240.658H171.594C171.471 240.905 171.285 241.148 171.038 241.386C170.791 241.625 170.474 241.823 170.086 241.981C169.698 242.138 169.234 242.217 168.692 242.217ZM169.108 240.683C169.636 240.683 170.088 240.579 170.463 240.37C170.842 240.161 171.13 239.888 171.326 239.552C171.526 239.211 171.626 238.847 171.626 238.459V237.193C171.558 237.261 171.426 237.325 171.23 237.385C171.038 237.44 170.819 237.489 170.572 237.532C170.324 237.57 170.084 237.607 169.849 237.641C169.615 237.67 169.419 237.696 169.261 237.717C168.891 237.764 168.552 237.843 168.245 237.954C167.942 238.065 167.699 238.224 167.516 238.433C167.337 238.638 167.248 238.911 167.248 239.251C167.248 239.724 167.422 240.082 167.772 240.325C168.121 240.564 168.567 240.683 169.108 240.683ZM175.363 242V232.182H177.198V233.78H177.319C177.524 233.239 177.858 232.817 178.323 232.514C178.787 232.207 179.343 232.054 179.991 232.054C180.647 232.054 181.197 232.207 181.64 232.514C182.088 232.821 182.418 233.243 182.631 233.78H182.733C182.968 233.256 183.34 232.838 183.852 232.527C184.363 232.212 184.973 232.054 185.68 232.054C186.571 232.054 187.297 232.333 187.86 232.891C188.426 233.45 188.71 234.291 188.71 235.416V242H186.799V235.595C186.799 234.93 186.617 234.449 186.255 234.151C185.893 233.852 185.46 233.703 184.958 233.703C184.335 233.703 183.852 233.895 183.507 234.278C183.161 234.658 182.989 235.146 182.989 235.742V242H181.084V235.474C181.084 234.941 180.918 234.513 180.585 234.189C180.253 233.865 179.821 233.703 179.288 233.703C178.926 233.703 178.591 233.799 178.284 233.991C177.982 234.178 177.737 234.44 177.549 234.777C177.366 235.114 177.274 235.504 177.274 235.947V242H175.363ZM194.783 242.198C193.816 242.198 192.982 241.991 192.284 241.578C191.589 241.161 191.052 240.575 190.673 239.82C190.298 239.062 190.11 238.173 190.11 237.155C190.11 236.149 190.298 235.263 190.673 234.496C191.052 233.729 191.58 233.13 192.258 232.7C192.94 232.269 193.737 232.054 194.649 232.054C195.203 232.054 195.74 232.146 196.259 232.329C196.779 232.512 197.246 232.8 197.659 233.192C198.073 233.584 198.399 234.093 198.637 234.719C198.876 235.342 198.995 236.098 198.995 236.989V237.666H191.191V236.234H197.122C197.122 235.732 197.02 235.286 196.816 234.898C196.611 234.506 196.323 234.197 195.953 233.972C195.586 233.746 195.156 233.633 194.661 233.633C194.125 233.633 193.656 233.765 193.255 234.029C192.859 234.289 192.552 234.63 192.335 235.052C192.122 235.469 192.015 235.923 192.015 236.413V237.532C192.015 238.188 192.13 238.746 192.36 239.207C192.595 239.667 192.921 240.018 193.338 240.261C193.756 240.5 194.244 240.619 194.802 240.619C195.164 240.619 195.495 240.568 195.793 240.466C196.091 240.359 196.349 240.202 196.566 239.993C196.784 239.784 196.95 239.526 197.065 239.219L198.874 239.545C198.729 240.078 198.469 240.545 198.094 240.945C197.723 241.342 197.257 241.651 196.694 241.872C196.136 242.089 195.499 242.198 194.783 242.198ZM215.466 233.166H213.471C213.395 232.74 213.252 232.365 213.043 232.041C212.834 231.717 212.579 231.442 212.276 231.217C211.974 230.991 211.635 230.82 211.26 230.705C210.889 230.59 210.495 230.533 210.077 230.533C209.323 230.533 208.648 230.722 208.051 231.102C207.459 231.481 206.99 232.037 206.645 232.77C206.304 233.503 206.133 234.398 206.133 235.455C206.133 236.52 206.304 237.419 206.645 238.152C206.99 238.885 207.461 239.439 208.057 239.814C208.654 240.189 209.325 240.376 210.071 240.376C210.484 240.376 210.876 240.321 211.247 240.21C211.622 240.095 211.961 239.927 212.263 239.705C212.566 239.484 212.822 239.213 213.03 238.893C213.243 238.57 213.39 238.199 213.471 237.781L215.466 237.788C215.359 238.431 215.153 239.023 214.846 239.565C214.543 240.102 214.153 240.566 213.676 240.958C213.203 241.346 212.662 241.646 212.052 241.859C211.443 242.072 210.778 242.179 210.058 242.179C208.925 242.179 207.915 241.911 207.028 241.374C206.142 240.832 205.443 240.059 204.932 239.053C204.425 238.048 204.171 236.848 204.171 235.455C204.171 234.057 204.427 232.857 204.938 231.856C205.449 230.85 206.148 230.079 207.035 229.542C207.921 229.001 208.929 228.73 210.058 228.73C210.753 228.73 211.4 228.83 212.001 229.031C212.606 229.227 213.15 229.516 213.631 229.9C214.113 230.279 214.511 230.744 214.827 231.293C215.142 231.839 215.355 232.463 215.466 233.166ZM216.956 242V232.182H218.803V233.741H218.905C219.084 233.213 219.4 232.798 219.851 232.495C220.307 232.188 220.823 232.035 221.398 232.035C221.518 232.035 221.658 232.039 221.82 232.048C221.986 232.056 222.116 232.067 222.21 232.08V233.908C222.133 233.886 221.997 233.863 221.801 233.837C221.605 233.808 221.409 233.793 221.213 233.793C220.761 233.793 220.359 233.888 220.005 234.08C219.655 234.268 219.378 234.53 219.174 234.866C218.969 235.199 218.867 235.578 218.867 236.004V242H216.956ZM227.024 242.198C226.057 242.198 225.224 241.991 224.525 241.578C223.83 241.161 223.293 240.575 222.914 239.82C222.539 239.062 222.351 238.173 222.351 237.155C222.351 236.149 222.539 235.263 222.914 234.496C223.293 233.729 223.822 233.13 224.499 232.7C225.181 232.269 225.978 232.054 226.89 232.054C227.444 232.054 227.981 232.146 228.501 232.329C229.02 232.512 229.487 232.8 229.9 233.192C230.314 233.584 230.64 234.093 230.878 234.719C231.117 235.342 231.236 236.098 231.236 236.989V237.666H223.432V236.234H229.363C229.363 235.732 229.261 235.286 229.057 234.898C228.852 234.506 228.564 234.197 228.194 233.972C227.827 233.746 227.397 233.633 226.903 233.633C226.366 233.633 225.897 233.765 225.496 234.029C225.1 234.289 224.793 234.63 224.576 235.052C224.363 235.469 224.256 235.923 224.256 236.413V237.532C224.256 238.188 224.371 238.746 224.601 239.207C224.836 239.667 225.162 240.018 225.579 240.261C225.997 240.5 226.485 240.619 227.043 240.619C227.405 240.619 227.736 240.568 228.034 240.466C228.332 240.359 228.59 240.202 228.807 239.993C229.025 239.784 229.191 239.526 229.306 239.219L231.115 239.545C230.97 240.078 230.71 240.545 230.335 240.945C229.964 241.342 229.498 241.651 228.935 241.872C228.377 242.089 227.74 242.198 227.024 242.198ZM235.494 242.217C234.872 242.217 234.309 242.102 233.807 241.872C233.304 241.638 232.905 241.299 232.611 240.856C232.322 240.413 232.177 239.869 232.177 239.226C232.177 238.672 232.283 238.216 232.496 237.858C232.709 237.5 232.997 237.217 233.359 237.008C233.721 236.799 234.126 236.641 234.574 236.535C235.021 236.428 235.477 236.347 235.942 236.292C236.53 236.224 237.007 236.168 237.373 236.126C237.74 236.079 238.006 236.004 238.172 235.902C238.339 235.8 238.422 235.634 238.422 235.403V235.359C238.422 234.8 238.264 234.368 237.949 234.061C237.638 233.754 237.173 233.601 236.555 233.601C235.912 233.601 235.405 233.744 235.034 234.029C234.667 234.31 234.414 234.624 234.273 234.969L232.477 234.56C232.69 233.963 233.001 233.482 233.41 233.115C233.824 232.744 234.299 232.476 234.836 232.31C235.373 232.139 235.937 232.054 236.53 232.054C236.922 232.054 237.337 232.101 237.776 232.195C238.219 232.284 238.633 232.45 239.016 232.693C239.404 232.936 239.721 233.283 239.969 233.735C240.216 234.183 240.339 234.764 240.339 235.48V242H238.473V240.658H238.396C238.273 240.905 238.087 241.148 237.84 241.386C237.593 241.625 237.275 241.823 236.888 241.981C236.5 242.138 236.035 242.217 235.494 242.217ZM235.91 240.683C236.438 240.683 236.89 240.579 237.265 240.37C237.644 240.161 237.932 239.888 238.128 239.552C238.328 239.211 238.428 238.847 238.428 238.459V237.193C238.36 237.261 238.228 237.325 238.032 237.385C237.84 237.44 237.621 237.489 237.373 237.532C237.126 237.57 236.885 237.607 236.651 237.641C236.417 237.67 236.221 237.696 236.063 237.717C235.692 237.764 235.354 237.843 235.047 237.954C234.744 238.065 234.501 238.224 234.318 238.433C234.139 238.638 234.05 238.911 234.05 239.251C234.05 239.724 234.224 240.082 234.574 240.325C234.923 240.564 235.368 240.683 235.91 240.683ZM246.748 232.182V233.716H241.385V232.182H246.748ZM242.823 229.83H244.735V239.117C244.735 239.488 244.79 239.767 244.901 239.955C245.012 240.138 245.154 240.263 245.329 240.332C245.508 240.396 245.702 240.428 245.911 240.428C246.064 240.428 246.198 240.417 246.313 240.396C246.428 240.374 246.518 240.357 246.582 240.344L246.927 241.923C246.816 241.966 246.659 242.009 246.454 242.051C246.249 242.098 245.994 242.124 245.687 242.128C245.184 242.136 244.715 242.047 244.281 241.859C243.846 241.672 243.495 241.382 243.226 240.99C242.958 240.598 242.823 240.106 242.823 239.513V229.83ZM248.142 242V232.182H250.053V242H248.142ZM249.107 230.667C248.775 230.667 248.49 230.556 248.251 230.335C248.017 230.109 247.899 229.84 247.899 229.529C247.899 229.214 248.017 228.945 248.251 228.724C248.49 228.498 248.775 228.385 249.107 228.385C249.44 228.385 249.723 228.498 249.958 228.724C250.196 228.945 250.316 229.214 250.316 229.529C250.316 229.84 250.196 230.109 249.958 230.335C249.723 230.556 249.44 230.667 249.107 230.667ZM256.04 242.198C255.12 242.198 254.317 241.987 253.63 241.565C252.944 241.143 252.412 240.553 252.032 239.795C251.653 239.036 251.464 238.15 251.464 237.136C251.464 236.117 251.653 235.227 252.032 234.464C252.412 233.701 252.944 233.109 253.63 232.687C254.317 232.265 255.12 232.054 256.04 232.054C256.961 232.054 257.764 232.265 258.45 232.687C259.136 233.109 259.669 233.701 260.048 234.464C260.427 235.227 260.617 236.117 260.617 237.136C260.617 238.15 260.427 239.036 260.048 239.795C259.669 240.553 259.136 241.143 258.45 241.565C257.764 241.987 256.961 242.198 256.04 242.198ZM256.047 240.594C256.643 240.594 257.138 240.436 257.53 240.121C257.922 239.805 258.211 239.386 258.399 238.862C258.591 238.337 258.687 237.76 258.687 237.129C258.687 236.503 258.591 235.928 258.399 235.403C258.211 234.875 257.922 234.451 257.53 234.131C257.138 233.812 256.643 233.652 256.047 233.652C255.446 233.652 254.947 233.812 254.551 234.131C254.159 234.451 253.867 234.875 253.675 235.403C253.488 235.928 253.394 236.503 253.394 237.129C253.394 237.76 253.488 238.337 253.675 238.862C253.867 239.386 254.159 239.805 254.551 240.121C254.947 240.436 255.446 240.594 256.047 240.594ZM263.942 236.17V242H262.03V232.182H263.865V233.78H263.986C264.212 233.26 264.566 232.842 265.047 232.527C265.533 232.212 266.145 232.054 266.882 232.054C267.551 232.054 268.137 232.195 268.64 232.476C269.143 232.753 269.532 233.166 269.809 233.716C270.086 234.266 270.225 234.945 270.225 235.755V242H268.314V235.985C268.314 235.273 268.128 234.717 267.758 234.317C267.387 233.912 266.878 233.71 266.23 233.71C265.787 233.71 265.393 233.805 265.047 233.997C264.706 234.189 264.436 234.47 264.236 234.841C264.04 235.207 263.942 235.651 263.942 236.17Z" fill="url(#paint6_linear_11302_1370)"/>
<path opacity="0.7" d="M33.3523 268V257.818H36.7876C37.4505 257.818 38.0024 257.934 38.4432 258.166C38.8873 258.398 39.2204 258.715 39.4425 259.116C39.6645 259.517 39.7756 259.973 39.7756 260.483C39.7756 260.907 39.7043 261.27 39.5618 261.572C39.4193 261.873 39.2254 262.117 38.9801 262.303C38.7348 262.488 38.4614 262.622 38.1598 262.705V262.785C38.4879 262.808 38.8061 262.924 39.1143 263.133C39.4226 263.338 39.6761 263.627 39.875 263.998C40.0739 264.369 40.1733 264.813 40.1733 265.33C40.1733 265.844 40.0589 266.303 39.8303 266.707C39.6016 267.108 39.2502 267.425 38.7763 267.657C38.3056 267.886 37.7057 268 36.9766 268H33.3523ZM34.282 267.165H36.9766C37.7621 267.165 38.3421 266.991 38.7166 266.643C39.0945 266.295 39.2834 265.857 39.2834 265.33C39.2834 264.942 39.1889 264.591 39 264.276C38.8144 263.958 38.5509 263.706 38.2095 263.521C37.8714 263.335 37.4737 263.242 37.0163 263.242H34.282V267.165ZM34.282 262.417H36.8722C37.2732 262.417 37.6245 262.334 37.9261 262.168C38.2277 262.003 38.4631 261.774 38.6321 261.482C38.8011 261.191 38.8857 260.857 38.8857 260.483C38.8857 259.943 38.71 259.504 38.3587 259.165C38.0073 258.824 37.4837 258.653 36.7876 258.653H34.282V262.417ZM46.525 265.082V260.364H47.41V268H46.525V266.732H46.4554C46.2765 267.123 45.9931 267.45 45.6053 267.712C45.2175 267.97 44.7436 268.099 44.1834 268.099C43.6962 268.099 43.2637 267.993 42.8858 267.781C42.508 267.566 42.2114 267.251 41.9959 266.837C41.7805 266.422 41.6728 265.914 41.6728 265.31V260.364H42.5577V265.256C42.5577 265.852 42.7334 266.333 43.0847 266.697C43.436 267.059 43.8868 267.239 44.437 267.239C44.7817 267.239 45.1131 267.156 45.4313 266.991C45.7495 266.825 46.0113 266.583 46.2168 266.265C46.4223 265.943 46.525 265.549 46.525 265.082ZM49.2028 268V260.364H50.0927V268H49.2028ZM49.6552 259.051C49.4729 259.051 49.3171 258.99 49.1879 258.867C49.0586 258.741 48.994 258.59 48.994 258.415C48.994 258.239 49.0586 258.09 49.1879 257.967C49.3171 257.841 49.4729 257.778 49.6552 257.778C49.8375 257.778 49.9933 257.841 50.1225 257.967C50.2518 258.09 50.3164 258.239 50.3164 258.415C50.3164 258.59 50.2518 258.741 50.1225 258.867C49.9933 258.99 49.8375 259.051 49.6552 259.051ZM52.758 257.818V268H51.8731V257.818H52.758ZM57.2889 268.159C56.6625 268.159 56.114 267.993 55.6433 267.662C55.1727 267.33 54.8048 266.868 54.5397 266.275C54.2778 265.682 54.1469 264.991 54.1469 264.202C54.1469 263.416 54.2778 262.728 54.5397 262.138C54.8048 261.545 55.1744 261.085 55.6483 260.756C56.1223 260.425 56.6741 260.259 57.3039 260.259C57.7679 260.259 58.154 260.342 58.4622 260.508C58.7705 260.67 59.0174 260.872 59.203 261.114C59.3886 261.356 59.5328 261.592 59.6355 261.82H59.7151V257.818H60.605V268H59.7399V266.583H59.6355C59.5328 266.815 59.387 267.054 59.198 267.299C59.0091 267.541 58.7589 267.745 58.4473 267.911C58.1391 268.076 57.753 268.159 57.2889 268.159ZM57.3933 267.349C57.8872 267.349 58.3081 267.214 58.6561 266.946C59.0041 266.674 59.2693 266.301 59.4516 265.827C59.6372 265.35 59.73 264.803 59.73 264.187C59.73 263.577 59.6388 263.038 59.4566 262.571C59.2743 262.1 59.0091 261.732 58.6611 261.467C58.3131 261.199 57.8905 261.065 57.3933 261.065C56.8829 261.065 56.4521 261.204 56.1007 261.482C55.7527 261.757 55.4876 262.13 55.3053 262.601C55.1263 263.071 55.0368 263.6 55.0368 264.187C55.0368 264.78 55.128 265.315 55.3102 265.793C55.4925 266.27 55.7577 266.649 56.1057 266.931C56.457 267.21 56.8862 267.349 57.3933 267.349ZM66.142 268H65.1675L68.8714 257.818H69.8657L73.5695 268H72.5951L69.4033 259.026H69.3337L66.142 268ZM66.8429 264.097H71.8941V264.933H66.8429V264.097ZM75.4555 263.227V268H74.5706V260.364H75.4307V261.562H75.5102C75.6892 261.171 75.9676 260.857 76.3454 260.622C76.7266 260.384 77.1972 260.264 77.7574 260.264C78.2711 260.264 78.7219 260.372 79.1097 260.587C79.5008 260.799 79.804 261.113 80.0195 261.527C80.2382 261.941 80.3476 262.45 80.3476 263.053V268H79.4626V263.108C79.4626 262.482 79.287 261.986 78.9356 261.621C78.5876 261.257 78.1203 261.075 77.5337 261.075C77.1326 261.075 76.7763 261.161 76.4648 261.333C76.1532 261.505 75.9063 261.754 75.724 262.079C75.545 262.4 75.4555 262.783 75.4555 263.227ZM84.8673 268.159C84.2409 268.159 83.6923 267.993 83.2217 267.662C82.7511 267.33 82.3832 266.868 82.118 266.275C81.8562 265.682 81.7253 264.991 81.7253 264.202C81.7253 263.416 81.8562 262.728 82.118 262.138C82.3832 261.545 82.7527 261.085 83.2267 260.756C83.7006 260.425 84.2525 260.259 84.8822 260.259C85.3462 260.259 85.7324 260.342 86.0406 260.508C86.3488 260.67 86.5958 260.872 86.7814 261.114C86.967 261.356 87.1111 261.592 87.2139 261.82H87.2934V257.818H88.1834V268H87.3183V266.583H87.2139C87.1111 266.815 86.9653 267.054 86.7764 267.299C86.5875 267.541 86.3372 267.745 86.0257 267.911C85.7174 268.076 85.3313 268.159 84.8673 268.159ZM84.9717 267.349C85.4655 267.349 85.8865 267.214 86.2345 266.946C86.5825 266.674 86.8477 266.301 87.0299 265.827C87.2155 265.35 87.3084 264.803 87.3084 264.187C87.3084 263.577 87.2172 263.038 87.0349 262.571C86.8526 262.1 86.5875 261.732 86.2395 261.467C85.8914 261.199 85.4689 261.065 84.9717 261.065C84.4613 261.065 84.0304 261.204 83.6791 261.482C83.3311 261.757 83.0659 262.13 82.8836 262.601C82.7047 263.071 82.6152 263.6 82.6152 264.187C82.6152 264.78 82.7063 265.315 82.8886 265.793C83.0709 266.27 83.3361 266.649 83.6841 266.931C84.0354 267.21 84.4646 267.349 84.9717 267.349ZM93.7054 268V257.818H94.6351V267.165H99.4874V268H93.7054ZM102.969 268.174C102.509 268.174 102.088 268.085 101.706 267.906C101.325 267.723 101.022 267.461 100.797 267.12C100.571 266.775 100.459 266.358 100.459 265.867C100.459 265.489 100.53 265.171 100.672 264.913C100.815 264.654 101.017 264.442 101.279 264.276C101.541 264.111 101.851 263.98 102.209 263.884C102.567 263.787 102.961 263.713 103.392 263.66C103.819 263.607 104.181 263.56 104.476 263.521C104.774 263.481 105.001 263.418 105.157 263.332C105.313 263.246 105.39 263.106 105.39 262.914V262.735C105.39 262.215 105.235 261.805 104.923 261.507C104.615 261.205 104.171 261.055 103.591 261.055C103.041 261.055 102.591 261.176 102.243 261.418C101.899 261.66 101.657 261.945 101.518 262.273L100.677 261.969C100.85 261.552 101.088 261.219 101.393 260.97C101.698 260.718 102.04 260.538 102.417 260.428C102.795 260.316 103.178 260.259 103.566 260.259C103.858 260.259 104.161 260.297 104.476 260.374C104.794 260.45 105.089 260.582 105.361 260.771C105.632 260.957 105.853 261.217 106.022 261.552C106.191 261.883 106.275 262.304 106.275 262.815V268H105.39V266.792H105.336C105.23 267.017 105.072 267.236 104.863 267.448C104.655 267.66 104.393 267.834 104.078 267.97C103.763 268.106 103.394 268.174 102.969 268.174ZM103.089 267.364C103.559 267.364 103.967 267.259 104.312 267.05C104.656 266.842 104.921 266.565 105.107 266.22C105.296 265.872 105.39 265.489 105.39 265.072V263.968C105.324 264.031 105.213 264.087 105.057 264.137C104.905 264.187 104.728 264.232 104.525 264.271C104.327 264.308 104.128 264.339 103.929 264.366C103.73 264.392 103.551 264.415 103.392 264.435C102.961 264.488 102.593 264.571 102.288 264.684C101.983 264.797 101.75 264.952 101.587 265.151C101.425 265.347 101.344 265.599 101.344 265.907C101.344 266.371 101.509 266.731 101.841 266.986C102.172 267.238 102.588 267.364 103.089 267.364ZM112.922 265.082V260.364H113.807V268H112.922V266.732H112.852C112.673 267.123 112.39 267.45 112.002 267.712C111.614 267.97 111.14 268.099 110.58 268.099C110.093 268.099 109.66 267.993 109.282 267.781C108.905 267.566 108.608 267.251 108.393 266.837C108.177 266.422 108.069 265.914 108.069 265.31V260.364H108.954V265.256C108.954 265.852 109.13 266.333 109.481 266.697C109.833 267.059 110.283 267.239 110.834 267.239C111.178 267.239 111.51 267.156 111.828 266.991C112.146 266.825 112.408 266.583 112.613 266.265C112.819 265.943 112.922 265.549 112.922 265.082ZM116.474 263.227V268H115.589V260.364H116.45V261.562H116.529C116.708 261.171 116.987 260.857 117.364 260.622C117.746 260.384 118.216 260.264 118.776 260.264C119.29 260.264 119.741 260.372 120.129 260.587C120.52 260.799 120.823 261.113 121.038 261.527C121.257 261.941 121.366 262.45 121.366 263.053V268H120.482V263.108C120.482 262.482 120.306 261.986 119.955 261.621C119.607 261.257 119.139 261.075 118.553 261.075C118.152 261.075 117.795 261.161 117.484 261.333C117.172 261.505 116.925 261.754 116.743 262.079C116.564 262.4 116.474 262.783 116.474 263.227ZM126.12 268.159C125.437 268.159 124.842 267.988 124.335 267.647C123.831 267.306 123.44 266.838 123.162 266.245C122.883 265.652 122.744 264.976 122.744 264.217C122.744 263.451 122.885 262.77 123.167 262.173C123.452 261.577 123.846 261.109 124.35 260.771C124.854 260.43 125.439 260.259 126.105 260.259C126.615 260.259 127.078 260.359 127.492 260.558C127.906 260.753 128.248 261.03 128.516 261.388C128.788 261.742 128.959 262.157 129.028 262.631H128.133C128.041 262.2 127.817 261.832 127.462 261.527C127.111 261.219 126.663 261.065 126.12 261.065C125.633 261.065 125.202 261.197 124.827 261.462C124.453 261.724 124.159 262.09 123.947 262.561C123.738 263.028 123.634 263.57 123.634 264.187C123.634 264.807 123.737 265.355 123.942 265.832C124.148 266.306 124.436 266.678 124.807 266.946C125.182 267.214 125.619 267.349 126.12 267.349C126.458 267.349 126.766 267.286 127.045 267.16C127.326 267.031 127.562 266.848 127.751 266.613C127.943 266.378 128.072 266.098 128.138 265.773H129.033C128.967 266.233 128.803 266.644 128.541 267.006C128.283 267.364 127.946 267.645 127.532 267.851C127.121 268.056 126.65 268.159 126.12 268.159ZM131.255 263.227V268H130.37V257.818H131.255V261.562H131.334C131.513 261.167 131.79 260.853 132.165 260.617C132.542 260.382 133.02 260.264 133.596 260.264C134.113 260.264 134.568 260.37 134.959 260.582C135.35 260.795 135.655 261.108 135.873 261.522C136.092 261.936 136.202 262.447 136.202 263.053V268H135.312V263.108C135.312 262.478 135.136 261.983 134.785 261.621C134.437 261.257 133.966 261.075 133.373 261.075C132.965 261.075 132.602 261.161 132.284 261.333C131.966 261.505 131.714 261.754 131.528 262.079C131.346 262.4 131.255 262.783 131.255 263.227ZM142.463 257.818V268H141.533V257.818H142.463ZM145.311 263.227V268H144.426V260.364H145.286V261.562H145.366C145.545 261.171 145.823 260.857 146.201 260.622C146.582 260.384 147.053 260.264 147.613 260.264C148.127 260.264 148.577 260.372 148.965 260.587C149.356 260.799 149.66 261.113 149.875 261.527C150.094 261.941 150.203 262.45 150.203 263.053V268H149.318V263.108C149.318 262.482 149.143 261.986 148.791 261.621C148.443 261.257 147.976 261.075 147.389 261.075C146.988 261.075 146.632 261.161 146.32 261.333C146.009 261.505 145.762 261.754 145.58 262.079C145.401 262.4 145.311 262.783 145.311 263.227ZM161.063 260.364C161.007 259.797 160.757 259.346 160.313 259.011C159.869 258.677 159.31 258.509 158.637 258.509C158.163 258.509 157.746 258.59 157.385 258.753C157.027 258.915 156.745 259.141 156.539 259.429C156.337 259.714 156.236 260.039 156.236 260.403C156.236 260.672 156.294 260.907 156.41 261.109C156.526 261.312 156.682 261.486 156.877 261.631C157.076 261.774 157.295 261.897 157.534 261.999C157.776 262.102 158.019 262.188 158.264 262.258L159.338 262.566C159.663 262.656 159.988 262.77 160.313 262.909C160.638 263.048 160.934 263.224 161.203 263.436C161.474 263.645 161.692 263.902 161.854 264.207C162.02 264.508 162.103 264.871 162.103 265.295C162.103 265.839 161.962 266.328 161.68 266.762C161.398 267.196 160.994 267.541 160.467 267.796C159.94 268.048 159.309 268.174 158.573 268.174C157.88 268.174 157.278 268.06 156.768 267.831C156.258 267.599 155.857 267.279 155.565 266.871C155.273 266.464 155.109 265.991 155.073 265.455H156.027C156.06 265.856 156.193 266.195 156.425 266.474C156.657 266.752 156.959 266.964 157.33 267.11C157.701 267.253 158.115 267.324 158.573 267.324C159.08 267.324 159.531 267.239 159.925 267.07C160.323 266.898 160.634 266.659 160.86 266.354C161.088 266.046 161.203 265.688 161.203 265.281C161.203 264.936 161.113 264.647 160.934 264.415C160.755 264.18 160.505 263.983 160.184 263.824C159.865 263.665 159.496 263.524 159.075 263.401L157.857 263.043C157.058 262.805 156.438 262.475 155.997 262.054C155.557 261.633 155.336 261.096 155.336 260.443C155.336 259.896 155.482 259.416 155.774 259.001C156.069 258.584 156.466 258.259 156.967 258.027C157.471 257.792 158.036 257.674 158.662 257.674C159.295 257.674 159.855 257.79 160.343 258.022C160.83 258.254 161.216 258.574 161.501 258.982C161.789 259.386 161.943 259.847 161.963 260.364H161.063ZM166.683 268.159C165.971 268.159 165.354 267.993 164.834 267.662C164.313 267.327 163.911 266.865 163.626 266.275C163.344 265.682 163.203 264.999 163.203 264.227C163.203 263.458 163.344 262.775 163.626 262.178C163.911 261.578 164.303 261.109 164.804 260.771C165.308 260.43 165.889 260.259 166.549 260.259C166.963 260.259 167.363 260.335 167.747 260.488C168.132 260.637 168.476 260.867 168.781 261.179C169.089 261.487 169.333 261.877 169.512 262.347C169.691 262.815 169.78 263.368 169.78 264.008V264.445H163.815V263.665H168.876C168.876 263.174 168.776 262.733 168.577 262.342C168.382 261.948 168.108 261.636 167.757 261.408C167.409 261.179 167.006 261.065 166.549 261.065C166.065 261.065 165.639 261.194 165.271 261.452C164.903 261.711 164.615 262.052 164.406 262.477C164.201 262.901 164.096 263.365 164.093 263.869V264.336C164.093 264.942 164.197 265.473 164.406 265.927C164.618 266.378 164.918 266.727 165.306 266.976C165.694 267.224 166.153 267.349 166.683 267.349C167.044 267.349 167.361 267.292 167.633 267.18C167.908 267.067 168.138 266.916 168.324 266.727C168.513 266.535 168.655 266.325 168.751 266.096L169.592 266.369C169.476 266.691 169.285 266.987 169.02 267.259C168.758 267.531 168.43 267.75 168.035 267.915C167.644 268.078 167.194 268.159 166.683 268.159ZM174.154 268.159C173.471 268.159 172.876 267.988 172.369 267.647C171.865 267.306 171.474 266.838 171.195 266.245C170.917 265.652 170.778 264.976 170.778 264.217C170.778 263.451 170.919 262.77 171.2 262.173C171.485 261.577 171.88 261.109 172.384 260.771C172.887 260.43 173.472 260.259 174.139 260.259C174.649 260.259 175.111 260.359 175.526 260.558C175.94 260.753 176.281 261.03 176.55 261.388C176.822 261.742 176.992 262.157 177.062 262.631H176.167C176.074 262.2 175.851 261.832 175.496 261.527C175.145 261.219 174.697 261.065 174.154 261.065C173.666 261.065 173.235 261.197 172.861 261.462C172.486 261.724 172.193 262.09 171.981 262.561C171.772 263.028 171.668 263.57 171.668 264.187C171.668 264.807 171.77 265.355 171.976 265.832C172.181 266.306 172.47 266.678 172.841 266.946C173.216 267.214 173.653 267.349 174.154 267.349C174.492 267.349 174.8 267.286 175.078 267.16C175.36 267.031 175.595 266.848 175.784 266.613C175.976 266.378 176.106 266.098 176.172 265.773H177.067C177.001 266.233 176.837 266.644 176.575 267.006C176.316 267.364 175.98 267.645 175.565 267.851C175.154 268.056 174.684 268.159 174.154 268.159ZM181.372 268.159C180.712 268.159 180.129 267.992 179.622 267.657C179.118 267.322 178.723 266.86 178.438 266.27C178.153 265.677 178.011 264.992 178.011 264.217C178.011 263.434 178.153 262.747 178.438 262.153C178.723 261.557 179.118 261.093 179.622 260.761C180.129 260.427 180.712 260.259 181.372 260.259C182.031 260.259 182.613 260.427 183.117 260.761C183.62 261.096 184.015 261.56 184.3 262.153C184.588 262.747 184.732 263.434 184.732 264.217C184.732 264.992 184.59 265.677 184.305 266.27C184.02 266.86 183.624 267.322 183.117 267.657C182.613 267.992 182.031 268.159 181.372 268.159ZM181.372 267.349C181.902 267.349 182.351 267.206 182.719 266.921C183.087 266.636 183.365 266.257 183.554 265.783C183.746 265.309 183.842 264.787 183.842 264.217C183.842 263.647 183.746 263.123 183.554 262.646C183.365 262.168 183.087 261.786 182.719 261.497C182.351 261.209 181.902 261.065 181.372 261.065C180.845 261.065 180.396 261.209 180.024 261.497C179.656 261.786 179.376 262.168 179.184 262.646C178.995 263.123 178.901 263.647 178.901 264.217C178.901 264.787 178.995 265.309 179.184 265.783C179.376 266.257 179.656 266.636 180.024 266.921C180.392 267.206 180.841 267.349 181.372 267.349ZM187 263.227V268H186.115V260.364H186.975V261.562H187.055C187.234 261.171 187.512 260.857 187.89 260.622C188.271 260.384 188.742 260.264 189.302 260.264C189.816 260.264 190.266 260.372 190.654 260.587C191.045 260.799 191.348 261.113 191.564 261.527C191.783 261.941 191.892 262.45 191.892 263.053V268H191.007V263.108C191.007 262.482 190.831 261.986 190.48 261.621C190.132 261.257 189.665 261.075 189.078 261.075C188.677 261.075 188.321 261.161 188.009 261.333C187.698 261.505 187.451 261.754 187.268 262.079C187.089 262.4 187 262.783 187 263.227ZM196.412 268.159C195.785 268.159 195.237 267.993 194.766 267.662C194.296 267.33 193.928 266.868 193.662 266.275C193.401 265.682 193.27 264.991 193.27 264.202C193.27 263.416 193.401 262.728 193.662 262.138C193.928 261.545 194.297 261.085 194.771 260.756C195.245 260.425 195.797 260.259 196.427 260.259C196.891 260.259 197.277 260.342 197.585 260.508C197.893 260.67 198.14 260.872 198.326 261.114C198.511 261.356 198.656 261.592 198.758 261.82H198.838V257.818H199.728V268H198.863V266.583H198.758C198.656 266.815 198.51 267.054 198.321 267.299C198.132 267.541 197.882 267.745 197.57 267.911C197.262 268.076 196.876 268.159 196.412 268.159ZM196.516 267.349C197.01 267.349 197.431 267.214 197.779 266.946C198.127 266.674 198.392 266.301 198.574 265.827C198.76 265.35 198.853 264.803 198.853 264.187C198.853 263.577 198.762 263.038 198.579 262.571C198.397 262.1 198.132 261.732 197.784 261.467C197.436 261.199 197.013 261.065 196.516 261.065C196.006 261.065 195.575 261.204 195.224 261.482C194.876 261.757 194.61 262.13 194.428 262.601C194.249 263.071 194.16 263.6 194.16 264.187C194.16 264.78 194.251 265.315 194.433 265.793C194.615 266.27 194.881 266.649 195.229 266.931C195.58 267.21 196.009 267.349 196.516 267.349ZM206.819 262.039L206.009 262.268C205.929 262.039 205.816 261.832 205.671 261.646C205.525 261.461 205.334 261.313 205.099 261.204C204.867 261.094 204.579 261.04 204.234 261.04C203.717 261.04 203.293 261.162 202.961 261.408C202.63 261.653 202.464 261.969 202.464 262.357C202.464 262.685 202.577 262.952 202.802 263.158C203.031 263.36 203.382 263.521 203.856 263.64L205.009 263.923C205.649 264.079 206.128 264.326 206.446 264.664C206.768 265.002 206.928 265.426 206.928 265.937C206.928 266.368 206.809 266.75 206.571 267.085C206.332 267.42 205.999 267.683 205.571 267.876C205.147 268.065 204.655 268.159 204.095 268.159C203.349 268.159 202.734 267.992 202.25 267.657C201.766 267.319 201.456 266.832 201.321 266.195L202.171 265.987C202.28 266.441 202.494 266.784 202.812 267.016C203.133 267.248 203.556 267.364 204.08 267.364C204.666 267.364 205.135 267.233 205.487 266.971C205.838 266.706 206.014 266.374 206.014 265.977C206.014 265.668 205.911 265.41 205.705 265.201C205.5 264.989 205.188 264.833 204.771 264.734L203.523 264.435C202.86 264.276 202.37 264.024 202.051 263.68C201.733 263.335 201.574 262.907 201.574 262.397C201.574 261.976 201.688 261.607 201.917 261.288C202.146 260.967 202.461 260.715 202.862 260.533C203.263 260.35 203.72 260.259 204.234 260.259C204.933 260.259 205.492 260.418 205.909 260.737C206.33 261.051 206.633 261.486 206.819 262.039ZM46 279.491V280.327H32V279.491H46ZM58.0995 274.818V285H57.1946L51.179 276.474H51.0995V285H50.1698V274.818H51.0696L57.1051 283.354H57.1847V274.818H58.0995ZM63.0306 285.159C62.371 285.159 61.7877 284.992 61.2806 284.657C60.7768 284.322 60.3824 283.86 60.0973 283.27C59.8123 282.677 59.6698 281.992 59.6698 281.217C59.6698 280.434 59.8123 279.747 60.0973 279.153C60.3824 278.557 60.7768 278.093 61.2806 277.761C61.7877 277.427 62.371 277.259 63.0306 277.259C63.6901 277.259 64.2718 277.427 64.7756 277.761C65.2794 278.096 65.6738 278.56 65.9588 279.153C66.2472 279.747 66.3914 280.434 66.3914 281.217C66.3914 281.992 66.2489 282.677 65.9638 283.27C65.6788 283.86 65.2827 284.322 64.7756 284.657C64.2718 284.992 63.6901 285.159 63.0306 285.159ZM63.0306 284.349C63.5609 284.349 64.01 284.206 64.3779 283.921C64.7458 283.636 65.0242 283.257 65.2131 282.783C65.4053 282.309 65.5015 281.787 65.5015 281.217C65.5015 280.647 65.4053 280.123 65.2131 279.646C65.0242 279.168 64.7458 278.786 64.3779 278.497C64.01 278.209 63.5609 278.065 63.0306 278.065C62.5036 278.065 62.0545 278.209 61.6833 278.497C61.3154 278.786 61.0353 279.168 60.8431 279.646C60.6542 280.123 60.5597 280.647 60.5597 281.217C60.5597 281.787 60.6542 282.309 60.8431 282.783C61.0353 283.257 61.3154 283.636 61.6833 283.921C62.0512 284.206 62.5003 284.349 63.0306 284.349ZM70.7818 277.364V278.134H67.1377V277.364H70.7818ZM68.2762 275.534H69.1661V283.006C69.1661 283.325 69.2208 283.575 69.3301 283.757C69.4395 283.936 69.582 284.064 69.7577 284.14C69.9334 284.213 70.1206 284.249 70.3195 284.249C70.4355 284.249 70.5349 284.243 70.6178 284.229C70.7006 284.213 70.7736 284.196 70.8365 284.18L71.0254 284.98C70.9393 285.013 70.8332 285.043 70.7073 285.07C70.5813 285.099 70.4255 285.114 70.2399 285.114C69.9151 285.114 69.6019 285.043 69.3003 284.901C69.002 284.758 68.7567 284.546 68.5645 284.264C68.3723 283.982 68.2762 283.633 68.2762 283.215V275.534ZM77.5629 285L74.7739 274.818H75.7185L78.0253 283.573H78.1048L80.4117 274.818H81.4855L83.7923 283.573H83.8719L86.1787 274.818H87.1283L84.3392 285H83.3449L80.9834 276.364H80.9188L78.5573 285H77.5629ZM90.4412 285.159C89.7286 285.159 89.1121 284.993 88.5917 284.662C88.0714 284.327 87.6687 283.865 87.3836 283.275C87.1019 282.682 86.961 281.999 86.961 281.227C86.961 280.458 87.1019 279.775 87.3836 279.178C87.6687 278.578 88.0614 278.109 88.5619 277.771C89.0657 277.43 89.6474 277.259 90.3069 277.259C90.7212 277.259 91.1206 277.335 91.5051 277.488C91.8895 277.637 92.2342 277.867 92.5392 278.179C92.8474 278.487 93.091 278.877 93.27 279.347C93.449 279.815 93.5385 280.368 93.5385 281.008V281.445H87.5725V280.665H92.6336C92.6336 280.174 92.5342 279.733 92.3353 279.342C92.1398 278.948 91.8663 278.636 91.515 278.408C91.167 278.179 90.7643 278.065 90.3069 278.065C89.823 278.065 89.3971 278.194 89.0292 278.452C88.6613 278.711 88.373 279.052 88.1642 279.477C87.9587 279.901 87.8543 280.365 87.851 280.869V281.336C87.851 281.942 87.9554 282.473 88.1642 282.927C88.3763 283.378 88.6762 283.727 89.064 283.976C89.4518 284.224 89.9108 284.349 90.4412 284.349C90.8024 284.349 91.1189 284.292 91.3907 284.18C91.6658 284.067 91.8962 283.916 92.0818 283.727C92.2707 283.535 92.4132 283.325 92.5093 283.096L93.3495 283.369C93.2335 283.691 93.043 283.987 92.7778 284.259C92.516 284.531 92.1878 284.75 91.7934 284.915C91.4023 285.078 90.9516 285.159 90.4412 285.159ZM98.0159 285.159C97.3033 285.159 96.6868 284.993 96.1665 284.662C95.6461 284.327 95.2434 283.865 94.9584 283.275C94.6767 282.682 94.5358 281.999 94.5358 281.227C94.5358 280.458 94.6767 279.775 94.9584 279.178C95.2434 278.578 95.6362 278.109 96.1367 277.771C96.6404 277.43 97.2221 277.259 97.8817 277.259C98.296 277.259 98.6954 277.335 99.0798 277.488C99.4643 277.637 99.809 277.867 100.114 278.179C100.422 278.487 100.666 278.877 100.845 279.347C101.024 279.815 101.113 280.368 101.113 281.008V281.445H95.1473V280.665H100.208C100.208 280.174 100.109 279.733 99.9101 279.342C99.7145 278.948 99.4411 278.636 99.0898 278.408C98.7418 278.179 98.3391 278.065 97.8817 278.065C97.3978 278.065 96.9719 278.194 96.604 278.452C96.2361 278.711 95.9477 279.052 95.7389 279.477C95.5334 279.901 95.429 280.365 95.4257 280.869V281.336C95.4257 281.942 95.5301 282.473 95.7389 282.927C95.951 283.378 96.251 283.727 96.6388 283.976C97.0266 284.224 97.4856 284.349 98.0159 284.349C98.3772 284.349 98.6937 284.292 98.9655 284.18C99.2406 284.067 99.4709 283.916 99.6565 283.727C99.8455 283.535 99.988 283.325 100.084 283.096L100.924 283.369C100.808 283.691 100.618 283.987 100.353 284.259C100.091 284.531 99.7626 284.75 99.3682 284.915C98.9771 285.078 98.5263 285.159 98.0159 285.159ZM103.309 282.116L103.299 280.958H103.498L107.077 277.364H108.196L104.661 280.903L104.581 280.918L103.309 282.116ZM102.503 285V274.818H103.388V285H102.503ZM107.261 285L104.159 281.077L104.795 280.466L108.395 285H107.261ZM114.429 279.039L113.619 279.268C113.54 279.039 113.427 278.832 113.281 278.646C113.135 278.461 112.945 278.313 112.709 278.204C112.477 278.094 112.189 278.04 111.844 278.04C111.327 278.04 110.903 278.162 110.572 278.408C110.24 278.653 110.074 278.969 110.074 279.357C110.074 279.685 110.187 279.952 110.412 280.158C110.641 280.36 110.992 280.521 111.466 280.64L112.62 280.923C113.259 281.079 113.738 281.326 114.057 281.664C114.378 282.002 114.539 282.426 114.539 282.937C114.539 283.368 114.42 283.75 114.181 284.085C113.942 284.42 113.609 284.683 113.182 284.876C112.757 285.065 112.265 285.159 111.705 285.159C110.959 285.159 110.344 284.992 109.861 284.657C109.377 284.319 109.067 283.832 108.931 283.195L109.781 282.987C109.89 283.441 110.104 283.784 110.422 284.016C110.744 284.248 111.166 284.364 111.69 284.364C112.277 284.364 112.746 284.233 113.097 283.971C113.448 283.706 113.624 283.374 113.624 282.977C113.624 282.668 113.521 282.41 113.316 282.201C113.11 281.989 112.799 281.833 112.381 281.734L111.133 281.435C110.47 281.276 109.98 281.024 109.662 280.68C109.344 280.335 109.184 279.907 109.184 279.397C109.184 278.976 109.299 278.607 109.527 278.288C109.756 277.967 110.071 277.715 110.472 277.533C110.873 277.35 111.331 277.259 111.844 277.259C112.544 277.259 113.102 277.418 113.52 277.737C113.941 278.051 114.244 278.486 114.429 279.039ZM116.622 285.075C116.427 285.075 116.258 285.005 116.115 284.866C115.976 284.723 115.907 284.554 115.907 284.359C115.907 284.16 115.976 283.991 116.115 283.852C116.258 283.712 116.427 283.643 116.622 283.643C116.821 283.643 116.99 283.712 117.13 283.852C117.269 283.991 117.338 284.16 117.338 284.359C117.338 284.488 117.305 284.607 117.239 284.717C117.176 284.826 117.09 284.914 116.98 284.98C116.874 285.043 116.755 285.075 116.622 285.075Z" fill="url(#paint7_linear_11302_1370)"/>
</g>
<defs>
<filter id="filter0_di_11302_1370" x="216.636" y="124.636" width="70.7273" height="70.7273" filterUnits="userSpaceOnUse" color-interpolation-filters="sRGB">
<feFlood flood-opacity="0" result="BackgroundImageFix"/>
<feColorMatrix in="SourceAlpha" type="matrix" values="0 0 0 0 0 0 0 0 0 0 0 0 0 0 0 0 0 0 127 0" result="hardAlpha"/>
<feMorphology radius="3.36364" operator="dilate" in="SourceAlpha" result="effect1_dropShadow_11302_1370"/>
<feOffset/>
<feComposite in2="hardAlpha" operator="out"/>
<feColorMatrix type="matrix" values="0 0 0 0 0 0 0 0 0 0 0 0 0 0 0 0 0 0 0.1 0"/>
<feBlend mode="normal" in2="BackgroundImageFix" result="effect1_dropShadow_11302_1370"/>
<feBlend mode="normal" in="SourceGraphic" in2="effect1_dropShadow_11302_1370" result="shape"/>
<feColorMatrix in="SourceAlpha" type="matrix" values="0 0 0 0 0 0 0 0 0 0 0 0 0 0 0 0 0 0 127 0" result="hardAlpha"/>
<feOffset dy="3.36364"/>
<feGaussianBlur stdDeviation="2.57879"/>
<feComposite in2="hardAlpha" operator="arithmetic" k2="-1" k3="1"/>
<feColorMatrix type="matrix" values="0 0 0 0 0 0 0 0 0 0 0 0 0 0 0 0 0 0 0.25 0"/>
<feBlend mode="normal" in2="shape" result="effect2_innerShadow_11302_1370"/>
</filter>
<filter id="filter1_f_11302_1370" x="221" y="129" width="62" height="62" filterUnits="userSpaceOnUse" color-interpolation-filters="sRGB">
<feFlood flood-opacity="0" result="BackgroundImageFix"/>
<feBlend mode="normal" in="SourceGraphic" in2="BackgroundImageFix" result="shape"/>
<feGaussianBlur stdDeviation="9.5" result="effect1_foregroundBlur_11302_1370"/>
</filter>
<linearGradient id="paint0_linear_11302_1370" x1="252" y1="320" x2="252" y2="0" gradientUnits="userSpaceOnUse">
<stop stop-color="#181818"/>
<stop offset="1" stop-color="#181818" stop-opacity="0"/>
</linearGradient>
<linearGradient id="paint1_linear_11302_1370" x1="252" y1="320" x2="252" y2="0" gradientUnits="userSpaceOnUse">
<stop stop-color="white" stop-opacity="0"/>
<stop offset="1" stop-color="white"/>
</linearGradient>
<linearGradient id="paint2_linear_11302_1370" x1="252" y1="128" x2="252" y2="192" gradientUnits="userSpaceOnUse">
<stop stop-color="#6C6C6C"/>
<stop offset="1" stop-color="white" stop-opacity="0"/>
</linearGradient>
<linearGradient id="paint3_linear_11302_1370" x1="252" y1="128" x2="252" y2="192" gradientUnits="userSpaceOnUse">
<stop stop-color="#8EFE49"/>
<stop offset="1" stop-color="#8EFE49" stop-opacity="0"/>
</linearGradient>
<linearGradient id="paint4_linear_11302_1370" x1="96.136" y1="114.128" x2="77.7194" y2="50.9542" gradientUnits="userSpaceOnUse">
<stop stop-color="white" stop-opacity="0.3"/>
<stop offset="1" stop-color="white" stop-opacity="0"/>
</linearGradient>
<linearGradient id="paint5_linear_11302_1370" x1="489.136" y1="194.128" x2="470.719" y2="130.954" gradientUnits="userSpaceOnUse">
<stop stop-color="white" stop-opacity="0.3"/>
<stop offset="1" stop-color="white" stop-opacity="0"/>
</linearGradient>
<linearGradient id="paint6_linear_11302_1370" x1="164" y1="248.5" x2="164" y2="211" gradientUnits="userSpaceOnUse">
<stop stop-color="white"/>
<stop offset="1" stop-color="white" stop-opacity="0"/>
</linearGradient>
<linearGradient id="paint7_linear_11302_1370" x1="120.5" y1="313" x2="120.5" y2="254" gradientUnits="userSpaceOnUse">
<stop stop-color="white" stop-opacity="0"/>
<stop offset="1" stop-color="white"/>
</linearGradient>
<clipPath id="clip0_11302_1370">
<rect width="504" height="320" fill="white"/>
</clipPath>
</defs>
</svg>
