<svg width="520" height="336" viewBox="0 0 520 336" fill="none" xmlns="http://www.w3.org/2000/svg">
<g clip-path="url(#clip0_11311_6382)">
<path d="M32 8H488C501.255 8 512 18.7452 512 32V279.559C512 285.924 509.471 292.029 504.971 296.529L480.529 320.971C476.029 325.471 469.924 328 463.559 328H32C18.7452 328 8 317.255 8 304V32C8 18.7452 18.7452 8 32 8Z" fill="url(#paint0_linear_11311_6382)"/>
<path d="M488 8.5H32C19.0213 8.5 8.5 19.0213 8.5 32V304C8.5 316.979 19.0213 327.5 32 327.5H463.559C469.791 327.5 475.769 325.024 480.176 320.617L504.617 296.176C509.024 291.769 511.5 285.791 511.5 279.559V32C511.5 19.0213 500.979 8.5 488 8.5Z" stroke="url(#paint1_linear_11311_6382)" stroke-opacity="0.1"/>
<path fill-rule="evenodd" clip-rule="evenodd" d="M227.521 328.494L227.408 328.515L226.679 328.875L226.473 328.916L226.329 328.875L225.6 328.515C225.491 328.481 225.409 328.498 225.354 328.566L225.313 328.669L225.138 333.065L225.189 333.27L225.292 333.404L226.36 334.164L226.514 334.205L226.638 334.164L227.706 333.404L227.829 333.24L227.87 333.065L227.695 328.679C227.668 328.57 227.61 328.508 227.521 328.494ZM230.243 327.334L230.109 327.354L228.209 328.31L228.106 328.412L228.075 328.525L228.26 332.942L228.312 333.065L228.394 333.137L230.458 334.092C230.588 334.126 230.688 334.099 230.756 334.01L230.797 333.866L230.448 327.56C230.414 327.437 230.345 327.361 230.243 327.334ZM222.899 327.354C222.854 327.327 222.8 327.318 222.748 327.33C222.696 327.341 222.651 327.372 222.622 327.416L222.56 327.56L222.211 333.866C222.218 333.989 222.276 334.071 222.386 334.113L222.54 334.092L224.604 333.137L224.707 333.055L224.748 332.942L224.922 328.525L224.892 328.402L224.789 328.299L222.899 327.354Z" fill="white" fill-opacity="0.05"/>
<path fill-rule="evenodd" clip-rule="evenodd" d="M227.521 328.494L227.408 328.515L226.679 328.875L226.473 328.916L226.329 328.875L225.6 328.515C225.491 328.481 225.409 328.498 225.354 328.566L225.313 328.669L225.138 333.065L225.189 333.27L225.292 333.404L226.36 334.164L226.514 334.205L226.638 334.164L227.706 333.404L227.829 333.24L227.87 333.065L227.695 328.679C227.668 328.57 227.61 328.508 227.521 328.494ZM230.243 327.334L230.109 327.354L228.209 328.31L228.106 328.412L228.075 328.525L228.26 332.942L228.312 333.065L228.394 333.137L230.458 334.092C230.588 334.126 230.688 334.099 230.756 334.01L230.797 333.866L230.448 327.56C230.414 327.437 230.345 327.361 230.243 327.334ZM222.899 327.354C222.854 327.327 222.8 327.318 222.748 327.33C222.696 327.341 222.651 327.372 222.622 327.416L222.56 327.56L222.211 333.866C222.218 333.989 222.276 334.071 222.386 334.113L222.54 334.092L224.604 333.137L224.707 333.055L224.748 332.942L224.922 328.525L224.892 328.402L224.789 328.299L222.899 327.354Z" fill="url(#paint2_linear_11311_6382)"/>
<path fill-rule="evenodd" clip-rule="evenodd" d="M425.498 113.538C430.833 111.291 436.672 110.516 442.407 111.293C448.143 112.071 453.565 114.374 458.11 117.961C462.655 121.548 466.156 126.289 468.249 131.69C470.342 137.091 470.951 142.955 470.012 148.672L421.051 445.926C416.302 474.599 384.871 491.043 358.599 476.76C336.623 464.811 303.982 446.401 274.624 427.192C259.944 417.577 214.977 386.786 220.504 364.876C225.253 346.143 300.809 275.746 343.984 233.892C360.93 217.449 353.202 207.963 333.19 223.088C283.496 260.642 203.709 317.751 177.329 333.826C154.058 348.001 141.925 350.421 127.419 348.001C100.953 343.593 76.4076 336.765 56.3744 328.446C29.3038 317.21 30.6206 279.959 56.3528 269.112L425.498 113.538Z" fill="white" fill-opacity="0.05"/>
<path fill-rule="evenodd" clip-rule="evenodd" d="M425.498 113.538C430.833 111.291 436.672 110.516 442.407 111.293C448.143 112.071 453.565 114.374 458.11 117.961C462.655 121.548 466.156 126.289 468.249 131.69C470.342 137.091 470.951 142.955 470.012 148.672L421.051 445.926C416.302 474.599 384.871 491.043 358.599 476.76C336.623 464.811 303.982 446.401 274.624 427.192C259.944 417.577 214.977 386.786 220.504 364.876C225.253 346.143 300.809 275.746 343.984 233.892C360.93 217.449 353.202 207.963 333.19 223.088C283.496 260.642 203.709 317.751 177.329 333.826C154.058 348.001 141.925 350.421 127.419 348.001C100.953 343.593 76.4076 336.765 56.3744 328.446C29.3038 317.21 30.6206 279.959 56.3528 269.112L425.498 113.538Z" fill="url(#paint3_linear_11311_6382)"/>
<path fill-rule="evenodd" clip-rule="evenodd" d="M267.136 114.109C267.357 114.013 267.599 113.979 267.837 114.013C268.075 114.046 268.3 114.145 268.488 114.3C268.677 114.455 268.822 114.659 268.909 114.892C268.996 115.125 269.021 115.378 268.982 115.625L266.951 128.444C266.754 129.681 265.45 130.39 264.36 129.774C263.448 129.259 262.094 128.465 260.876 127.636C260.267 127.222 258.402 125.894 258.631 124.949C258.828 124.141 261.963 121.105 263.754 119.3C264.457 118.591 264.136 118.182 263.306 118.834C261.244 120.454 257.934 122.916 256.84 123.61C255.875 124.221 255.371 124.325 254.769 124.221C253.671 124.031 252.653 123.737 251.822 123.378C250.699 122.893 250.754 121.287 251.821 120.819L267.136 114.109Z" fill="url(#paint4_linear_11311_6382)"/>
<path d="M172.574 149.812V147.545H186.083V149.812H180.637V165H178.012V149.812H172.574ZM191.647 165.264C190.357 165.264 189.246 164.989 188.314 164.438C187.388 163.881 186.672 163.099 186.167 162.094C185.667 161.082 185.417 159.898 185.417 158.54C185.417 157.199 185.667 156.017 186.167 154.994C186.672 153.972 187.377 153.173 188.28 152.599C189.189 152.026 190.252 151.739 191.468 151.739C192.206 151.739 192.922 151.861 193.616 152.105C194.309 152.349 194.931 152.733 195.482 153.256C196.033 153.778 196.468 154.457 196.786 155.293C197.104 156.122 197.263 157.131 197.263 158.318V159.222H186.857V157.312H194.766C194.766 156.642 194.63 156.048 194.357 155.531C194.084 155.009 193.701 154.597 193.206 154.295C192.718 153.994 192.144 153.844 191.485 153.844C190.769 153.844 190.144 154.02 189.61 154.372C189.081 154.719 188.672 155.173 188.383 155.736C188.099 156.293 187.956 156.898 187.956 157.551V159.043C187.956 159.918 188.11 160.662 188.417 161.276C188.729 161.889 189.164 162.358 189.721 162.682C190.278 163 190.928 163.159 191.672 163.159C192.155 163.159 192.596 163.091 192.993 162.955C193.391 162.812 193.735 162.602 194.025 162.324C194.314 162.045 194.536 161.702 194.689 161.293L197.101 161.727C196.908 162.437 196.562 163.06 196.062 163.594C195.567 164.122 194.945 164.534 194.195 164.83C193.451 165.119 192.601 165.264 191.647 165.264ZM201.679 147.545V165H199.131V147.545H201.679ZM209.789 165.264C208.5 165.264 207.389 164.989 206.457 164.438C205.531 163.881 204.815 163.099 204.309 162.094C203.809 161.082 203.559 159.898 203.559 158.54C203.559 157.199 203.809 156.017 204.309 154.994C204.815 153.972 205.519 153.173 206.423 152.599C207.332 152.026 208.394 151.739 209.61 151.739C210.349 151.739 211.065 151.861 211.758 152.105C212.451 152.349 213.073 152.733 213.625 153.256C214.176 153.778 214.61 154.457 214.929 155.293C215.247 156.122 215.406 157.131 215.406 158.318V159.222H205V157.312H212.909C212.909 156.642 212.772 156.048 212.5 155.531C212.227 155.009 211.843 154.597 211.349 154.295C210.86 153.994 210.286 153.844 209.627 153.844C208.911 153.844 208.286 154.02 207.752 154.372C207.224 154.719 206.815 155.173 206.525 155.736C206.241 156.293 206.099 156.898 206.099 157.551V159.043C206.099 159.918 206.252 160.662 206.559 161.276C206.872 161.889 207.306 162.358 207.863 162.682C208.42 163 209.071 163.159 209.815 163.159C210.298 163.159 210.738 163.091 211.136 162.955C211.534 162.812 211.877 162.602 212.167 162.324C212.457 162.045 212.679 161.702 212.832 161.293L215.244 161.727C215.051 162.437 214.704 163.06 214.204 163.594C213.71 164.122 213.088 164.534 212.338 164.83C211.593 165.119 210.744 165.264 209.789 165.264ZM222.762 170.182C221.722 170.182 220.827 170.045 220.077 169.773C219.333 169.5 218.725 169.139 218.253 168.69C217.782 168.241 217.429 167.75 217.197 167.216L219.387 166.312C219.54 166.562 219.745 166.827 220 167.105C220.262 167.389 220.614 167.631 221.057 167.83C221.506 168.028 222.083 168.128 222.787 168.128C223.753 168.128 224.552 167.892 225.182 167.42C225.813 166.955 226.128 166.21 226.128 165.188V162.614H225.966C225.813 162.892 225.591 163.202 225.302 163.543C225.018 163.884 224.625 164.179 224.125 164.429C223.625 164.679 222.975 164.804 222.174 164.804C221.14 164.804 220.208 164.562 219.378 164.08C218.554 163.591 217.901 162.872 217.418 161.923C216.941 160.969 216.702 159.795 216.702 158.403C216.702 157.011 216.938 155.818 217.41 154.824C217.887 153.83 218.54 153.068 219.37 152.54C220.199 152.006 221.14 151.739 222.191 151.739C223.003 151.739 223.66 151.875 224.16 152.148C224.66 152.415 225.049 152.727 225.327 153.085C225.611 153.443 225.83 153.759 225.983 154.031H226.171V151.909H228.668V165.29C228.668 166.415 228.407 167.338 227.884 168.06C227.361 168.781 226.654 169.315 225.762 169.662C224.875 170.009 223.875 170.182 222.762 170.182ZM222.736 162.69C223.469 162.69 224.089 162.52 224.594 162.179C225.106 161.832 225.492 161.338 225.753 160.696C226.02 160.048 226.154 159.273 226.154 158.369C226.154 157.489 226.023 156.713 225.762 156.043C225.5 155.372 225.117 154.849 224.611 154.474C224.106 154.094 223.481 153.903 222.736 153.903C221.969 153.903 221.33 154.102 220.819 154.5C220.307 154.892 219.921 155.426 219.66 156.102C219.404 156.778 219.276 157.534 219.276 158.369C219.276 159.227 219.407 159.98 219.668 160.628C219.929 161.276 220.316 161.781 220.827 162.145C221.344 162.509 221.981 162.69 222.736 162.69ZM231.126 165V151.909H233.589V153.989H233.725C233.964 153.284 234.384 152.73 234.987 152.327C235.594 151.918 236.282 151.713 237.049 151.713C237.208 151.713 237.396 151.719 237.612 151.73C237.833 151.741 238.006 151.756 238.131 151.773V154.21C238.029 154.182 237.847 154.151 237.586 154.116C237.325 154.077 237.063 154.057 236.802 154.057C236.2 154.057 235.663 154.185 235.191 154.44C234.725 154.69 234.356 155.04 234.083 155.489C233.81 155.932 233.674 156.437 233.674 157.006V165H231.126ZM243.069 165.29C242.24 165.29 241.49 165.136 240.819 164.83C240.149 164.517 239.617 164.065 239.225 163.474C238.839 162.884 238.646 162.159 238.646 161.301C238.646 160.562 238.788 159.955 239.072 159.477C239.356 159 239.74 158.622 240.223 158.344C240.705 158.065 241.245 157.855 241.842 157.713C242.438 157.571 243.046 157.463 243.666 157.389C244.45 157.298 245.086 157.224 245.575 157.168C246.063 157.105 246.419 157.006 246.64 156.869C246.862 156.733 246.973 156.511 246.973 156.205V156.145C246.973 155.401 246.762 154.824 246.342 154.415C245.927 154.006 245.308 153.801 244.484 153.801C243.626 153.801 242.95 153.991 242.455 154.372C241.967 154.747 241.629 155.165 241.441 155.625L239.046 155.08C239.33 154.284 239.745 153.642 240.291 153.153C240.842 152.659 241.475 152.301 242.191 152.08C242.907 151.852 243.66 151.739 244.45 151.739C244.973 151.739 245.527 151.801 246.112 151.926C246.703 152.045 247.254 152.267 247.765 152.591C248.282 152.915 248.705 153.378 249.035 153.98C249.365 154.577 249.529 155.352 249.529 156.307V165H247.041V163.21H246.938C246.774 163.54 246.527 163.864 246.197 164.182C245.867 164.5 245.444 164.764 244.927 164.974C244.41 165.185 243.791 165.29 243.069 165.29ZM243.623 163.244C244.328 163.244 244.93 163.105 245.43 162.827C245.936 162.548 246.319 162.185 246.58 161.736C246.848 161.281 246.981 160.795 246.981 160.278V158.591C246.89 158.682 246.714 158.767 246.453 158.847C246.197 158.92 245.904 158.986 245.575 159.043C245.245 159.094 244.924 159.142 244.612 159.188C244.299 159.227 244.038 159.261 243.828 159.29C243.333 159.352 242.882 159.457 242.473 159.605C242.069 159.753 241.745 159.966 241.501 160.244C241.262 160.517 241.143 160.881 241.143 161.335C241.143 161.966 241.376 162.443 241.842 162.767C242.308 163.085 242.902 163.244 243.623 163.244ZM251.964 165V151.909H254.41V154.04H254.571C254.844 153.318 255.29 152.756 255.91 152.352C256.529 151.943 257.27 151.739 258.134 151.739C259.009 151.739 259.742 151.943 260.333 152.352C260.929 152.761 261.37 153.324 261.654 154.04H261.79C262.103 153.341 262.6 152.784 263.282 152.369C263.964 151.949 264.776 151.739 265.719 151.739C266.907 151.739 267.875 152.111 268.625 152.855C269.381 153.599 269.759 154.722 269.759 156.222V165H267.211V156.46C267.211 155.574 266.969 154.932 266.486 154.534C266.003 154.136 265.427 153.938 264.756 153.938C263.927 153.938 263.282 154.193 262.821 154.705C262.361 155.21 262.131 155.861 262.131 156.656V165H259.591V156.298C259.591 155.588 259.37 155.017 258.927 154.585C258.483 154.153 257.907 153.938 257.196 153.938C256.714 153.938 256.268 154.065 255.858 154.321C255.455 154.571 255.128 154.92 254.878 155.369C254.634 155.818 254.512 156.338 254.512 156.929V165H251.964ZM279.928 156.52V158.727H272.189V156.52H279.928ZM282.568 165V147.545H288.79C290.142 147.545 291.264 147.778 292.156 148.244C293.054 148.71 293.725 149.355 294.168 150.179C294.611 150.997 294.833 151.943 294.833 153.017C294.833 154.085 294.608 155.026 294.159 155.838C293.716 156.645 293.046 157.273 292.148 157.722C291.256 158.17 290.134 158.395 288.781 158.395H284.068V156.128H288.543C289.395 156.128 290.088 156.006 290.622 155.761C291.162 155.517 291.557 155.162 291.807 154.696C292.057 154.23 292.182 153.67 292.182 153.017C292.182 152.358 292.054 151.787 291.799 151.304C291.549 150.821 291.154 150.452 290.614 150.196C290.08 149.935 289.378 149.804 288.509 149.804H285.202V165H282.568ZM291.185 157.125L295.497 165H292.497L288.27 157.125H291.185ZM302.351 165.264C301.061 165.264 299.95 164.989 299.018 164.438C298.092 163.881 297.376 163.099 296.87 162.094C296.37 161.082 296.12 159.898 296.12 158.54C296.12 157.199 296.37 156.017 296.87 154.994C297.376 153.972 298.081 153.173 298.984 152.599C299.893 152.026 300.956 151.739 302.172 151.739C302.91 151.739 303.626 151.861 304.319 152.105C305.013 152.349 305.635 152.733 306.186 153.256C306.737 153.778 307.172 154.457 307.49 155.293C307.808 156.122 307.967 157.131 307.967 158.318V159.222H297.561V157.312H305.47C305.47 156.642 305.334 156.048 305.061 155.531C304.788 155.009 304.405 154.597 303.91 154.295C303.422 153.994 302.848 153.844 302.189 153.844C301.473 153.844 300.848 154.02 300.314 154.372C299.785 154.719 299.376 155.173 299.086 155.736C298.802 156.293 298.66 156.898 298.66 157.551V159.043C298.66 159.918 298.814 160.662 299.12 161.276C299.433 161.889 299.868 162.358 300.424 162.682C300.981 163 301.632 163.159 302.376 163.159C302.859 163.159 303.299 163.091 303.697 162.955C304.095 162.812 304.439 162.602 304.728 162.324C305.018 162.045 305.24 161.702 305.393 161.293L307.805 161.727C307.612 162.437 307.265 163.06 306.765 163.594C306.271 164.122 305.649 164.534 304.899 164.83C304.155 165.119 303.305 165.264 302.351 165.264ZM313.644 165.29C312.815 165.29 312.065 165.136 311.394 164.83C310.724 164.517 310.192 164.065 309.8 163.474C309.414 162.884 309.221 162.159 309.221 161.301C309.221 160.562 309.363 159.955 309.647 159.477C309.931 159 310.315 158.622 310.798 158.344C311.28 158.065 311.82 157.855 312.417 157.713C313.013 157.571 313.621 157.463 314.241 157.389C315.025 157.298 315.661 157.224 316.15 157.168C316.638 157.105 316.994 157.006 317.215 156.869C317.437 156.733 317.548 156.511 317.548 156.205V156.145C317.548 155.401 317.337 154.824 316.917 154.415C316.502 154.006 315.883 153.801 315.059 153.801C314.201 153.801 313.525 153.991 313.03 154.372C312.542 154.747 312.204 155.165 312.016 155.625L309.621 155.08C309.905 154.284 310.32 153.642 310.866 153.153C311.417 152.659 312.05 152.301 312.766 152.08C313.482 151.852 314.235 151.739 315.025 151.739C315.548 151.739 316.102 151.801 316.687 151.926C317.278 152.045 317.829 152.267 318.34 152.591C318.857 152.915 319.28 153.378 319.61 153.98C319.94 154.577 320.104 155.352 320.104 156.307V165H317.616V163.21H317.513C317.349 163.54 317.102 163.864 316.772 164.182C316.442 164.5 316.019 164.764 315.502 164.974C314.985 165.185 314.366 165.29 313.644 165.29ZM314.198 163.244C314.903 163.244 315.505 163.105 316.005 162.827C316.511 162.548 316.894 162.185 317.155 161.736C317.423 161.281 317.556 160.795 317.556 160.278V158.591C317.465 158.682 317.289 158.767 317.028 158.847C316.772 158.92 316.479 158.986 316.15 159.043C315.82 159.094 315.499 159.142 315.187 159.188C314.874 159.227 314.613 159.261 314.403 159.29C313.908 159.352 313.457 159.457 313.048 159.605C312.644 159.753 312.32 159.966 312.076 160.244C311.837 160.517 311.718 160.881 311.718 161.335C311.718 161.966 311.951 162.443 312.417 162.767C312.883 163.085 313.477 163.244 314.198 163.244ZM327.439 165.256C326.382 165.256 325.439 164.986 324.61 164.446C323.786 163.901 323.138 163.125 322.666 162.119C322.2 161.108 321.968 159.895 321.968 158.48C321.968 157.065 322.203 155.855 322.675 154.849C323.152 153.844 323.806 153.074 324.635 152.54C325.465 152.006 326.405 151.739 327.456 151.739C328.269 151.739 328.922 151.875 329.416 152.148C329.916 152.415 330.303 152.727 330.575 153.085C330.854 153.443 331.07 153.759 331.223 154.031H331.377V147.545H333.925V165H331.436V162.963H331.223C331.07 163.241 330.848 163.56 330.558 163.918C330.274 164.276 329.882 164.588 329.382 164.855C328.882 165.122 328.235 165.256 327.439 165.256ZM328.002 163.082C328.735 163.082 329.354 162.889 329.86 162.503C330.371 162.111 330.757 161.568 331.019 160.875C331.286 160.182 331.419 159.375 331.419 158.455C331.419 157.545 331.289 156.75 331.027 156.068C330.766 155.386 330.382 154.855 329.877 154.474C329.371 154.094 328.746 153.903 328.002 153.903C327.235 153.903 326.595 154.102 326.084 154.5C325.573 154.898 325.186 155.44 324.925 156.128C324.669 156.815 324.541 157.591 324.541 158.455C324.541 159.33 324.672 160.116 324.933 160.815C325.195 161.514 325.581 162.068 326.093 162.477C326.61 162.881 327.246 163.082 328.002 163.082ZM338.213 169.909C337.832 169.909 337.486 169.878 337.173 169.815C336.861 169.759 336.628 169.696 336.474 169.628L337.088 167.54C337.554 167.665 337.968 167.719 338.332 167.702C338.696 167.685 339.017 167.548 339.295 167.293C339.579 167.037 339.829 166.619 340.045 166.04L340.361 165.17L335.571 151.909H338.298L341.613 162.068H341.75L345.065 151.909H347.801L342.406 166.747C342.156 167.429 341.838 168.006 341.451 168.477C341.065 168.955 340.605 169.313 340.071 169.551C339.537 169.79 338.917 169.909 338.213 169.909Z" fill="url(#paint5_linear_11311_6382)"/>
<path opacity="0.7" d="M97.2289 186.364H98.4562L101.905 191.886H102.007L105.456 186.364H106.683L102.485 192.96V198H101.428V192.96L97.2289 186.364ZM109.987 198.182C109.233 198.182 108.566 197.991 107.987 197.608C107.411 197.225 106.96 196.697 106.634 196.023C106.309 195.345 106.146 194.562 106.146 193.676C106.146 192.782 106.309 191.996 106.634 191.318C106.96 190.636 107.411 190.106 107.987 189.727C108.566 189.345 109.233 189.153 109.987 189.153C110.74 189.153 111.405 189.345 111.981 189.727C112.557 190.11 113.007 190.64 113.333 191.318C113.663 191.996 113.828 192.782 113.828 193.676C113.828 194.562 113.665 195.345 113.339 196.023C113.013 196.697 112.561 197.225 111.981 197.608C111.405 197.991 110.74 198.182 109.987 198.182ZM109.987 197.256C110.593 197.256 111.106 197.093 111.526 196.767C111.947 196.441 112.265 196.008 112.481 195.466C112.701 194.924 112.811 194.328 112.811 193.676C112.811 193.025 112.701 192.426 112.481 191.881C112.265 191.335 111.947 190.898 111.526 190.568C111.106 190.239 110.593 190.074 109.987 190.074C109.384 190.074 108.871 190.239 108.447 190.568C108.026 190.898 107.706 191.335 107.487 191.881C107.271 192.426 107.163 193.025 107.163 193.676C107.163 194.328 107.271 194.924 107.487 195.466C107.706 196.008 108.026 196.441 108.447 196.767C108.867 197.093 109.381 197.256 109.987 197.256ZM120.953 194.665V189.273H121.965V198H120.953V196.551H120.874C120.669 196.998 120.345 197.371 119.902 197.67C119.459 197.966 118.917 198.114 118.277 198.114C117.72 198.114 117.226 197.992 116.794 197.75C116.362 197.504 116.023 197.144 115.777 196.67C115.531 196.197 115.408 195.616 115.408 194.926V189.273H116.419V194.864C116.419 195.545 116.62 196.095 117.021 196.511C117.423 196.924 117.938 197.131 118.567 197.131C118.961 197.131 119.34 197.036 119.703 196.847C120.067 196.657 120.366 196.381 120.601 196.017C120.836 195.65 120.953 195.199 120.953 194.665ZM124.002 198V189.273H124.985V190.614H125.059C125.233 190.174 125.536 189.82 125.968 189.551C126.404 189.278 126.896 189.142 127.445 189.142C127.529 189.142 127.621 189.144 127.724 189.148C127.826 189.152 127.911 189.155 127.979 189.159V190.188C127.934 190.18 127.854 190.169 127.741 190.153C127.627 190.138 127.504 190.131 127.371 190.131C126.917 190.131 126.512 190.227 126.156 190.42C125.803 190.61 125.525 190.873 125.32 191.21C125.116 191.547 125.013 191.932 125.013 192.364V198H124.002ZM141.187 190C141.081 189.614 140.925 189.252 140.721 188.915C140.516 188.574 140.262 188.277 139.959 188.023C139.66 187.765 139.313 187.564 138.92 187.42C138.529 187.277 138.094 187.205 137.613 187.205C136.855 187.205 136.177 187.402 135.579 187.795C134.98 188.189 134.507 188.758 134.158 189.5C133.813 190.242 133.641 191.136 133.641 192.182C133.641 193.223 133.815 194.116 134.164 194.858C134.512 195.6 134.99 196.17 135.596 196.568C136.206 196.962 136.902 197.159 137.687 197.159C138.402 197.159 139.035 197 139.584 196.682C140.134 196.364 140.562 195.909 140.868 195.318C141.179 194.727 141.331 194.025 141.323 193.21L141.664 193.318H137.937V192.364H142.357V193.318C142.357 194.311 142.156 195.169 141.755 195.892C141.353 196.616 140.802 197.174 140.101 197.568C139.401 197.962 138.596 198.159 137.687 198.159C136.671 198.159 135.783 197.915 135.022 197.426C134.26 196.934 133.668 196.241 133.243 195.347C132.823 194.449 132.613 193.394 132.613 192.182C132.613 191.269 132.734 190.445 132.976 189.71C133.219 188.975 133.562 188.347 134.005 187.824C134.452 187.301 134.98 186.902 135.59 186.625C136.2 186.345 136.874 186.205 137.613 186.205C138.249 186.205 138.831 186.305 139.357 186.506C139.887 186.706 140.353 186.983 140.755 187.335C141.16 187.684 141.492 188.087 141.749 188.545C142.01 189 142.187 189.485 142.277 190H141.187ZM146.582 198.199C146.056 198.199 145.575 198.097 145.139 197.892C144.703 197.684 144.357 197.384 144.099 196.994C143.842 196.6 143.713 196.123 143.713 195.562C143.713 195.131 143.794 194.767 143.957 194.472C144.12 194.176 144.351 193.934 144.65 193.744C144.95 193.555 145.304 193.405 145.713 193.295C146.122 193.186 146.573 193.1 147.065 193.04C147.554 192.979 147.967 192.926 148.304 192.881C148.645 192.835 148.904 192.763 149.082 192.665C149.26 192.566 149.349 192.407 149.349 192.188V191.983C149.349 191.388 149.171 190.92 148.815 190.58C148.463 190.235 147.955 190.062 147.292 190.062C146.664 190.062 146.15 190.201 145.753 190.477C145.359 190.754 145.082 191.08 144.923 191.455L143.963 191.108C144.16 190.631 144.432 190.25 144.781 189.966C145.129 189.678 145.52 189.472 145.951 189.347C146.383 189.218 146.821 189.153 147.264 189.153C147.597 189.153 147.944 189.197 148.304 189.284C148.667 189.371 149.004 189.523 149.315 189.739C149.626 189.951 149.878 190.248 150.071 190.631C150.264 191.009 150.361 191.491 150.361 192.074V198H149.349V196.619H149.287C149.165 196.877 148.986 197.127 148.747 197.369C148.508 197.612 148.209 197.811 147.849 197.966C147.489 198.121 147.067 198.199 146.582 198.199ZM146.718 197.273C147.256 197.273 147.722 197.153 148.116 196.915C148.51 196.676 148.813 196.36 149.025 195.966C149.241 195.568 149.349 195.131 149.349 194.653V193.392C149.273 193.464 149.146 193.528 148.968 193.585C148.794 193.642 148.592 193.693 148.361 193.739C148.133 193.78 147.906 193.816 147.679 193.847C147.451 193.877 147.247 193.903 147.065 193.926C146.573 193.987 146.152 194.081 145.804 194.21C145.455 194.339 145.188 194.517 145.003 194.744C144.817 194.968 144.724 195.256 144.724 195.608C144.724 196.138 144.914 196.549 145.292 196.841C145.671 197.129 146.146 197.273 146.718 197.273ZM152.411 198V189.273H153.394V190.614H153.485C153.659 190.163 153.949 189.809 154.354 189.551C154.763 189.29 155.254 189.159 155.826 189.159C156.428 189.159 156.922 189.301 157.309 189.585C157.699 189.866 157.99 190.252 158.184 190.744H158.257C158.454 190.259 158.774 189.875 159.218 189.591C159.665 189.303 160.206 189.159 160.843 189.159C161.653 189.159 162.293 189.415 162.763 189.926C163.233 190.434 163.468 191.176 163.468 192.153V198H162.456V192.153C162.456 191.464 162.28 190.947 161.928 190.602C161.576 190.258 161.112 190.085 160.536 190.085C159.869 190.085 159.356 190.29 158.996 190.699C158.636 191.108 158.456 191.627 158.456 192.256V198H157.422V192.062C157.422 191.472 157.257 190.994 156.928 190.631C156.598 190.267 156.134 190.085 155.536 190.085C155.134 190.085 154.773 190.184 154.451 190.381C154.132 190.578 153.881 190.852 153.695 191.205C153.513 191.553 153.422 191.955 153.422 192.409V198H152.411ZM169.034 198.182C168.219 198.182 167.515 197.992 166.92 197.614C166.325 197.231 165.865 196.703 165.539 196.028C165.217 195.35 165.056 194.57 165.056 193.688C165.056 192.809 165.217 192.028 165.539 191.347C165.865 190.661 166.314 190.125 166.886 189.739C167.462 189.348 168.126 189.153 168.88 189.153C169.354 189.153 169.81 189.241 170.25 189.415C170.689 189.585 171.083 189.848 171.431 190.205C171.784 190.557 172.062 191.002 172.267 191.54C172.471 192.074 172.573 192.706 172.573 193.438V193.938H165.755V193.045H171.539C171.539 192.485 171.426 191.981 171.198 191.534C170.975 191.083 170.662 190.727 170.261 190.466C169.863 190.205 169.403 190.074 168.88 190.074C168.327 190.074 167.84 190.222 167.42 190.517C167 190.812 166.67 191.203 166.431 191.688C166.197 192.172 166.077 192.703 166.073 193.278V193.812C166.073 194.506 166.193 195.112 166.431 195.631C166.674 196.146 167.017 196.545 167.46 196.83C167.903 197.114 168.428 197.256 169.034 197.256C169.447 197.256 169.808 197.191 170.119 197.062C170.433 196.934 170.697 196.761 170.909 196.545C171.125 196.326 171.287 196.085 171.397 195.824L172.357 196.136C172.225 196.504 172.007 196.843 171.704 197.153C171.405 197.464 171.03 197.714 170.579 197.903C170.132 198.089 169.617 198.182 169.034 198.182ZM179.295 186.364V198H178.232V186.364H179.295ZM187.402 191.188L186.476 191.449C186.385 191.187 186.256 190.951 186.089 190.739C185.923 190.527 185.705 190.358 185.436 190.233C185.171 190.108 184.841 190.045 184.447 190.045C183.857 190.045 183.372 190.186 182.993 190.466C182.614 190.746 182.425 191.108 182.425 191.551C182.425 191.926 182.553 192.231 182.811 192.466C183.072 192.697 183.474 192.881 184.016 193.017L185.334 193.341C186.065 193.519 186.612 193.801 186.976 194.188C187.343 194.574 187.527 195.059 187.527 195.642C187.527 196.134 187.391 196.572 187.118 196.955C186.845 197.337 186.464 197.638 185.976 197.858C185.491 198.074 184.928 198.182 184.288 198.182C183.436 198.182 182.733 197.991 182.18 197.608C181.627 197.222 181.273 196.665 181.118 195.938L182.089 195.699C182.214 196.218 182.459 196.61 182.822 196.875C183.19 197.14 183.673 197.273 184.271 197.273C184.942 197.273 185.478 197.123 185.879 196.824C186.281 196.521 186.482 196.142 186.482 195.688C186.482 195.335 186.364 195.04 186.129 194.801C185.894 194.559 185.538 194.381 185.061 194.267L183.635 193.926C182.877 193.744 182.317 193.456 181.953 193.062C181.589 192.669 181.408 192.18 181.408 191.597C181.408 191.116 181.538 190.693 181.8 190.33C182.061 189.962 182.421 189.674 182.879 189.466C183.338 189.258 183.86 189.153 184.447 189.153C185.247 189.153 185.885 189.335 186.362 189.699C186.843 190.059 187.19 190.555 187.402 191.188ZM194.234 186.364V198H193.172V186.364H194.234ZM197.489 192.545V198H196.478V189.273H197.461V190.642H197.552C197.756 190.195 198.074 189.837 198.506 189.568C198.942 189.295 199.48 189.159 200.12 189.159C200.707 189.159 201.222 189.282 201.665 189.528C202.112 189.771 202.459 190.129 202.705 190.602C202.955 191.076 203.08 191.657 203.08 192.347V198H202.069V192.409C202.069 191.693 201.868 191.127 201.466 190.71C201.069 190.294 200.535 190.085 199.864 190.085C199.406 190.085 198.999 190.184 198.642 190.381C198.286 190.578 198.004 190.862 197.796 191.233C197.591 191.6 197.489 192.038 197.489 192.545ZM210.967 191.188L210.041 191.449C209.95 191.187 209.821 190.951 209.654 190.739C209.488 190.527 209.27 190.358 209.001 190.233C208.736 190.108 208.406 190.045 208.012 190.045C207.422 190.045 206.937 190.186 206.558 190.466C206.179 190.746 205.99 191.108 205.99 191.551C205.99 191.926 206.118 192.231 206.376 192.466C206.637 192.697 207.039 192.881 207.581 193.017L208.899 193.341C209.63 193.519 210.177 193.801 210.541 194.188C210.908 194.574 211.092 195.059 211.092 195.642C211.092 196.134 210.956 196.572 210.683 196.955C210.41 197.337 210.029 197.638 209.541 197.858C209.056 198.074 208.493 198.182 207.853 198.182C207.001 198.182 206.298 197.991 205.745 197.608C205.192 197.222 204.838 196.665 204.683 195.938L205.654 195.699C205.779 196.218 206.024 196.61 206.387 196.875C206.755 197.14 207.238 197.273 207.836 197.273C208.507 197.273 209.043 197.123 209.444 196.824C209.846 196.521 210.047 196.142 210.047 195.688C210.047 195.335 209.929 195.04 209.694 194.801C209.459 194.559 209.103 194.381 208.626 194.267L207.2 193.926C206.442 193.744 205.882 193.456 205.518 193.062C205.154 192.669 204.973 192.18 204.973 191.597C204.973 191.116 205.103 190.693 205.365 190.33C205.626 189.962 205.986 189.674 206.444 189.466C206.903 189.258 207.425 189.153 208.012 189.153C208.812 189.153 209.45 189.335 209.927 189.699C210.408 190.059 210.755 190.555 210.967 191.188ZM216.104 189.273V190.153H211.939V189.273H216.104ZM213.24 187.182H214.257V195.722C214.257 196.085 214.32 196.371 214.445 196.58C214.57 196.784 214.733 196.93 214.934 197.017C215.134 197.1 215.348 197.142 215.576 197.142C215.708 197.142 215.822 197.134 215.916 197.119C216.011 197.1 216.095 197.081 216.166 197.062L216.382 197.977C216.284 198.015 216.163 198.049 216.019 198.08C215.875 198.114 215.697 198.131 215.485 198.131C215.113 198.131 214.755 198.049 214.411 197.886C214.07 197.723 213.79 197.481 213.57 197.159C213.35 196.837 213.24 196.438 213.24 195.96V187.182ZM220.198 198.199C219.672 198.199 219.191 198.097 218.755 197.892C218.32 197.684 217.973 197.384 217.715 196.994C217.458 196.6 217.329 196.123 217.329 195.562C217.329 195.131 217.41 194.767 217.573 194.472C217.736 194.176 217.967 193.934 218.267 193.744C218.566 193.555 218.92 193.405 219.329 193.295C219.738 193.186 220.189 193.1 220.681 193.04C221.17 192.979 221.583 192.926 221.92 192.881C222.261 192.835 222.52 192.763 222.698 192.665C222.876 192.566 222.965 192.407 222.965 192.188V191.983C222.965 191.388 222.787 190.92 222.431 190.58C222.079 190.235 221.571 190.062 220.909 190.062C220.28 190.062 219.767 190.201 219.369 190.477C218.975 190.754 218.698 191.08 218.539 191.455L217.579 191.108C217.776 190.631 218.049 190.25 218.397 189.966C218.746 189.678 219.136 189.472 219.568 189.347C219.999 189.218 220.437 189.153 220.88 189.153C221.214 189.153 221.56 189.197 221.92 189.284C222.284 189.371 222.621 189.523 222.931 189.739C223.242 189.951 223.494 190.248 223.687 190.631C223.88 191.009 223.977 191.491 223.977 192.074V198H222.965V196.619H222.903C222.782 196.877 222.602 197.127 222.363 197.369C222.124 197.612 221.825 197.811 221.465 197.966C221.106 198.121 220.683 198.199 220.198 198.199ZM220.335 197.273C220.873 197.273 221.339 197.153 221.732 196.915C222.126 196.676 222.429 196.36 222.642 195.966C222.857 195.568 222.965 195.131 222.965 194.653V193.392C222.89 193.464 222.763 193.528 222.585 193.585C222.41 193.642 222.208 193.693 221.977 193.739C221.749 193.78 221.522 193.816 221.295 193.847C221.068 193.877 220.863 193.903 220.681 193.926C220.189 193.987 219.768 194.081 219.42 194.21C219.071 194.339 218.804 194.517 218.619 194.744C218.433 194.968 218.34 195.256 218.34 195.608C218.34 196.138 218.53 196.549 218.909 196.841C219.287 197.129 219.763 197.273 220.335 197.273ZM227.038 192.545V198H226.027V189.273H227.01V190.642H227.101C227.306 190.195 227.624 189.837 228.056 189.568C228.491 189.295 229.029 189.159 229.669 189.159C230.256 189.159 230.771 189.282 231.215 189.528C231.662 189.771 232.008 190.129 232.254 190.602C232.504 191.076 232.629 191.657 232.629 192.347V198H231.618V192.409C231.618 191.693 231.417 191.127 231.016 190.71C230.618 190.294 230.084 190.085 229.413 190.085C228.955 190.085 228.548 190.184 228.192 190.381C227.836 190.578 227.554 190.862 227.345 191.233C227.141 191.6 227.038 192.038 227.038 192.545ZM238.09 189.273V190.153H233.925V189.273H238.09ZM235.227 187.182H236.244V195.722C236.244 196.085 236.306 196.371 236.431 196.58C236.556 196.784 236.719 196.93 236.92 197.017C237.121 197.1 237.335 197.142 237.562 197.142C237.694 197.142 237.808 197.134 237.903 197.119C237.997 197.1 238.081 197.081 238.153 197.062L238.369 197.977C238.27 198.015 238.149 198.049 238.005 198.08C237.861 198.114 237.683 198.131 237.471 198.131C237.1 198.131 236.742 198.049 236.397 197.886C236.056 197.723 235.776 197.481 235.556 197.159C235.336 196.837 235.227 196.438 235.227 195.96V187.182ZM240.946 186.364V198H239.935V186.364H240.946ZM243.687 201.273C243.486 201.273 243.298 201.254 243.124 201.216C242.95 201.178 242.812 201.136 242.709 201.091L242.982 200.199C243.327 200.305 243.634 200.343 243.903 200.312C244.171 200.286 244.41 200.165 244.618 199.949C244.827 199.737 245.012 199.411 245.175 198.972L245.493 198.085L242.283 189.273H243.38L245.971 196.665H246.05L248.641 189.273H249.738L246.045 199.381C245.889 199.801 245.698 200.152 245.471 200.432C245.243 200.716 244.98 200.926 244.681 201.062C244.386 201.203 244.054 201.273 243.687 201.273ZM255.147 198V186.364H258.902C259.728 186.364 260.418 186.523 260.971 186.841C261.527 187.155 261.946 187.583 262.226 188.125C262.51 188.667 262.652 189.277 262.652 189.955C262.652 190.633 262.512 191.244 262.232 191.79C261.952 192.331 261.535 192.761 260.982 193.08C260.429 193.394 259.741 193.551 258.919 193.551H255.965V192.597H258.891C259.501 192.597 260.007 192.483 260.408 192.256C260.81 192.025 261.109 191.71 261.306 191.312C261.507 190.915 261.607 190.462 261.607 189.955C261.607 189.447 261.507 188.994 261.306 188.597C261.109 188.199 260.808 187.886 260.402 187.659C260.001 187.432 259.491 187.318 258.874 187.318H256.209V198H255.147ZM265.308 186.364V198H264.296V186.364H265.308ZM269.781 198.199C269.255 198.199 268.774 198.097 268.338 197.892C267.903 197.684 267.556 197.384 267.299 196.994C267.041 196.6 266.912 196.123 266.912 195.562C266.912 195.131 266.994 194.767 267.156 194.472C267.319 194.176 267.55 193.934 267.85 193.744C268.149 193.555 268.503 193.405 268.912 193.295C269.321 193.186 269.772 193.1 270.264 193.04C270.753 192.979 271.166 192.926 271.503 192.881C271.844 192.835 272.103 192.763 272.281 192.665C272.46 192.566 272.549 192.407 272.549 192.188V191.983C272.549 191.388 272.37 190.92 272.014 190.58C271.662 190.235 271.155 190.062 270.492 190.062C269.863 190.062 269.35 190.201 268.952 190.477C268.558 190.754 268.281 191.08 268.122 191.455L267.162 191.108C267.359 190.631 267.632 190.25 267.98 189.966C268.329 189.678 268.719 189.472 269.151 189.347C269.583 189.218 270.02 189.153 270.463 189.153C270.797 189.153 271.143 189.197 271.503 189.284C271.867 189.371 272.204 189.523 272.514 189.739C272.825 189.951 273.077 190.248 273.27 190.631C273.463 191.009 273.56 191.491 273.56 192.074V198H272.549V196.619H272.486C272.365 196.877 272.185 197.127 271.946 197.369C271.708 197.612 271.408 197.811 271.049 197.966C270.689 198.121 270.266 198.199 269.781 198.199ZM269.918 197.273C270.456 197.273 270.922 197.153 271.316 196.915C271.71 196.676 272.013 196.36 272.225 195.966C272.441 195.568 272.549 195.131 272.549 194.653V193.392C272.473 193.464 272.346 193.528 272.168 193.585C271.994 193.642 271.791 193.693 271.56 193.739C271.333 193.78 271.105 193.816 270.878 193.847C270.651 193.877 270.446 193.903 270.264 193.926C269.772 193.987 269.352 194.081 269.003 194.21C268.655 194.339 268.388 194.517 268.202 194.744C268.016 194.968 267.924 195.256 267.924 195.608C267.924 196.138 268.113 196.549 268.492 196.841C268.87 197.129 269.346 197.273 269.918 197.273ZM276.002 201.273C275.802 201.273 275.614 201.254 275.44 201.216C275.266 201.178 275.127 201.136 275.025 201.091L275.298 200.199C275.642 200.305 275.949 200.343 276.218 200.312C276.487 200.286 276.726 200.165 276.934 199.949C277.142 199.737 277.328 199.411 277.491 198.972L277.809 198.085L274.599 189.273H275.695L278.286 196.665H278.366L280.957 189.273H282.053L278.36 199.381C278.205 199.801 278.014 200.152 277.786 200.432C277.559 200.716 277.296 200.926 276.997 201.062C276.701 201.203 276.37 201.273 276.002 201.273ZM285.564 198.199C285.037 198.199 284.556 198.097 284.121 197.892C283.685 197.684 283.339 197.384 283.081 196.994C282.823 196.6 282.695 196.123 282.695 195.562C282.695 195.131 282.776 194.767 282.939 194.472C283.102 194.176 283.333 193.934 283.632 193.744C283.931 193.555 284.286 193.405 284.695 193.295C285.104 193.186 285.555 193.1 286.047 193.04C286.536 192.979 286.948 192.926 287.286 192.881C287.626 192.835 287.886 192.763 288.064 192.665C288.242 192.566 288.331 192.407 288.331 192.188V191.983C288.331 191.388 288.153 190.92 287.797 190.58C287.445 190.235 286.937 190.062 286.274 190.062C285.645 190.062 285.132 190.201 284.734 190.477C284.34 190.754 284.064 191.08 283.905 191.455L282.945 191.108C283.142 190.631 283.414 190.25 283.763 189.966C284.111 189.678 284.501 189.472 284.933 189.347C285.365 189.218 285.803 189.153 286.246 189.153C286.579 189.153 286.926 189.197 287.286 189.284C287.649 189.371 287.986 189.523 288.297 189.739C288.608 189.951 288.859 190.248 289.053 190.631C289.246 191.009 289.342 191.491 289.342 192.074V198H288.331V196.619H288.269C288.147 196.877 287.967 197.127 287.729 197.369C287.49 197.612 287.191 197.811 286.831 197.966C286.471 198.121 286.049 198.199 285.564 198.199ZM285.7 197.273C286.238 197.273 286.704 197.153 287.098 196.915C287.492 196.676 287.795 196.36 288.007 195.966C288.223 195.568 288.331 195.131 288.331 194.653V193.392C288.255 193.464 288.128 193.528 287.95 193.585C287.776 193.642 287.573 193.693 287.342 193.739C287.115 193.78 286.888 193.816 286.661 193.847C286.433 193.877 286.229 193.903 286.047 193.926C285.555 193.987 285.134 194.081 284.786 194.21C284.437 194.339 284.17 194.517 283.984 194.744C283.799 194.968 283.706 195.256 283.706 195.608C283.706 196.138 283.895 196.549 284.274 196.841C284.653 197.129 285.128 197.273 285.7 197.273ZM291.603 198V186.364H292.62V190.938H292.711C292.825 190.676 292.987 190.407 293.2 190.131C293.415 189.854 293.698 189.623 294.046 189.438C294.398 189.248 294.842 189.153 295.376 189.153C296.092 189.153 296.72 189.343 297.262 189.722C297.804 190.097 298.226 190.623 298.529 191.301C298.832 191.975 298.984 192.761 298.984 193.659C298.984 194.561 298.832 195.35 298.529 196.028C298.23 196.706 297.809 197.235 297.268 197.614C296.73 197.992 296.105 198.182 295.393 198.182C294.862 198.182 294.419 198.087 294.063 197.898C293.711 197.708 293.427 197.475 293.211 197.199C292.995 196.919 292.828 196.646 292.711 196.381H292.586V198H291.603ZM292.603 193.642C292.603 194.347 292.707 194.972 292.915 195.517C293.128 196.059 293.431 196.485 293.825 196.795C294.222 197.102 294.703 197.256 295.268 197.256C295.847 197.256 296.338 197.097 296.739 196.778C297.141 196.456 297.446 196.023 297.654 195.477C297.862 194.932 297.967 194.32 297.967 193.642C297.967 192.972 297.862 192.367 297.654 191.83C297.45 191.292 297.147 190.866 296.745 190.551C296.343 190.233 295.851 190.074 295.268 190.074C294.7 190.074 294.217 190.227 293.819 190.534C293.425 190.837 293.124 191.258 292.915 191.795C292.707 192.33 292.603 192.945 292.603 193.642ZM301.577 186.364V198H300.565V186.364H301.577ZM307.141 198.182C306.327 198.182 305.622 197.992 305.027 197.614C304.433 197.231 303.973 196.703 303.647 196.028C303.325 195.35 303.164 194.57 303.164 193.688C303.164 192.809 303.325 192.028 303.647 191.347C303.973 190.661 304.421 190.125 304.993 189.739C305.569 189.348 306.234 189.153 306.988 189.153C307.461 189.153 307.918 189.241 308.357 189.415C308.796 189.585 309.19 189.848 309.539 190.205C309.891 190.557 310.17 191.002 310.374 191.54C310.579 192.074 310.681 192.706 310.681 193.438V193.938H303.863V193.045H309.647C309.647 192.485 309.533 191.981 309.306 191.534C309.082 191.083 308.77 190.727 308.368 190.466C307.971 190.205 307.51 190.074 306.988 190.074C306.435 190.074 305.948 190.222 305.527 190.517C305.107 190.812 304.777 191.203 304.539 191.688C304.304 192.172 304.185 192.703 304.181 193.278V193.812C304.181 194.506 304.3 195.112 304.539 195.631C304.781 196.146 305.124 196.545 305.567 196.83C306.01 197.114 306.535 197.256 307.141 197.256C307.554 197.256 307.916 197.191 308.226 197.062C308.541 196.934 308.804 196.761 309.016 196.545C309.232 196.326 309.395 196.085 309.505 195.824L310.465 196.136C310.332 196.504 310.115 196.843 309.812 197.153C309.512 197.464 309.137 197.714 308.687 197.903C308.24 198.089 307.724 198.182 307.141 198.182ZM317.402 186.364V198H316.34V186.364H317.402ZM320.657 192.545V198H319.646V189.273H320.629V190.642H320.72C320.924 190.195 321.242 189.837 321.674 189.568C322.11 189.295 322.648 189.159 323.288 189.159C323.875 189.159 324.39 189.282 324.833 189.528C325.28 189.771 325.627 190.129 325.873 190.602C326.123 191.076 326.248 191.657 326.248 192.347V198H325.237V192.409C325.237 191.693 325.036 191.127 324.634 190.71C324.237 190.294 323.703 190.085 323.032 190.085C322.574 190.085 322.167 190.184 321.811 190.381C321.455 190.578 321.172 190.862 320.964 191.233C320.759 191.6 320.657 192.038 320.657 192.545ZM334.135 191.188L333.209 191.449C333.118 191.187 332.989 190.951 332.823 190.739C332.656 190.527 332.438 190.358 332.169 190.233C331.904 190.108 331.575 190.045 331.181 190.045C330.59 190.045 330.105 190.186 329.726 190.466C329.347 190.746 329.158 191.108 329.158 191.551C329.158 191.926 329.287 192.231 329.544 192.466C329.806 192.697 330.207 192.881 330.749 193.017L332.067 193.341C332.798 193.519 333.345 193.801 333.709 194.188C334.076 194.574 334.26 195.059 334.26 195.642C334.26 196.134 334.124 196.572 333.851 196.955C333.578 197.337 333.198 197.638 332.709 197.858C332.224 198.074 331.662 198.182 331.021 198.182C330.169 198.182 329.467 197.991 328.914 197.608C328.36 197.222 328.006 196.665 327.851 195.938L328.823 195.699C328.948 196.218 329.192 196.61 329.556 196.875C329.923 197.14 330.406 197.273 331.004 197.273C331.675 197.273 332.211 197.123 332.612 196.824C333.014 196.521 333.215 196.142 333.215 195.688C333.215 195.335 333.097 195.04 332.862 194.801C332.628 194.559 332.271 194.381 331.794 194.267L330.368 193.926C329.61 193.744 329.05 193.456 328.686 193.062C328.323 192.669 328.141 192.18 328.141 191.597C328.141 191.116 328.271 190.693 328.533 190.33C328.794 189.962 329.154 189.674 329.612 189.466C330.071 189.258 330.593 189.153 331.181 189.153C331.98 189.153 332.618 189.335 333.095 189.699C333.576 190.059 333.923 190.555 334.135 191.188ZM335.846 198V189.273H336.863V198H335.846ZM336.363 187.773C336.155 187.773 335.977 187.703 335.829 187.562C335.681 187.419 335.607 187.246 335.607 187.045C335.607 186.845 335.681 186.674 335.829 186.534C335.977 186.39 336.155 186.318 336.363 186.318C336.571 186.318 336.749 186.39 336.897 186.534C337.045 186.674 337.119 186.845 337.119 187.045C337.119 187.246 337.045 187.419 336.897 187.562C336.749 187.703 336.571 187.773 336.363 187.773ZM342.04 198.182C341.324 198.182 340.697 197.992 340.159 197.614C339.621 197.235 339.201 196.706 338.898 196.028C338.598 195.35 338.449 194.561 338.449 193.659C338.449 192.761 338.598 191.975 338.898 191.301C339.201 190.623 339.623 190.097 340.165 189.722C340.706 189.343 341.337 189.153 342.057 189.153C342.587 189.153 343.028 189.248 343.381 189.438C343.733 189.623 344.015 189.854 344.227 190.131C344.439 190.407 344.604 190.676 344.722 190.938H344.812V186.364H345.83V198H344.841V196.381H344.722C344.604 196.646 344.438 196.919 344.222 197.199C344.006 197.475 343.72 197.708 343.364 197.898C343.011 198.087 342.57 198.182 342.04 198.182ZM342.159 197.256C342.723 197.256 343.205 197.102 343.602 196.795C344 196.485 344.303 196.059 344.511 195.517C344.723 194.972 344.83 194.347 344.83 193.642C344.83 192.945 344.725 192.33 344.517 191.795C344.309 191.258 344.006 190.837 343.608 190.534C343.21 190.227 342.727 190.074 342.159 190.074C341.576 190.074 341.083 190.233 340.682 190.551C340.284 190.866 339.981 191.292 339.773 191.83C339.568 192.367 339.466 192.972 339.466 193.642C339.466 194.32 339.57 194.932 339.778 195.477C339.987 196.023 340.29 196.456 340.688 196.778C341.089 197.097 341.58 197.256 342.159 197.256ZM351.599 198.182C350.784 198.182 350.08 197.992 349.485 197.614C348.89 197.231 348.43 196.703 348.104 196.028C347.782 195.35 347.621 194.57 347.621 193.688C347.621 192.809 347.782 192.028 348.104 191.347C348.43 190.661 348.879 190.125 349.451 189.739C350.027 189.348 350.691 189.153 351.445 189.153C351.919 189.153 352.375 189.241 352.815 189.415C353.254 189.585 353.648 189.848 353.996 190.205C354.349 190.557 354.627 191.002 354.832 191.54C355.036 192.074 355.138 192.706 355.138 193.438V193.938H348.32V193.045H354.104C354.104 192.485 353.991 191.981 353.763 191.534C353.54 191.083 353.227 190.727 352.826 190.466C352.428 190.205 351.968 190.074 351.445 190.074C350.892 190.074 350.405 190.222 349.985 190.517C349.565 190.812 349.235 191.203 348.996 191.688C348.762 192.172 348.642 192.703 348.638 193.278V193.812C348.638 194.506 348.758 195.112 348.996 195.631C349.239 196.146 349.582 196.545 350.025 196.83C350.468 197.114 350.993 197.256 351.599 197.256C352.012 197.256 352.373 197.191 352.684 197.062C352.998 196.934 353.262 196.761 353.474 196.545C353.69 196.326 353.852 196.085 353.962 195.824L354.922 196.136C354.79 196.504 354.572 196.843 354.269 197.153C353.97 197.464 353.595 197.714 353.144 197.903C352.697 198.089 352.182 198.182 351.599 198.182ZM360.093 187.318V186.364H368.53V187.318H364.843V198H363.78V187.318H360.093ZM372.335 198.182C371.52 198.182 370.816 197.992 370.221 197.614C369.627 197.231 369.166 196.703 368.841 196.028C368.519 195.35 368.358 194.57 368.358 193.688C368.358 192.809 368.519 192.028 368.841 191.347C369.166 190.661 369.615 190.125 370.187 189.739C370.763 189.348 371.428 189.153 372.181 189.153C372.655 189.153 373.111 189.241 373.551 189.415C373.99 189.585 374.384 189.848 374.733 190.205C375.085 190.557 375.363 191.002 375.568 191.54C375.772 192.074 375.875 192.706 375.875 193.438V193.938H369.056V193.045H374.841C374.841 192.485 374.727 191.981 374.5 191.534C374.276 191.083 373.964 190.727 373.562 190.466C373.164 190.205 372.704 190.074 372.181 190.074C371.628 190.074 371.142 190.222 370.721 190.517C370.301 190.812 369.971 191.203 369.733 191.688C369.498 192.172 369.378 192.703 369.375 193.278V193.812C369.375 194.506 369.494 195.112 369.733 195.631C369.975 196.146 370.318 196.545 370.761 196.83C371.204 197.114 371.729 197.256 372.335 197.256C372.748 197.256 373.11 197.191 373.42 197.062C373.735 196.934 373.998 196.761 374.21 196.545C374.426 196.326 374.589 196.085 374.699 195.824L375.659 196.136C375.526 196.504 375.308 196.843 375.005 197.153C374.706 197.464 374.331 197.714 373.88 197.903C373.433 198.089 372.918 198.182 372.335 198.182ZM378.475 186.364V198H377.463V186.364H378.475ZM384.039 198.182C383.225 198.182 382.52 197.992 381.926 197.614C381.331 197.231 380.871 196.703 380.545 196.028C380.223 195.35 380.062 194.57 380.062 193.688C380.062 192.809 380.223 192.028 380.545 191.347C380.871 190.661 381.32 190.125 381.892 189.739C382.467 189.348 383.132 189.153 383.886 189.153C384.359 189.153 384.816 189.241 385.255 189.415C385.695 189.585 386.088 189.848 386.437 190.205C386.789 190.557 387.068 191.002 387.272 191.54C387.477 192.074 387.579 192.706 387.579 193.438V193.938H380.761V193.045H386.545C386.545 192.485 386.431 191.981 386.204 191.534C385.981 191.083 385.668 190.727 385.267 190.466C384.869 190.205 384.409 190.074 383.886 190.074C383.333 190.074 382.846 190.222 382.426 190.517C382.005 190.812 381.676 191.203 381.437 191.688C381.202 192.172 381.083 192.703 381.079 193.278V193.812C381.079 194.506 381.198 195.112 381.437 195.631C381.679 196.146 382.022 196.545 382.465 196.83C382.909 197.114 383.433 197.256 384.039 197.256C384.452 197.256 384.814 197.191 385.124 197.062C385.439 196.934 385.702 196.761 385.914 196.545C386.13 196.326 386.293 196.085 386.403 195.824L387.363 196.136C387.231 196.504 387.013 196.843 386.71 197.153C386.41 197.464 386.035 197.714 385.585 197.903C385.138 198.089 384.623 198.182 384.039 198.182ZM392.497 201.455C391.903 201.455 391.382 201.377 390.935 201.222C390.488 201.07 390.111 200.862 389.804 200.597C389.497 200.331 389.259 200.034 389.088 199.705L389.918 199.159C390.043 199.379 390.209 199.595 390.418 199.807C390.63 200.019 390.904 200.195 391.242 200.335C391.583 200.475 392.001 200.545 392.497 200.545C393.27 200.545 393.893 200.352 394.367 199.966C394.844 199.58 395.083 198.979 395.083 198.165V196.199H394.992C394.874 196.464 394.706 196.729 394.486 196.994C394.266 197.256 393.978 197.473 393.622 197.648C393.27 197.822 392.833 197.909 392.31 197.909C391.613 197.909 390.994 197.737 390.452 197.392C389.914 197.047 389.49 196.555 389.179 195.915C388.872 195.271 388.719 194.504 388.719 193.614C388.719 192.731 388.869 191.955 389.168 191.284C389.471 190.614 389.893 190.091 390.435 189.716C390.976 189.341 391.607 189.153 392.327 189.153C392.861 189.153 393.304 189.248 393.656 189.438C394.009 189.623 394.291 189.854 394.503 190.131C394.719 190.407 394.887 190.676 395.009 190.938H395.111V189.273H396.1V198.227C396.1 198.966 395.942 199.574 395.628 200.051C395.314 200.528 394.886 200.881 394.344 201.108C393.802 201.339 393.187 201.455 392.497 201.455ZM392.429 196.983C392.99 196.983 393.469 196.848 393.867 196.58C394.264 196.307 394.569 195.917 394.781 195.409C394.994 194.902 395.1 194.297 395.1 193.597C395.1 192.915 394.995 192.311 394.787 191.784C394.579 191.254 394.276 190.837 393.878 190.534C393.484 190.227 393.001 190.074 392.429 190.074C391.846 190.074 391.353 190.231 390.952 190.545C390.55 190.86 390.247 191.284 390.043 191.818C389.838 192.348 389.736 192.941 389.736 193.597C389.736 194.263 389.84 194.852 390.048 195.364C390.257 195.871 390.562 196.269 390.963 196.557C391.365 196.841 391.853 196.983 392.429 196.983ZM398.137 198V189.273H399.12V190.614H399.194C399.368 190.174 399.671 189.82 400.103 189.551C400.539 189.278 401.031 189.142 401.58 189.142C401.664 189.142 401.756 189.144 401.859 189.148C401.961 189.152 402.046 189.155 402.114 189.159V190.188C402.069 190.18 401.989 190.169 401.876 190.153C401.762 190.138 401.639 190.131 401.506 190.131C401.052 190.131 400.647 190.227 400.291 190.42C399.938 190.61 399.66 190.873 399.455 191.21C399.251 191.547 399.148 191.932 399.148 192.364V198H398.137ZM405.638 198.199C405.111 198.199 404.63 198.097 404.195 197.892C403.759 197.684 403.412 197.384 403.155 196.994C402.897 196.6 402.768 196.123 402.768 195.562C402.768 195.131 402.85 194.767 403.013 194.472C403.176 194.176 403.407 193.934 403.706 193.744C404.005 193.555 404.359 193.405 404.768 193.295C405.177 193.186 405.628 193.1 406.121 193.04C406.609 192.979 407.022 192.926 407.359 192.881C407.7 192.835 407.96 192.763 408.138 192.665C408.316 192.566 408.405 192.407 408.405 192.188V191.983C408.405 191.388 408.227 190.92 407.871 190.58C407.518 190.235 407.011 190.062 406.348 190.062C405.719 190.062 405.206 190.201 404.808 190.477C404.414 190.754 404.138 191.08 403.979 191.455L403.018 191.108C403.215 190.631 403.488 190.25 403.837 189.966C404.185 189.678 404.575 189.472 405.007 189.347C405.439 189.218 405.876 189.153 406.32 189.153C406.653 189.153 406.999 189.197 407.359 189.284C407.723 189.371 408.06 189.523 408.371 189.739C408.681 189.951 408.933 190.248 409.126 190.631C409.32 191.009 409.416 191.491 409.416 192.074V198H408.405V196.619H408.342C408.221 196.877 408.041 197.127 407.802 197.369C407.564 197.612 407.265 197.811 406.905 197.966C406.545 198.121 406.123 198.199 405.638 198.199ZM405.774 197.273C406.312 197.273 406.778 197.153 407.172 196.915C407.566 196.676 407.869 196.36 408.081 195.966C408.297 195.568 408.405 195.131 408.405 194.653V193.392C408.329 193.464 408.202 193.528 408.024 193.585C407.85 193.642 407.647 193.693 407.416 193.739C407.189 193.78 406.962 193.816 406.734 193.847C406.507 193.877 406.302 193.903 406.121 193.926C405.628 193.987 405.208 194.081 404.859 194.21C404.511 194.339 404.244 194.517 404.058 194.744C403.873 194.968 403.78 195.256 403.78 195.608C403.78 196.138 403.969 196.549 404.348 196.841C404.727 197.129 405.202 197.273 405.774 197.273ZM411.466 198V189.273H412.449V190.614H412.54C412.715 190.163 413.004 189.809 413.41 189.551C413.819 189.29 414.309 189.159 414.881 189.159C415.483 189.159 415.978 189.301 416.364 189.585C416.754 189.866 417.046 190.252 417.239 190.744H417.313C417.51 190.259 417.83 189.875 418.273 189.591C418.72 189.303 419.262 189.159 419.898 189.159C420.709 189.159 421.349 189.415 421.819 189.926C422.288 190.434 422.523 191.176 422.523 192.153V198H421.512V192.153C421.512 191.464 421.336 190.947 420.983 190.602C420.631 190.258 420.167 190.085 419.591 190.085C418.925 190.085 418.412 190.29 418.052 190.699C417.692 191.108 417.512 191.627 417.512 192.256V198H416.478V192.062C416.478 191.472 416.313 190.994 415.983 190.631C415.654 190.267 415.19 190.085 414.591 190.085C414.19 190.085 413.828 190.184 413.506 190.381C413.188 190.578 412.936 190.852 412.751 191.205C412.569 191.553 412.478 191.955 412.478 192.409V198H411.466ZM225.699 205.364H226.926L231.148 215.5H231.25L235.472 205.364H236.699V217H235.699V207.608H235.608L231.682 217H230.716L226.79 207.608H226.699V217H225.699V205.364ZM238.954 217V208.273H239.971V217H238.954ZM239.471 206.773C239.262 206.773 239.084 206.703 238.937 206.562C238.789 206.419 238.715 206.246 238.715 206.045C238.715 205.845 238.789 205.674 238.937 205.534C239.084 205.39 239.262 205.318 239.471 205.318C239.679 205.318 239.857 205.39 240.005 205.534C240.153 205.674 240.227 205.845 240.227 206.045C240.227 206.246 240.153 206.419 240.005 206.562C239.857 206.703 239.679 206.773 239.471 206.773ZM243.017 211.545V217H242.006V208.273H242.989V209.642H243.079C243.284 209.195 243.602 208.837 244.034 208.568C244.47 208.295 245.007 208.159 245.648 208.159C246.235 208.159 246.75 208.282 247.193 208.528C247.64 208.771 247.987 209.129 248.233 209.602C248.483 210.076 248.608 210.657 248.608 211.347V217H247.596V211.409C247.596 210.693 247.396 210.127 246.994 209.71C246.596 209.294 246.062 209.085 245.392 209.085C244.934 209.085 244.526 209.184 244.17 209.381C243.814 209.578 243.532 209.862 243.324 210.233C243.119 210.6 243.017 211.038 243.017 211.545ZM250.643 217V208.273H251.66V217H250.643ZM251.16 206.773C250.951 206.773 250.773 206.703 250.625 206.562C250.478 206.419 250.404 206.246 250.404 206.045C250.404 205.845 250.478 205.674 250.625 205.534C250.773 205.39 250.951 205.318 251.16 205.318C251.368 205.318 251.546 205.39 251.694 205.534C251.841 205.674 251.915 205.845 251.915 206.045C251.915 206.246 251.841 206.419 251.694 206.562C251.546 206.703 251.368 206.773 251.16 206.773ZM257.782 217H256.668L260.901 205.364H262.037L266.27 217H265.157L261.509 206.744H261.429L257.782 217ZM258.583 212.54H264.355V213.494H258.583V212.54ZM267.414 220.273V208.273H268.397V209.938H268.517C268.638 209.676 268.804 209.409 269.017 209.136C269.229 208.86 269.509 208.627 269.857 208.438C270.21 208.248 270.653 208.153 271.187 208.153C271.907 208.153 272.536 208.343 273.073 208.722C273.615 209.097 274.036 209.623 274.335 210.301C274.638 210.975 274.789 211.761 274.789 212.659C274.789 213.561 274.638 214.35 274.335 215.028C274.036 215.706 273.615 216.235 273.073 216.614C272.536 216.992 271.911 217.182 271.198 217.182C270.672 217.182 270.231 217.087 269.875 216.898C269.522 216.708 269.236 216.475 269.017 216.199C268.801 215.919 268.634 215.646 268.517 215.381H268.426V220.273H267.414ZM268.414 212.642C268.414 213.347 268.518 213.972 268.727 214.517C268.939 215.059 269.242 215.485 269.636 215.795C270.034 216.102 270.515 216.256 271.079 216.256C271.659 216.256 272.147 216.097 272.545 215.778C272.946 215.456 273.251 215.023 273.46 214.477C273.672 213.932 273.778 213.32 273.778 212.642C273.778 211.972 273.674 211.367 273.465 210.83C273.261 210.292 272.958 209.866 272.556 209.551C272.155 209.233 271.662 209.074 271.079 209.074C270.511 209.074 270.028 209.227 269.63 209.534C269.232 209.837 268.929 210.258 268.721 210.795C268.517 211.33 268.414 211.945 268.414 212.642ZM276.368 220.273V208.273H277.351V209.938H277.47C277.592 209.676 277.758 209.409 277.97 209.136C278.182 208.86 278.463 208.627 278.811 208.438C279.164 208.248 279.607 208.153 280.141 208.153C280.86 208.153 281.489 208.343 282.027 208.722C282.569 209.097 282.989 209.623 283.289 210.301C283.592 210.975 283.743 211.761 283.743 212.659C283.743 213.561 283.592 214.35 283.289 215.028C282.989 215.706 282.569 216.235 282.027 216.614C281.489 216.992 280.864 217.182 280.152 217.182C279.626 217.182 279.184 217.087 278.828 216.898C278.476 216.708 278.19 216.475 277.97 216.199C277.754 215.919 277.588 215.646 277.47 215.381H277.379V220.273H276.368ZM277.368 212.642C277.368 213.347 277.472 213.972 277.681 214.517C277.893 215.059 278.196 215.485 278.59 215.795C278.987 216.102 279.468 216.256 280.033 216.256C280.612 216.256 281.101 216.097 281.499 215.778C281.9 215.456 282.205 215.023 282.414 214.477C282.626 213.932 282.732 213.32 282.732 212.642C282.732 211.972 282.628 211.367 282.419 210.83C282.215 210.292 281.912 209.866 281.51 209.551C281.109 209.233 280.616 209.074 280.033 209.074C279.465 209.074 278.982 209.227 278.584 209.534C278.186 209.837 277.883 210.258 277.675 210.795C277.47 211.33 277.368 211.945 277.368 212.642ZM291.185 210.188L290.259 210.449C290.168 210.187 290.04 209.951 289.873 209.739C289.706 209.527 289.488 209.358 289.22 209.233C288.954 209.108 288.625 209.045 288.231 209.045C287.64 209.045 287.155 209.186 286.776 209.466C286.398 209.746 286.208 210.108 286.208 210.551C286.208 210.926 286.337 211.231 286.595 211.466C286.856 211.697 287.257 211.881 287.799 212.017L289.117 212.341C289.848 212.519 290.396 212.801 290.759 213.188C291.127 213.574 291.31 214.059 291.31 214.642C291.31 215.134 291.174 215.572 290.901 215.955C290.629 216.337 290.248 216.638 289.759 216.858C289.274 217.074 288.712 217.182 288.072 217.182C287.22 217.182 286.517 216.991 285.964 216.608C285.411 216.222 285.057 215.665 284.901 214.938L285.873 214.699C285.998 215.218 286.242 215.61 286.606 215.875C286.973 216.14 287.456 216.273 288.055 216.273C288.725 216.273 289.261 216.123 289.663 215.824C290.064 215.521 290.265 215.142 290.265 214.688C290.265 214.335 290.148 214.04 289.913 213.801C289.678 213.559 289.322 213.381 288.845 213.267L287.418 212.926C286.661 212.744 286.1 212.456 285.737 212.062C285.373 211.669 285.191 211.18 285.191 210.597C285.191 210.116 285.322 209.693 285.583 209.33C285.845 208.962 286.204 208.674 286.663 208.466C287.121 208.258 287.644 208.153 288.231 208.153C289.03 208.153 289.668 208.335 290.146 208.699C290.627 209.059 290.973 209.555 291.185 210.188ZM293.692 217.085C293.468 217.085 293.275 217.006 293.112 216.847C292.953 216.684 292.874 216.491 292.874 216.267C292.874 216.04 292.953 215.847 293.112 215.688C293.275 215.528 293.468 215.449 293.692 215.449C293.919 215.449 294.112 215.528 294.271 215.688C294.43 215.847 294.51 216.04 294.51 216.267C294.51 216.415 294.472 216.551 294.396 216.676C294.324 216.801 294.226 216.902 294.101 216.977C293.98 217.049 293.843 217.085 293.692 217.085Z" fill="url(#paint6_linear_11311_6382)"/>
<path opacity="0.3" d="M14 32L14 56.3431C14 59.9068 18.3086 61.6914 20.8284 59.1716L59.1716 20.8284C61.6914 18.3086 59.9068 14 56.3431 14L32 14C22.0589 14 14 22.0589 14 32Z" fill="url(#paint7_linear_11311_6382)"/>
</g>
<path d="M32 0.5H488C505.397 0.5 519.5 14.603 519.5 32V304C519.5 321.397 505.397 335.5 488 335.5H32C14.603 335.5 0.5 321.397 0.5 304V32C0.5 14.603 14.603 0.5 32 0.5Z" stroke="url(#paint8_linear_11311_6382)" stroke-opacity="0.15"/>
<defs>
<linearGradient id="paint0_linear_11311_6382" x1="260" y1="8" x2="260" y2="328" gradientUnits="userSpaceOnUse">
<stop stop-color="#181818"/>
<stop offset="1" stop-color="#181818" stop-opacity="0"/>
</linearGradient>
<linearGradient id="paint1_linear_11311_6382" x1="260" y1="8" x2="260" y2="328" gradientUnits="userSpaceOnUse">
<stop stop-color="white" stop-opacity="0"/>
<stop offset="1" stop-color="white"/>
</linearGradient>
<linearGradient id="paint2_linear_11311_6382" x1="229.868" y1="332.23" x2="224.862" y2="327.996" gradientUnits="userSpaceOnUse">
<stop stop-color="#151515" stop-opacity="0"/>
<stop offset="1" stop-color="#151515"/>
</linearGradient>
<linearGradient id="paint3_linear_11311_6382" x1="423.5" y1="375.5" x2="157.012" y2="164.272" gradientUnits="userSpaceOnUse">
<stop stop-color="#151515" stop-opacity="0"/>
<stop offset="1" stop-color="#151515"/>
</linearGradient>
<linearGradient id="paint4_linear_11311_6382" x1="260" y1="131.818" x2="260" y2="104.545" gradientUnits="userSpaceOnUse">
<stop stop-color="white"/>
<stop offset="1" stop-color="white" stop-opacity="0"/>
</linearGradient>
<linearGradient id="paint5_linear_11311_6382" x1="260" y1="174.295" x2="260" y2="124.864" gradientUnits="userSpaceOnUse">
<stop stop-color="white"/>
<stop offset="1" stop-color="white" stop-opacity="0"/>
</linearGradient>
<linearGradient id="paint6_linear_11311_6382" x1="260" y1="248.941" x2="260" y2="183" gradientUnits="userSpaceOnUse">
<stop stop-color="white" stop-opacity="0"/>
<stop offset="1" stop-color="white"/>
</linearGradient>
<linearGradient id="paint7_linear_11311_6382" x1="40" y1="14" x2="40" y2="66" gradientUnits="userSpaceOnUse">
<stop/>
<stop offset="1" stop-opacity="0"/>
</linearGradient>
<linearGradient id="paint8_linear_11311_6382" x1="394.848" y1="65.176" x2="347.68" y2="203.241" gradientUnits="userSpaceOnUse">
<stop stop-color="white"/>
<stop offset="1" stop-color="white" stop-opacity="0"/>
</linearGradient>
<clipPath id="clip0_11311_6382">
<path d="M8 32C8 18.7452 18.7452 8 32 8H488C501.255 8 512 18.7452 512 32V304C512 317.255 501.255 328 488 328H32C18.7452 328 8 317.255 8 304V32Z" fill="white"/>
</clipPath>
</defs>
</svg>
