<svg width="435" height="217" viewBox="0 0 435 217" fill="none" xmlns="http://www.w3.org/2000/svg">
<path fill-rule="evenodd" clip-rule="evenodd" d="M389.497 2.53813C394.832 0.290751 400.671 -0.484353 406.406 0.293479C412.142 1.07131 417.564 3.37365 422.109 6.96086C426.654 10.5481 430.155 15.289 432.248 20.6902C434.341 26.0914 434.95 31.9554 434.011 37.6719L385.05 334.926C380.301 363.599 348.87 380.043 322.598 365.76C300.622 353.811 267.981 335.401 238.623 316.192C223.943 306.577 178.976 275.786 184.503 253.876C189.252 235.143 264.808 164.746 307.983 122.892C324.929 106.449 317.201 96.9629 297.189 112.088C247.495 149.642 167.708 206.751 141.328 222.826C118.057 237.001 105.924 239.421 91.4177 237.001C64.9515 232.593 40.4066 225.765 20.3735 217.446C-6.69721 206.21 -5.38037 168.959 20.3519 158.112L389.497 2.53813Z" fill="white" fill-opacity="0.05"/>
<path fill-rule="evenodd" clip-rule="evenodd" d="M389.497 2.53813C394.832 0.290751 400.671 -0.484353 406.406 0.293479C412.142 1.07131 417.564 3.37365 422.109 6.96086C426.654 10.5481 430.155 15.289 432.248 20.6902C434.341 26.0914 434.95 31.9554 434.011 37.6719L385.05 334.926C380.301 363.599 348.87 380.043 322.598 365.76C300.622 353.811 267.981 335.401 238.623 316.192C223.943 306.577 178.976 275.786 184.503 253.876C189.252 235.143 264.808 164.746 307.983 122.892C324.929 106.449 317.201 96.9629 297.189 112.088C247.495 149.642 167.708 206.751 141.328 222.826C118.057 237.001 105.924 239.421 91.4177 237.001C64.9515 232.593 40.4066 225.765 20.3735 217.446C-6.69721 206.21 -5.38037 168.959 20.3519 158.112L389.497 2.53813Z" fill="url(#paint0_linear_11478_7)"/>
<defs>
<linearGradient id="paint0_linear_11478_7" x1="387.499" y1="264.5" x2="121.011" y2="53.2722" gradientUnits="userSpaceOnUse">
<stop stop-color="#151515" stop-opacity="0"/>
<stop offset="1" stop-color="#151515"/>
</linearGradient>
</defs>
</svg>
