<svg width="72" height="72" viewBox="0 0 72 72" fill="none" xmlns="http://www.w3.org/2000/svg">
<g filter="url(#filter0_di_11508_6028)">
<path d="M4 30.9091C4 18.224 4 11.8815 7.94075 7.94075C11.8815 4 18.224 4 30.9091 4H41.0909C53.776 4 60.1185 4 64.0593 7.94075C68 11.8815 68 18.224 68 30.9091V41.0909C68 53.776 68 60.1185 64.0593 64.0593C60.1185 68 53.776 68 41.0909 68H30.9091C18.224 68 11.8815 68 7.94075 64.0593C4 60.1185 4 53.776 4 41.0909V30.9091Z" fill="#91FD4F"/>
<path d="M4 30.9091C4 18.224 4 11.8815 7.94075 7.94075C11.8815 4 18.224 4 30.9091 4H41.0909C53.776 4 60.1185 4 64.0593 7.94075C68 11.8815 68 18.224 68 30.9091V41.0909C68 53.776 68 60.1185 64.0593 64.0593C60.1185 68 53.776 68 41.0909 68H30.9091C18.224 68 11.8815 68 7.94075 64.0593C4 60.1185 4 53.776 4 41.0909V30.9091Z" fill="url(#paint0_linear_11508_6028)" fill-opacity="0.15"/>
<path d="M30.9092 4.56055H41.0908C47.4491 4.56055 52.1615 4.56148 55.7793 5.04785C59.1561 5.50184 61.5057 6.37063 63.3096 8.00098L63.6631 8.33691C65.5119 10.1858 66.4679 12.619 66.9521 16.2207C67.4385 19.8385 67.4395 24.5509 67.4395 30.9092V41.0908C67.4395 47.4491 67.4385 52.1615 66.9521 55.7793C66.4982 59.1561 65.6294 61.5057 63.999 63.3096L63.6631 63.6631C61.8142 65.5119 59.381 66.4679 55.7793 66.9521C52.1615 67.4385 47.4491 67.4395 41.0908 67.4395H30.9092C24.5509 67.4395 19.8385 67.4385 16.2207 66.9521C12.8439 66.4982 10.4943 65.6294 8.69043 63.999L8.33691 63.6631C6.48806 61.8142 5.53209 59.381 5.04785 55.7793C4.56148 52.1615 4.56055 47.4491 4.56055 41.0908V30.9092C4.56055 24.5509 4.56148 19.8385 5.04785 16.2207C5.53209 12.619 6.48806 10.1858 8.33691 8.33691C10.1858 6.48806 12.619 5.53209 16.2207 5.04785C19.8385 4.56148 24.5509 4.56055 30.9092 4.56055Z" stroke="url(#paint1_linear_11508_6028)" stroke-opacity="0.34" stroke-width="1.12121"/>
</g>
<path d="M44.2991 37.0156L33.7991 48.2656C33.6878 48.3844 33.541 48.4637 33.3807 48.4917C33.2203 48.5196 33.0553 48.4947 32.9104 48.4206C32.7655 48.3465 32.6486 48.2273 32.5774 48.0809C32.5062 47.9346 32.4846 47.7691 32.5157 47.6094L33.8901 40.7347L28.4872 38.7059C28.3712 38.6625 28.2677 38.5911 28.1861 38.4979C28.1044 38.4048 28.0471 38.2928 28.0192 38.1721C27.9913 38.0514 27.9938 37.9257 28.0264 37.8061C28.059 37.6866 28.1207 37.577 28.206 37.4872L38.706 26.2372C38.8173 26.1184 38.9641 26.0391 39.1244 26.0111C39.2848 25.9832 39.4498 26.0081 39.5947 26.0822C39.7396 26.1563 39.8565 26.2755 39.9277 26.4219C39.9989 26.5682 40.0205 26.7337 39.9894 26.8934L38.6113 33.7756L44.0141 35.8016C44.1293 35.8453 44.2319 35.9166 44.313 36.0094C44.394 36.1022 44.4509 36.2135 44.4787 36.3335C44.5065 36.4535 44.5044 36.5785 44.4724 36.6975C44.4404 36.8165 44.3796 36.9257 44.2954 37.0156H44.2991Z" fill="black"/>
<defs>
<filter id="filter0_di_11508_6028" x="0.636364" y="0.636364" width="70.7273" height="70.7273" filterUnits="userSpaceOnUse" color-interpolation-filters="sRGB">
<feFlood flood-opacity="0" result="BackgroundImageFix"/>
<feColorMatrix in="SourceAlpha" type="matrix" values="0 0 0 0 0 0 0 0 0 0 0 0 0 0 0 0 0 0 127 0" result="hardAlpha"/>
<feMorphology radius="3.36364" operator="dilate" in="SourceAlpha" result="effect1_dropShadow_11508_6028"/>
<feOffset/>
<feComposite in2="hardAlpha" operator="out"/>
<feColorMatrix type="matrix" values="0 0 0 0 0 0 0 0 0 0 0 0 0 0 0 0 0 0 0.1 0"/>
<feBlend mode="normal" in2="BackgroundImageFix" result="effect1_dropShadow_11508_6028"/>
<feBlend mode="normal" in="SourceGraphic" in2="effect1_dropShadow_11508_6028" result="shape"/>
<feColorMatrix in="SourceAlpha" type="matrix" values="0 0 0 0 0 0 0 0 0 0 0 0 0 0 0 0 0 0 127 0" result="hardAlpha"/>
<feOffset dy="3.36364"/>
<feGaussianBlur stdDeviation="2.57879"/>
<feComposite in2="hardAlpha" operator="arithmetic" k2="-1" k3="1"/>
<feColorMatrix type="matrix" values="0 0 0 0 0 0 0 0 0 0 0 0 0 0 0 0 0 0 0.25 0"/>
<feBlend mode="normal" in2="shape" result="effect2_innerShadow_11508_6028"/>
</filter>
<linearGradient id="paint0_linear_11508_6028" x1="36" y1="4" x2="36" y2="68" gradientUnits="userSpaceOnUse">
<stop stop-color="#7ED549"/>
<stop offset="1" stop-color="white" stop-opacity="0"/>
</linearGradient>
<linearGradient id="paint1_linear_11508_6028" x1="36" y1="4" x2="36" y2="68" gradientUnits="userSpaceOnUse">
<stop stop-color="#8EFE49"/>
<stop offset="1" stop-color="#8EFE49" stop-opacity="0"/>
</linearGradient>
</defs>
</svg>
