<svg width="304" height="149" viewBox="0 0 304 149" fill="none" xmlns="http://www.w3.org/2000/svg">
<path d="M279 75.8726V55.7143C279 52.2548 279 50.525 278.474 49.147C277.662 47.0191 275.981 45.3383 273.853 44.526C272.475 44 270.745 44 267.286 44C258.637 44 254.313 44 250.868 42.685C245.548 40.6543 241.346 36.4523 239.315 31.1324C238 27.6874 238 23.3631 238 14.7143V12.5714C238 8.3065 238 6.17406 237.208 4.52893C236.421 2.89607 235.104 1.5786 233.471 0.792252C231.826 0 229.693 0 225.429 0H165.627C162.357 0 160.722 0 159.252 0.608963C157.782 1.21793 156.626 2.37405 154.314 4.68629L110.686 48.3137C108.374 50.626 107.218 51.7821 105.748 52.391C104.278 53 102.643 53 99.3726 53H6C-1.54248 53 -5.31372 53 -7.65686 55.3431C-10 57.6863 -10 61.4575 -10 69V159H288C295.542 159 299.314 159 301.657 156.657C304 154.314 304 150.542 304 143V114.127C304 110.857 304 109.222 303.391 107.752C302.782 106.282 301.626 105.126 299.314 102.814L283.686 87.1863C281.374 84.874 280.218 83.7179 279.609 82.2478C279 80.7776 279 79.1426 279 75.8726Z" fill="white" fill-opacity="0.05"/>
<path d="M279 75.8726V55.7143C279 52.2548 279 50.525 278.474 49.147C277.662 47.0191 275.981 45.3383 273.853 44.526C272.475 44 270.745 44 267.286 44C258.637 44 254.313 44 250.868 42.685C245.548 40.6543 241.346 36.4523 239.315 31.1324C238 27.6874 238 23.3631 238 14.7143V12.5714C238 8.3065 238 6.17406 237.208 4.52893C236.421 2.89607 235.104 1.5786 233.471 0.792252C231.826 0 229.693 0 225.429 0H165.627C162.357 0 160.722 0 159.252 0.608963C157.782 1.21793 156.626 2.37405 154.314 4.68629L110.686 48.3137C108.374 50.626 107.218 51.7821 105.748 52.391C104.278 53 102.643 53 99.3726 53H6C-1.54248 53 -5.31372 53 -7.65686 55.3431C-10 57.6863 -10 61.4575 -10 69V159H288C295.542 159 299.314 159 301.657 156.657C304 154.314 304 150.542 304 143V114.127C304 110.857 304 109.222 303.391 107.752C302.782 106.282 301.626 105.126 299.314 102.814L283.686 87.1863C281.374 84.874 280.218 83.7179 279.609 82.2478C279 80.7776 279 79.1426 279 75.8726Z" fill="url(#paint0_linear_258_89)"/>
<rect x="232" y="10" width="4" height="4" rx="2" transform="rotate(180 232 10)" fill="#393939"/>
<defs>
<linearGradient id="paint0_linear_258_89" x1="-10" y1="-4.73857e-06" x2="224.238" y2="237.625" gradientUnits="userSpaceOnUse">
<stop stop-color="#181818" stop-opacity="0"/>
<stop offset="1" stop-color="#181818"/>
</linearGradient>
</defs>
</svg>
