<svg width="520" height="336" viewBox="0 0 520 336" fill="none" xmlns="http://www.w3.org/2000/svg">
<g clip-path="url(#clip0_11504_5221)">
<path d="M32 8H488C501.255 8 512 18.7452 512 32V279.559C512 285.924 509.471 292.029 504.971 296.529L480.529 320.971C476.029 325.471 469.924 328 463.559 328H32C18.7452 328 8 317.255 8 304V32C8 18.7452 18.7452 8 32 8Z" fill="url(#paint0_linear_11504_5221)"/>
<path d="M488 8.5H32C19.0213 8.5 8.5 19.0213 8.5 32V304C8.5 316.979 19.0213 327.5 32 327.5H463.559C469.596 327.5 475.395 325.176 479.758 321.024L480.176 320.617L504.617 296.176C509.024 291.769 511.5 285.791 511.5 279.559V32C511.5 19.0213 500.979 8.5 488 8.5Z" stroke="url(#paint1_linear_11504_5221)" stroke-opacity="0.1"/>
<path fill-rule="evenodd" clip-rule="evenodd" d="M227.521 328.494L227.408 328.515L226.679 328.874L226.473 328.916L226.329 328.874L225.6 328.515C225.491 328.481 225.409 328.498 225.354 328.566L225.313 328.669L225.138 333.065L225.189 333.27L225.292 333.404L226.36 334.164L226.514 334.205L226.638 334.164L227.706 333.404L227.829 333.239L227.87 333.065L227.695 328.679C227.668 328.57 227.61 328.508 227.521 328.494ZM230.243 327.334L230.109 327.354L228.209 328.31L228.106 328.412L228.075 328.525L228.26 332.942L228.312 333.065L228.394 333.137L230.458 334.092C230.588 334.126 230.688 334.099 230.756 334.01L230.797 333.866L230.448 327.56C230.414 327.437 230.345 327.361 230.243 327.334ZM222.899 327.354C222.854 327.327 222.8 327.318 222.748 327.33C222.696 327.341 222.651 327.372 222.622 327.416L222.56 327.56L222.211 333.866C222.218 333.989 222.276 334.071 222.386 334.112L222.54 334.092L224.604 333.137L224.707 333.055L224.748 332.942L224.922 328.525L224.892 328.402L224.789 328.299L222.899 327.354Z" fill="white" fill-opacity="0.05"/>
<path fill-rule="evenodd" clip-rule="evenodd" d="M227.521 328.494L227.408 328.515L226.679 328.874L226.473 328.916L226.329 328.874L225.6 328.515C225.491 328.481 225.409 328.498 225.354 328.566L225.313 328.669L225.138 333.065L225.189 333.27L225.292 333.404L226.36 334.164L226.514 334.205L226.638 334.164L227.706 333.404L227.829 333.239L227.87 333.065L227.695 328.679C227.668 328.57 227.61 328.508 227.521 328.494ZM230.243 327.334L230.109 327.354L228.209 328.31L228.106 328.412L228.075 328.525L228.26 332.942L228.312 333.065L228.394 333.137L230.458 334.092C230.588 334.126 230.688 334.099 230.756 334.01L230.797 333.866L230.448 327.56C230.414 327.437 230.345 327.361 230.243 327.334ZM222.899 327.354C222.854 327.327 222.8 327.318 222.748 327.33C222.696 327.341 222.651 327.372 222.622 327.416L222.56 327.56L222.211 333.866C222.218 333.989 222.276 334.071 222.386 334.112L222.54 334.092L224.604 333.137L224.707 333.055L224.748 332.942L224.922 328.525L224.892 328.402L224.789 328.299L222.899 327.354Z" fill="url(#paint2_linear_11504_5221)"/>
</g>
<path d="M32 0.5H488C505.397 0.5 519.5 14.603 519.5 32V304C519.5 321.397 505.397 335.5 488 335.5H32C14.603 335.5 0.5 321.397 0.5 304V32C0.5 14.603 14.603 0.5 32 0.5Z" stroke="url(#paint3_linear_11504_5221)" stroke-opacity="0.15"/>
<defs>
<linearGradient id="paint0_linear_11504_5221" x1="260" y1="8" x2="260" y2="328" gradientUnits="userSpaceOnUse">
<stop stop-color="#181818"/>
<stop offset="1" stop-color="#181818" stop-opacity="0"/>
</linearGradient>
<linearGradient id="paint1_linear_11504_5221" x1="260" y1="8" x2="260" y2="328" gradientUnits="userSpaceOnUse">
<stop stop-color="white" stop-opacity="0"/>
<stop offset="1" stop-color="white"/>
</linearGradient>
<linearGradient id="paint2_linear_11504_5221" x1="229.868" y1="332.23" x2="224.862" y2="327.996" gradientUnits="userSpaceOnUse">
<stop stop-color="#151515" stop-opacity="0"/>
<stop offset="1" stop-color="#151515"/>
</linearGradient>
<linearGradient id="paint3_linear_11504_5221" x1="394.848" y1="65.176" x2="347.68" y2="203.241" gradientUnits="userSpaceOnUse">
<stop stop-color="white"/>
<stop offset="1" stop-color="white" stop-opacity="0"/>
</linearGradient>
<clipPath id="clip0_11504_5221">
<path d="M8 32C8 18.7452 18.7452 8 32 8H488C501.255 8 512 18.7452 512 32V304C512 317.255 501.255 328 488 328H32C18.7452 328 8 317.255 8 304V32Z" fill="white"/>
</clipPath>
</defs>
</svg>
