<svg width="422" height="320" viewBox="0 0 422 320" fill="none" xmlns="http://www.w3.org/2000/svg">
<g clip-path="url(#clip0_11489_7874)">
<rect width="422" height="320" rx="24" fill="url(#paint0_linear_11489_7874)"/>
<g opacity="0.56">
<circle cx="1.55977" cy="1.55977" r="1.55977" transform="matrix(-1 0 0 1 409.918 95.613)" fill="white" fill-opacity="0.07"/>
<circle cx="1.55977" cy="1.55977" r="1.55977" transform="matrix(-1 0 0 1 394.324 95.613)" fill="white" fill-opacity="0.07"/>
<circle cx="1.55977" cy="1.55977" r="1.55977" transform="matrix(-1 0 0 1 347.527 95.613)" fill="white" fill-opacity="0.07"/>
<circle cx="1.55977" cy="1.55977" r="1.55977" transform="matrix(-1 0 0 1 378.727 95.613)" fill="white" fill-opacity="0.07"/>
<circle cx="1.55977" cy="1.55977" r="1.55977" transform="matrix(-1 0 0 1 331.93 95.613)" fill="white" fill-opacity="0.07"/>
<circle cx="1.55977" cy="1.55977" r="1.55977" transform="matrix(-1 0 0 1 363.125 95.613)" fill="white" fill-opacity="0.07"/>
<circle cx="1.55977" cy="1.55977" r="1.55977" transform="matrix(-1 0 0 1 316.332 95.613)" fill="white" fill-opacity="0.07"/>
<circle cx="1.55977" cy="1.55977" r="1.55977" transform="matrix(-1 0 0 1 409.918 137.726)" fill="white" fill-opacity="0.07"/>
<circle cx="1.55977" cy="1.55977" r="1.55977" transform="matrix(-1 0 0 1 394.324 137.726)" fill="white" fill-opacity="0.07"/>
<circle cx="1.55977" cy="1.55977" r="1.55977" transform="matrix(-1 0 0 1 347.527 137.726)" fill="white" fill-opacity="0.07"/>
<circle cx="1.55977" cy="1.55977" r="1.55977" transform="matrix(-1 0 0 1 378.727 137.726)" fill="white" fill-opacity="0.07"/>
<circle cx="1.55977" cy="1.55977" r="1.55977" transform="matrix(-1 0 0 1 331.93 137.726)" fill="white" fill-opacity="0.07"/>
<circle cx="1.55977" cy="1.55977" r="1.55977" transform="matrix(-1 0 0 1 363.125 137.726)" fill="white" fill-opacity="0.07"/>
<circle cx="1.55977" cy="1.55977" r="1.55977" transform="matrix(-1 0 0 1 316.332 137.726)" fill="white" fill-opacity="0.07"/>
<circle cx="1.55977" cy="1.55977" r="1.55977" transform="matrix(-1 0 0 1 409.918 109.651)" fill="white" fill-opacity="0.07"/>
<circle cx="1.55977" cy="1.55977" r="1.55977" transform="matrix(-1 0 0 1 394.324 109.651)" fill="white" fill-opacity="0.07"/>
<circle cx="1.55977" cy="1.55977" r="1.55977" transform="matrix(-1 0 0 1 347.527 109.651)" fill="white" fill-opacity="0.07"/>
<circle cx="1.55977" cy="1.55977" r="1.55977" transform="matrix(-1 0 0 1 378.727 109.651)" fill="white" fill-opacity="0.07"/>
<circle cx="1.55977" cy="1.55977" r="1.55977" transform="matrix(-1 0 0 1 331.93 109.651)" fill="white" fill-opacity="0.07"/>
<circle cx="1.55977" cy="1.55977" r="1.55977" transform="matrix(-1 0 0 1 363.125 109.651)" fill="white" fill-opacity="0.07"/>
<circle cx="1.55977" cy="1.55977" r="1.55977" transform="matrix(-1 0 0 1 316.332 109.651)" fill="white" fill-opacity="0.07"/>
<circle cx="1.55977" cy="1.55977" r="1.55977" transform="matrix(-1 0 0 1 409.918 151.764)" fill="white" fill-opacity="0.07"/>
<circle cx="1.55977" cy="1.55977" r="1.55977" transform="matrix(-1 0 0 1 394.324 151.764)" fill="white" fill-opacity="0.07"/>
<circle cx="1.55977" cy="1.55977" r="1.55977" transform="matrix(-1 0 0 1 347.527 151.764)" fill="white" fill-opacity="0.07"/>
<circle cx="1.55977" cy="1.55977" r="1.55977" transform="matrix(-1 0 0 1 378.727 151.764)" fill="white" fill-opacity="0.07"/>
<circle cx="1.55977" cy="1.55977" r="1.55977" transform="matrix(-1 0 0 1 331.93 151.764)" fill="white" fill-opacity="0.07"/>
<circle cx="1.55977" cy="1.55977" r="1.55977" transform="matrix(-1 0 0 1 363.125 151.764)" fill="white" fill-opacity="0.07"/>
<circle cx="1.55977" cy="1.55977" r="1.55977" transform="matrix(-1 0 0 1 316.332 151.764)" fill="white" fill-opacity="0.07"/>
<circle cx="1.55977" cy="1.55977" r="1.55977" transform="matrix(-1 0 0 1 409.918 81.5754)" fill="white" fill-opacity="0.07"/>
<circle cx="1.55977" cy="1.55977" r="1.55977" transform="matrix(-1 0 0 1 394.324 81.5754)" fill="white" fill-opacity="0.07"/>
<circle cx="1.55977" cy="1.55977" r="1.55977" transform="matrix(-1 0 0 1 347.527 81.5754)" fill="white" fill-opacity="0.07"/>
<circle cx="1.55977" cy="1.55977" r="1.55977" transform="matrix(-1 0 0 1 378.727 81.5754)" fill="white" fill-opacity="0.07"/>
<circle cx="1.55977" cy="1.55977" r="1.55977" transform="matrix(-1 0 0 1 331.93 81.5754)" fill="white" fill-opacity="0.07"/>
<circle cx="1.55977" cy="1.55977" r="1.55977" transform="matrix(-1 0 0 1 363.125 81.5754)" fill="white" fill-opacity="0.07"/>
<circle cx="1.55977" cy="1.55977" r="1.55977" transform="matrix(-1 0 0 1 316.332 81.5754)" fill="white" fill-opacity="0.07"/>
<circle cx="1.55977" cy="1.55977" r="1.55977" transform="matrix(-1 0 0 1 409.918 123.688)" fill="white" fill-opacity="0.07"/>
<circle cx="1.55977" cy="1.55977" r="1.55977" transform="matrix(-1 0 0 1 394.324 123.688)" fill="white" fill-opacity="0.07"/>
<circle cx="1.55977" cy="1.55977" r="1.55977" transform="matrix(-1 0 0 1 347.527 123.688)" fill="white" fill-opacity="0.07"/>
<circle cx="1.55977" cy="1.55977" r="1.55977" transform="matrix(-1 0 0 1 378.727 123.688)" fill="white" fill-opacity="0.07"/>
<circle cx="1.55977" cy="1.55977" r="1.55977" transform="matrix(-1 0 0 1 331.93 123.688)" fill="white" fill-opacity="0.07"/>
<circle cx="1.55977" cy="1.55977" r="1.55977" transform="matrix(-1 0 0 1 363.125 123.688)" fill="white" fill-opacity="0.07"/>
<circle cx="1.55977" cy="1.55977" r="1.55977" transform="matrix(-1 0 0 1 316.332 123.688)" fill="white" fill-opacity="0.07"/>
<circle cx="1.55977" cy="1.55977" r="1.55977" transform="matrix(-1 0 0 1 409.918 9.8252)" fill="white" fill-opacity="0.07"/>
<circle cx="1.55977" cy="1.55977" r="1.55977" transform="matrix(-1 0 0 1 394.324 9.82544)" fill="white" fill-opacity="0.07"/>
<circle cx="1.55977" cy="1.55977" r="1.55977" transform="matrix(-1 0 0 1 347.527 9.8252)" fill="white" fill-opacity="0.07"/>
<circle cx="1.55977" cy="1.55977" r="1.55977" transform="matrix(-1 0 0 1 378.727 9.82544)" fill="white" fill-opacity="0.07"/>
<circle cx="1.55977" cy="1.55977" r="1.55977" transform="matrix(-1 0 0 1 331.93 9.8252)" fill="white" fill-opacity="0.07"/>
<circle cx="1.55977" cy="1.55977" r="1.55977" transform="matrix(-1 0 0 1 363.125 9.82544)" fill="white" fill-opacity="0.07"/>
<circle cx="1.55977" cy="1.55977" r="1.55977" transform="matrix(-1 0 0 1 316.332 9.82544)" fill="white" fill-opacity="0.07"/>
<circle cx="1.55977" cy="1.55977" r="1.55977" transform="matrix(-1 0 0 1 409.918 51.9402)" fill="white" fill-opacity="0.07"/>
<circle cx="1.55977" cy="1.55977" r="1.55977" transform="matrix(-1 0 0 1 394.324 51.9402)" fill="white" fill-opacity="0.07"/>
<circle cx="1.55977" cy="1.55977" r="1.55977" transform="matrix(-1 0 0 1 347.527 51.9402)" fill="white" fill-opacity="0.07"/>
<circle cx="1.55977" cy="1.55977" r="1.55977" transform="matrix(-1 0 0 1 378.727 51.9402)" fill="white" fill-opacity="0.07"/>
<circle cx="1.55977" cy="1.55977" r="1.55977" transform="matrix(-1 0 0 1 331.93 51.9402)" fill="white" fill-opacity="0.07"/>
<circle cx="1.55977" cy="1.55977" r="1.55977" transform="matrix(-1 0 0 1 363.125 51.9402)" fill="white" fill-opacity="0.07"/>
<circle cx="1.55977" cy="1.55977" r="1.55977" transform="matrix(-1 0 0 1 316.332 51.9402)" fill="white" fill-opacity="0.07"/>
<circle cx="1.55977" cy="1.55977" r="1.55977" transform="matrix(-1 0 0 1 409.918 23.8638)" fill="white" fill-opacity="0.07"/>
<circle cx="1.55977" cy="1.55977" r="1.55977" transform="matrix(-1 0 0 1 394.324 23.864)" fill="white" fill-opacity="0.07"/>
<circle cx="1.55977" cy="1.55977" r="1.55977" transform="matrix(-1 0 0 1 347.527 23.8638)" fill="white" fill-opacity="0.07"/>
<circle cx="1.55977" cy="1.55977" r="1.55977" transform="matrix(-1 0 0 1 378.727 23.864)" fill="white" fill-opacity="0.07"/>
<circle cx="1.55977" cy="1.55977" r="1.55977" transform="matrix(-1 0 0 1 331.93 23.8638)" fill="white" fill-opacity="0.07"/>
<circle cx="1.55977" cy="1.55977" r="1.55977" transform="matrix(-1 0 0 1 363.125 23.864)" fill="white" fill-opacity="0.4"/>
<circle cx="1.55977" cy="1.55977" r="1.55977" transform="matrix(-1 0 0 1 316.332 23.864)" fill="white" fill-opacity="0.07"/>
<circle cx="1.55977" cy="1.55977" r="1.55977" transform="matrix(-1 0 0 1 409.918 65.9771)" fill="white" fill-opacity="0.07"/>
<circle cx="1.55977" cy="1.55977" r="1.55977" transform="matrix(-1 0 0 1 394.324 65.9771)" fill="white" fill-opacity="0.07"/>
<circle cx="1.55977" cy="1.55977" r="1.55977" transform="matrix(-1 0 0 1 347.527 65.9771)" fill="white" fill-opacity="0.07"/>
<circle cx="1.55977" cy="1.55977" r="1.55977" transform="matrix(-1 0 0 1 378.727 65.9771)" fill="white" fill-opacity="0.07"/>
<circle cx="1.55977" cy="1.55977" r="1.55977" transform="matrix(-1 0 0 1 331.93 65.9771)" fill="white" fill-opacity="0.07"/>
<circle cx="1.55977" cy="1.55977" r="1.55977" transform="matrix(-1 0 0 1 363.125 65.9771)" fill="white" fill-opacity="0.07"/>
<circle cx="1.55977" cy="1.55977" r="1.55977" transform="matrix(-1 0 0 1 316.332 65.9771)" fill="white" fill-opacity="0.07"/>
<circle cx="1.55977" cy="1.55977" r="1.55977" transform="matrix(-1 0 0 1 409.918 37.9016)" fill="white" fill-opacity="0.07"/>
<circle cx="1.55977" cy="1.55977" r="1.55977" transform="matrix(-1 0 0 1 394.324 37.9016)" fill="white" fill-opacity="0.07"/>
<circle cx="1.55977" cy="1.55977" r="1.55977" transform="matrix(-1 0 0 1 347.527 37.9016)" fill="white" fill-opacity="0.07"/>
<circle cx="1.55977" cy="1.55977" r="1.55977" transform="matrix(-1 0 0 1 378.727 37.9016)" fill="white" fill-opacity="0.07"/>
<circle cx="1.55977" cy="1.55977" r="1.55977" transform="matrix(-1 0 0 1 331.93 37.9016)" fill="white" fill-opacity="0.07"/>
<circle cx="1.55977" cy="1.55977" r="1.55977" transform="matrix(-1 0 0 1 363.125 37.9016)" fill="white" fill-opacity="0.07"/>
<circle cx="1.55977" cy="1.55977" r="1.55977" transform="matrix(-1 0 0 1 316.332 37.9016)" fill="white" fill-opacity="0.07"/>
<circle cx="1.55977" cy="1.55977" r="1.55977" transform="matrix(-1 0 0 1 409.918 181.401)" fill="white" fill-opacity="0.07"/>
<circle cx="1.55977" cy="1.55977" r="1.55977" transform="matrix(-1 0 0 1 394.324 181.401)" fill="white" fill-opacity="0.07"/>
<circle cx="1.55977" cy="1.55977" r="1.55977" transform="matrix(-1 0 0 1 347.527 181.401)" fill="white" fill-opacity="0.07"/>
<circle cx="1.55977" cy="1.55977" r="1.55977" transform="matrix(-1 0 0 1 378.727 181.401)" fill="white" fill-opacity="0.07"/>
<circle cx="1.55977" cy="1.55977" r="1.55977" transform="matrix(-1 0 0 1 331.93 181.401)" fill="white" fill-opacity="0.07"/>
<circle cx="1.55977" cy="1.55977" r="1.55977" transform="matrix(-1 0 0 1 363.125 181.401)" fill="white" fill-opacity="0.07"/>
<circle cx="1.55977" cy="1.55977" r="1.55977" transform="matrix(-1 0 0 1 316.332 181.401)" fill="white" fill-opacity="0.07"/>
<circle cx="1.55977" cy="1.55977" r="1.55977" transform="matrix(-1 0 0 1 409.918 223.515)" fill="white" fill-opacity="0.07"/>
<circle cx="1.55977" cy="1.55977" r="1.55977" transform="matrix(-1 0 0 1 394.324 223.515)" fill="white" fill-opacity="0.07"/>
<circle cx="1.55977" cy="1.55977" r="1.55977" transform="matrix(-1 0 0 1 347.527 223.515)" fill="white" fill-opacity="0.07"/>
<circle cx="1.55977" cy="1.55977" r="1.55977" transform="matrix(-1 0 0 1 378.727 223.515)" fill="white" fill-opacity="0.07"/>
<circle cx="1.55977" cy="1.55977" r="1.55977" transform="matrix(-1 0 0 1 331.93 223.515)" fill="white" fill-opacity="0.07"/>
<circle cx="1.55977" cy="1.55977" r="1.55977" transform="matrix(-1 0 0 1 363.125 223.515)" fill="white" fill-opacity="0.07"/>
<circle cx="1.55977" cy="1.55977" r="1.55977" transform="matrix(-1 0 0 1 316.332 223.515)" fill="white" fill-opacity="0.07"/>
<circle cx="1.55977" cy="1.55977" r="1.55977" transform="matrix(-1 0 0 1 409.918 195.437)" fill="white" fill-opacity="0.07"/>
<circle cx="1.55977" cy="1.55977" r="1.55977" transform="matrix(-1 0 0 1 394.324 195.437)" fill="white" fill-opacity="0.07"/>
<circle cx="1.55977" cy="1.55977" r="1.55977" transform="matrix(-1 0 0 1 347.527 195.437)" fill="white" fill-opacity="0.07"/>
<circle cx="1.55977" cy="1.55977" r="1.55977" transform="matrix(-1 0 0 1 378.727 195.437)" fill="white" fill-opacity="0.07"/>
<circle cx="1.55977" cy="1.55977" r="1.55977" transform="matrix(-1 0 0 1 331.93 195.437)" fill="white" fill-opacity="0.07"/>
<circle cx="1.55977" cy="1.55977" r="1.55977" transform="matrix(-1 0 0 1 363.125 195.437)" fill="white" fill-opacity="0.07"/>
<circle cx="1.55977" cy="1.55977" r="1.55977" transform="matrix(-1 0 0 1 316.332 195.437)" fill="white" fill-opacity="0.07"/>
<circle cx="1.55977" cy="1.55977" r="1.55977" transform="matrix(-1 0 0 1 409.918 237.552)" fill="white" fill-opacity="0.07"/>
<circle cx="1.55977" cy="1.55977" r="1.55977" transform="matrix(-1 0 0 1 394.324 237.552)" fill="white" fill-opacity="0.07"/>
<circle cx="1.55977" cy="1.55977" r="1.55977" transform="matrix(-1 0 0 1 347.527 237.552)" fill="white" fill-opacity="0.07"/>
<circle cx="1.55977" cy="1.55977" r="1.55977" transform="matrix(-1 0 0 1 378.727 237.552)" fill="white" fill-opacity="0.07"/>
<circle cx="1.55977" cy="1.55977" r="1.55977" transform="matrix(-1 0 0 1 331.93 237.552)" fill="white" fill-opacity="0.07"/>
<circle cx="1.55977" cy="1.55977" r="1.55977" transform="matrix(-1 0 0 1 363.125 237.552)" fill="white" fill-opacity="0.07"/>
<circle cx="1.55977" cy="1.55977" r="1.55977" transform="matrix(-1 0 0 1 316.332 237.552)" fill="white" fill-opacity="0.07"/>
<circle cx="1.55977" cy="1.55977" r="1.55977" transform="matrix(-1 0 0 1 409.918 167.362)" fill="white" fill-opacity="0.07"/>
<circle cx="1.55977" cy="1.55977" r="1.55977" transform="matrix(-1 0 0 1 394.324 167.362)" fill="white" fill-opacity="0.07"/>
<circle cx="1.55977" cy="1.55977" r="1.55977" transform="matrix(-1 0 0 1 347.527 167.362)" fill="white" fill-opacity="0.07"/>
<circle cx="1.55977" cy="1.55977" r="1.55977" transform="matrix(-1 0 0 1 378.727 167.362)" fill="white" fill-opacity="0.07"/>
<circle cx="1.55977" cy="1.55977" r="1.55977" transform="matrix(-1 0 0 1 331.93 167.362)" fill="white" fill-opacity="0.07"/>
<circle cx="1.55977" cy="1.55977" r="1.55977" transform="matrix(-1 0 0 1 363.125 167.362)" fill="white" fill-opacity="0.07"/>
<circle cx="1.55977" cy="1.55977" r="1.55977" transform="matrix(-1 0 0 1 316.332 167.362)" fill="white" fill-opacity="0.07"/>
<circle cx="1.55977" cy="1.55977" r="1.55977" transform="matrix(-1 0 0 1 409.918 209.477)" fill="white" fill-opacity="0.07"/>
<circle cx="1.55977" cy="1.55977" r="1.55977" transform="matrix(-1 0 0 1 394.324 209.477)" fill="white" fill-opacity="0.07"/>
<circle cx="1.55977" cy="1.55977" r="1.55977" transform="matrix(-1 0 0 1 347.527 209.477)" fill="white" fill-opacity="0.07"/>
<circle cx="1.55977" cy="1.55977" r="1.55977" transform="matrix(-1 0 0 1 378.727 209.477)" fill="white" fill-opacity="0.07"/>
<circle cx="1.55977" cy="1.55977" r="1.55977" transform="matrix(-1 0 0 1 331.93 209.477)" fill="white" fill-opacity="0.07"/>
<circle cx="1.55977" cy="1.55977" r="1.55977" transform="matrix(-1 0 0 1 363.125 209.477)" fill="white" fill-opacity="0.07"/>
<circle cx="1.55977" cy="1.55977" r="1.55977" transform="matrix(-1 0 0 1 316.332 209.477)" fill="white" fill-opacity="0.07"/>
<circle cx="1.55977" cy="1.55977" r="1.55977" transform="matrix(-1 0 0 1 300.738 95.613)" fill="white" fill-opacity="0.07"/>
<circle cx="1.55977" cy="1.55977" r="1.55977" transform="matrix(-1 0 0 1 253.945 95.613)" fill="white" fill-opacity="0.07"/>
<circle cx="1.55977" cy="1.55977" r="1.55977" transform="matrix(-1 0 0 1 285.141 95.613)" fill="white" fill-opacity="0.07"/>
<circle cx="1.55977" cy="1.55977" r="1.55977" transform="matrix(-1 0 0 1 238.344 95.613)" fill="white" fill-opacity="0.07"/>
<circle cx="1.55977" cy="1.55977" r="1.55977" transform="matrix(-1 0 0 1 269.543 95.613)" fill="white" fill-opacity="0.07"/>
<circle cx="1.55977" cy="1.55977" r="1.55977" transform="matrix(-1 0 0 1 222.746 95.613)" fill="white" fill-opacity="0.07"/>
<circle cx="1.55977" cy="1.55977" r="1.55977" transform="matrix(-1 0 0 1 207.148 95.613)" fill="white" fill-opacity="0.07"/>
<circle cx="1.55977" cy="1.55977" r="1.55977" transform="matrix(-1 0 0 1 160.355 95.613)" fill="white" fill-opacity="0.07"/>
<circle cx="1.55977" cy="1.55977" r="1.55977" transform="matrix(-1 0 0 1 191.555 95.613)" fill="white" fill-opacity="0.07"/>
<circle cx="1.55977" cy="1.55977" r="1.55977" transform="matrix(-1 0 0 1 144.758 95.613)" fill="white" fill-opacity="0.07"/>
<circle cx="1.55977" cy="1.55977" r="1.55977" transform="matrix(-1 0 0 1 175.953 95.613)" fill="white" fill-opacity="0.07"/>
<circle cx="1.55977" cy="1.55977" r="1.55977" transform="matrix(-1 0 0 1 129.16 95.613)" fill="white" fill-opacity="0.07"/>
<circle cx="1.55977" cy="1.55977" r="1.55977" transform="matrix(-1 0 0 1 300.738 137.726)" fill="white" fill-opacity="0.07"/>
<circle cx="1.55977" cy="1.55977" r="1.55977" transform="matrix(-1 0 0 1 253.945 137.726)" fill="white" fill-opacity="0.07"/>
<circle cx="1.55977" cy="1.55977" r="1.55977" transform="matrix(-1 0 0 1 285.141 137.726)" fill="white" fill-opacity="0.07"/>
<circle cx="1.55977" cy="1.55977" r="1.55977" transform="matrix(-1 0 0 1 238.344 137.726)" fill="white" fill-opacity="0.07"/>
<circle cx="1.55977" cy="1.55977" r="1.55977" transform="matrix(-1 0 0 1 269.543 137.726)" fill="white" fill-opacity="0.07"/>
<circle cx="1.55977" cy="1.55977" r="1.55977" transform="matrix(-1 0 0 1 222.746 137.726)" fill="white" fill-opacity="0.07"/>
<circle cx="1.55977" cy="1.55977" r="1.55977" transform="matrix(-1 0 0 1 207.148 137.726)" fill="white" fill-opacity="0.07"/>
<circle cx="1.55977" cy="1.55977" r="1.55977" transform="matrix(-1 0 0 1 160.355 137.726)" fill="white" fill-opacity="0.07"/>
<circle cx="1.55977" cy="1.55977" r="1.55977" transform="matrix(-1 0 0 1 191.555 137.726)" fill="white" fill-opacity="0.07"/>
<circle cx="1.55977" cy="1.55977" r="1.55977" transform="matrix(-1 0 0 1 144.758 137.726)" fill="white" fill-opacity="0.07"/>
<circle cx="1.55977" cy="1.55977" r="1.55977" transform="matrix(-1 0 0 1 175.953 137.726)" fill="white" fill-opacity="0.07"/>
<circle cx="1.55977" cy="1.55977" r="1.55977" transform="matrix(-1 0 0 1 129.16 137.726)" fill="white" fill-opacity="0.07"/>
<circle cx="1.55977" cy="1.55977" r="1.55977" transform="matrix(-1 0 0 1 300.738 109.651)" fill="white" fill-opacity="0.07"/>
<circle cx="1.55977" cy="1.55977" r="1.55977" transform="matrix(-1 0 0 1 253.945 109.651)" fill="white" fill-opacity="0.07"/>
<circle cx="1.55977" cy="1.55977" r="1.55977" transform="matrix(-1 0 0 1 285.141 109.651)" fill="white" fill-opacity="0.07"/>
<circle cx="1.55977" cy="1.55977" r="1.55977" transform="matrix(-1 0 0 1 238.344 109.651)" fill="white" fill-opacity="0.07"/>
<circle cx="1.55977" cy="1.55977" r="1.55977" transform="matrix(-1 0 0 1 269.543 109.651)" fill="white" fill-opacity="0.07"/>
<circle cx="1.55977" cy="1.55977" r="1.55977" transform="matrix(-1 0 0 1 222.746 109.651)" fill="white" fill-opacity="0.07"/>
<circle cx="1.55977" cy="1.55977" r="1.55977" transform="matrix(-1 0 0 1 207.148 109.651)" fill="white" fill-opacity="0.07"/>
<circle cx="1.55977" cy="1.55977" r="1.55977" transform="matrix(-1 0 0 1 160.355 109.651)" fill="white" fill-opacity="0.07"/>
<circle cx="1.55977" cy="1.55977" r="1.55977" transform="matrix(-1 0 0 1 191.555 109.651)" fill="white" fill-opacity="0.07"/>
<circle cx="1.55977" cy="1.55977" r="1.55977" transform="matrix(-1 0 0 1 144.758 109.651)" fill="white" fill-opacity="0.07"/>
<circle cx="1.55977" cy="1.55977" r="1.55977" transform="matrix(-1 0 0 1 175.953 109.651)" fill="white" fill-opacity="0.07"/>
<circle cx="1.55977" cy="1.55977" r="1.55977" transform="matrix(-1 0 0 1 129.16 109.651)" fill="white" fill-opacity="0.07"/>
<circle cx="1.55977" cy="1.55977" r="1.55977" transform="matrix(-1 0 0 1 300.738 151.764)" fill="white" fill-opacity="0.07"/>
<circle cx="1.55977" cy="1.55977" r="1.55977" transform="matrix(-1 0 0 1 253.945 151.764)" fill="white" fill-opacity="0.07"/>
<circle cx="1.55977" cy="1.55977" r="1.55977" transform="matrix(-1 0 0 1 285.141 151.764)" fill="white" fill-opacity="0.07"/>
<circle cx="1.55977" cy="1.55977" r="1.55977" transform="matrix(-1 0 0 1 238.344 151.764)" fill="white" fill-opacity="0.07"/>
<circle cx="1.55977" cy="1.55977" r="1.55977" transform="matrix(-1 0 0 1 269.543 151.764)" fill="white" fill-opacity="0.07"/>
<circle cx="1.55977" cy="1.55977" r="1.55977" transform="matrix(-1 0 0 1 222.746 151.764)" fill="white" fill-opacity="0.07"/>
<circle cx="1.55977" cy="1.55977" r="1.55977" transform="matrix(-1 0 0 1 207.148 151.764)" fill="white" fill-opacity="0.07"/>
<circle cx="1.55977" cy="1.55977" r="1.55977" transform="matrix(-1 0 0 1 160.355 151.764)" fill="white" fill-opacity="0.07"/>
<circle cx="1.55977" cy="1.55977" r="1.55977" transform="matrix(-1 0 0 1 191.555 151.764)" fill="white" fill-opacity="0.07"/>
<circle cx="1.55977" cy="1.55977" r="1.55977" transform="matrix(-1 0 0 1 144.758 151.764)" fill="white" fill-opacity="0.07"/>
<circle cx="1.55977" cy="1.55977" r="1.55977" transform="matrix(-1 0 0 1 175.953 151.764)" fill="white" fill-opacity="0.07"/>
<circle cx="1.55977" cy="1.55977" r="1.55977" transform="matrix(-1 0 0 1 129.16 151.764)" fill="white" fill-opacity="0.07"/>
<circle cx="1.55977" cy="1.55977" r="1.55977" transform="matrix(-1 0 0 1 300.738 81.5754)" fill="white" fill-opacity="0.07"/>
<circle cx="1.55977" cy="1.55977" r="1.55977" transform="matrix(-1 0 0 1 253.945 81.5754)" fill="white" fill-opacity="0.07"/>
<circle cx="1.55977" cy="1.55977" r="1.55977" transform="matrix(-1 0 0 1 285.141 81.5754)" fill="white" fill-opacity="0.07"/>
<circle cx="1.55977" cy="1.55977" r="1.55977" transform="matrix(-1 0 0 1 238.344 81.5754)" fill="white" fill-opacity="0.07"/>
<circle cx="1.55977" cy="1.55977" r="1.55977" transform="matrix(-1 0 0 1 269.543 81.5754)" fill="white" fill-opacity="0.07"/>
<circle cx="1.55977" cy="1.55977" r="1.55977" transform="matrix(-1 0 0 1 222.746 81.5754)" fill="white" fill-opacity="0.07"/>
<circle cx="1.55977" cy="1.55977" r="1.55977" transform="matrix(-1 0 0 1 207.148 81.5754)" fill="white" fill-opacity="0.07"/>
<circle cx="1.55977" cy="1.55977" r="1.55977" transform="matrix(-1 0 0 1 160.355 81.5754)" fill="white" fill-opacity="0.07"/>
<circle cx="1.55977" cy="1.55977" r="1.55977" transform="matrix(-1 0 0 1 191.555 81.5754)" fill="white" fill-opacity="0.07"/>
<circle cx="1.55977" cy="1.55977" r="1.55977" transform="matrix(-1 0 0 1 144.758 81.5754)" fill="white" fill-opacity="0.07"/>
<circle cx="1.55977" cy="1.55977" r="1.55977" transform="matrix(-1 0 0 1 175.953 81.5754)" fill="white" fill-opacity="0.07"/>
<circle cx="1.55977" cy="1.55977" r="1.55977" transform="matrix(-1 0 0 1 129.16 81.5754)" fill="white" fill-opacity="0.07"/>
<circle cx="1.55977" cy="1.55977" r="1.55977" transform="matrix(-1 0 0 1 300.738 123.688)" fill="white" fill-opacity="0.07"/>
<circle cx="1.55977" cy="1.55977" r="1.55977" transform="matrix(-1 0 0 1 253.945 123.688)" fill="white" fill-opacity="0.07"/>
<circle cx="1.55977" cy="1.55977" r="1.55977" transform="matrix(-1 0 0 1 285.141 123.688)" fill="white" fill-opacity="0.07"/>
<circle cx="1.55977" cy="1.55977" r="1.55977" transform="matrix(-1 0 0 1 238.344 123.688)" fill="white" fill-opacity="0.07"/>
<circle cx="1.55977" cy="1.55977" r="1.55977" transform="matrix(-1 0 0 1 269.543 123.688)" fill="white" fill-opacity="0.07"/>
<circle cx="1.55977" cy="1.55977" r="1.55977" transform="matrix(-1 0 0 1 222.746 123.688)" fill="white" fill-opacity="0.07"/>
<circle cx="1.55977" cy="1.55977" r="1.55977" transform="matrix(-1 0 0 1 207.148 123.688)" fill="white" fill-opacity="0.07"/>
<circle cx="1.55977" cy="1.55977" r="1.55977" transform="matrix(-1 0 0 1 160.355 123.688)" fill="white" fill-opacity="0.07"/>
<circle cx="1.55977" cy="1.55977" r="1.55977" transform="matrix(-1 0 0 1 191.555 123.688)" fill="white" fill-opacity="0.07"/>
<circle cx="1.55977" cy="1.55977" r="1.55977" transform="matrix(-1 0 0 1 144.758 123.688)" fill="white" fill-opacity="0.07"/>
<circle cx="1.55977" cy="1.55977" r="1.55977" transform="matrix(-1 0 0 1 175.953 123.688)" fill="white" fill-opacity="0.07"/>
<circle cx="1.55977" cy="1.55977" r="1.55977" transform="matrix(-1 0 0 1 129.16 123.688)" fill="white" fill-opacity="0.07"/>
<circle cx="1.55977" cy="1.55977" r="1.55977" transform="matrix(-1 0 0 1 300.738 9.8252)" fill="white" fill-opacity="0.07"/>
<circle cx="1.55977" cy="1.55977" r="1.55977" transform="matrix(-1 0 0 1 253.945 9.8252)" fill="white" fill-opacity="0.07"/>
<circle cx="1.55977" cy="1.55977" r="1.55977" transform="matrix(-1 0 0 1 285.141 9.8252)" fill="white" fill-opacity="0.07"/>
<circle cx="1.55977" cy="1.55977" r="1.55977" transform="matrix(-1 0 0 1 238.344 9.8252)" fill="white" fill-opacity="0.07"/>
<circle cx="1.55977" cy="1.55977" r="1.55977" transform="matrix(-1 0 0 1 269.543 9.82544)" fill="white" fill-opacity="0.07"/>
<circle cx="1.55977" cy="1.55977" r="1.55977" transform="matrix(-1 0 0 1 222.746 9.8252)" fill="white" fill-opacity="0.07"/>
<circle cx="1.55977" cy="1.55977" r="1.55977" transform="matrix(-1 0 0 1 207.148 9.8252)" fill="white" fill-opacity="0.07"/>
<circle cx="1.55977" cy="1.55977" r="1.55977" transform="matrix(-1 0 0 1 160.355 9.82544)" fill="white" fill-opacity="0.07"/>
<circle cx="1.55977" cy="1.55977" r="1.55977" transform="matrix(-1 0 0 1 191.555 9.82544)" fill="white" fill-opacity="0.07"/>
<circle cx="1.55977" cy="1.55977" r="1.55977" transform="matrix(-1 0 0 1 144.758 9.82544)" fill="white" fill-opacity="0.07"/>
<circle cx="1.55977" cy="1.55977" r="1.55977" transform="matrix(-1 0 0 1 175.953 9.8252)" fill="white" fill-opacity="0.26"/>
<circle cx="1.55977" cy="1.55977" r="1.55977" transform="matrix(-1 0 0 1 129.16 9.8252)" fill="white" fill-opacity="0.07"/>
<circle cx="1.55977" cy="1.55977" r="1.55977" transform="matrix(-1 0 0 1 300.738 51.9402)" fill="white" fill-opacity="0.07"/>
<circle cx="1.55977" cy="1.55977" r="1.55977" transform="matrix(-1 0 0 1 253.945 51.9402)" fill="white" fill-opacity="0.07"/>
<circle cx="1.55977" cy="1.55977" r="1.55977" transform="matrix(-1 0 0 1 285.141 51.9402)" fill="white" fill-opacity="0.07"/>
<circle cx="1.55977" cy="1.55977" r="1.55977" transform="matrix(-1 0 0 1 238.344 51.9402)" fill="white" fill-opacity="0.07"/>
<circle cx="1.55977" cy="1.55977" r="1.55977" transform="matrix(-1 0 0 1 269.543 51.9402)" fill="white" fill-opacity="0.07"/>
<circle cx="1.55977" cy="1.55977" r="1.55977" transform="matrix(-1 0 0 1 222.746 51.9402)" fill="white" fill-opacity="0.07"/>
<circle cx="1.55977" cy="1.55977" r="1.55977" transform="matrix(-1 0 0 1 207.148 51.9402)" fill="white" fill-opacity="0.07"/>
<circle cx="1.55977" cy="1.55977" r="1.55977" transform="matrix(-1 0 0 1 160.355 51.9402)" fill="white" fill-opacity="0.07"/>
<circle cx="1.55977" cy="1.55977" r="1.55977" transform="matrix(-1 0 0 1 191.555 51.9402)" fill="white" fill-opacity="0.07"/>
<circle cx="1.55977" cy="1.55977" r="1.55977" transform="matrix(-1 0 0 1 144.758 51.9402)" fill="white" fill-opacity="0.07"/>
<circle cx="1.55977" cy="1.55977" r="1.55977" transform="matrix(-1 0 0 1 175.953 51.9402)" fill="white" fill-opacity="0.07"/>
<circle cx="1.55977" cy="1.55977" r="1.55977" transform="matrix(-1 0 0 1 129.16 51.9402)" fill="white" fill-opacity="0.07"/>
<circle cx="1.55977" cy="1.55977" r="1.55977" transform="matrix(-1 0 0 1 300.738 23.8638)" fill="white" fill-opacity="0.07"/>
<circle cx="1.55977" cy="1.55977" r="1.55977" transform="matrix(-1 0 0 1 253.945 23.8638)" fill="white" fill-opacity="0.07"/>
<circle cx="1.55977" cy="1.55977" r="1.55977" transform="matrix(-1 0 0 1 285.141 23.8638)" fill="white" fill-opacity="0.07"/>
<circle cx="1.55977" cy="1.55977" r="1.55977" transform="matrix(-1 0 0 1 238.344 23.8638)" fill="white" fill-opacity="0.07"/>
<circle cx="1.55977" cy="1.55977" r="1.55977" transform="matrix(-1 0 0 1 269.543 23.864)" fill="white" fill-opacity="0.07"/>
<circle cx="1.55977" cy="1.55977" r="1.55977" transform="matrix(-1 0 0 1 222.746 23.8638)" fill="white" fill-opacity="0.07"/>
<circle cx="1.55977" cy="1.55977" r="1.55977" transform="matrix(-1 0 0 1 207.148 23.8638)" fill="white" fill-opacity="0.07"/>
<circle cx="1.55977" cy="1.55977" r="1.55977" transform="matrix(-1 0 0 1 160.355 23.864)" fill="white" fill-opacity="0.07"/>
<circle cx="1.55977" cy="1.55977" r="1.55977" transform="matrix(-1 0 0 1 191.555 23.864)" fill="white" fill-opacity="0.07"/>
<circle cx="1.55977" cy="1.55977" r="1.55977" transform="matrix(-1 0 0 1 144.758 23.864)" fill="white" fill-opacity="0.07"/>
<circle cx="1.55977" cy="1.55977" r="1.55977" transform="matrix(-1 0 0 1 175.953 23.8638)" fill="white" fill-opacity="0.07"/>
<circle cx="1.55977" cy="1.55977" r="1.55977" transform="matrix(-1 0 0 1 129.16 23.8638)" fill="white" fill-opacity="0.07"/>
<circle cx="1.55977" cy="1.55977" r="1.55977" transform="matrix(-1 0 0 1 300.738 65.9771)" fill="white" fill-opacity="0.07"/>
<circle cx="1.55977" cy="1.55977" r="1.55977" transform="matrix(-1 0 0 1 253.945 65.9771)" fill="white" fill-opacity="0.07"/>
<circle cx="1.55977" cy="1.55977" r="1.55977" transform="matrix(-1 0 0 1 285.141 65.9771)" fill="white" fill-opacity="0.07"/>
<circle cx="1.55977" cy="1.55977" r="1.55977" transform="matrix(-1 0 0 1 238.344 65.9771)" fill="white" fill-opacity="0.07"/>
<circle cx="1.55977" cy="1.55977" r="1.55977" transform="matrix(-1 0 0 1 269.543 65.9771)" fill="white" fill-opacity="0.07"/>
<circle cx="1.55977" cy="1.55977" r="1.55977" transform="matrix(-1 0 0 1 222.746 65.9771)" fill="white" fill-opacity="0.07"/>
<circle cx="1.55977" cy="1.55977" r="1.55977" transform="matrix(-1 0 0 1 207.148 65.9771)" fill="white" fill-opacity="0.07"/>
<circle cx="1.55977" cy="1.55977" r="1.55977" transform="matrix(-1 0 0 1 160.355 65.9771)" fill="white" fill-opacity="0.07"/>
<circle cx="1.55977" cy="1.55977" r="1.55977" transform="matrix(-1 0 0 1 191.555 65.9771)" fill="white" fill-opacity="0.07"/>
<circle cx="1.55977" cy="1.55977" r="1.55977" transform="matrix(-1 0 0 1 144.758 65.9771)" fill="white" fill-opacity="0.07"/>
<circle cx="1.55977" cy="1.55977" r="1.55977" transform="matrix(-1 0 0 1 175.953 65.9771)" fill="white" fill-opacity="0.07"/>
<circle cx="1.55977" cy="1.55977" r="1.55977" transform="matrix(-1 0 0 1 129.16 65.9771)" fill="white" fill-opacity="0.07"/>
<circle cx="1.55977" cy="1.55977" r="1.55977" transform="matrix(-1 0 0 1 300.738 37.9016)" fill="white" fill-opacity="0.07"/>
<circle cx="1.55977" cy="1.55977" r="1.55977" transform="matrix(-1 0 0 1 253.945 37.9016)" fill="white" fill-opacity="0.07"/>
<circle cx="1.55977" cy="1.55977" r="1.55977" transform="matrix(-1 0 0 1 285.141 37.9016)" fill="white" fill-opacity="0.07"/>
<circle cx="1.55977" cy="1.55977" r="1.55977" transform="matrix(-1 0 0 1 238.344 37.9016)" fill="white" fill-opacity="0.07"/>
<circle cx="1.55977" cy="1.55977" r="1.55977" transform="matrix(-1 0 0 1 269.543 37.9016)" fill="white" fill-opacity="0.07"/>
<circle cx="1.55977" cy="1.55977" r="1.55977" transform="matrix(-1 0 0 1 222.746 37.9016)" fill="white" fill-opacity="0.07"/>
<circle cx="1.55977" cy="1.55977" r="1.55977" transform="matrix(-1 0 0 1 207.148 37.9016)" fill="white" fill-opacity="0.07"/>
<circle cx="1.55977" cy="1.55977" r="1.55977" transform="matrix(-1 0 0 1 160.355 37.9016)" fill="white" fill-opacity="0.07"/>
<circle cx="1.55977" cy="1.55977" r="1.55977" transform="matrix(-1 0 0 1 191.555 37.9016)" fill="white" fill-opacity="0.07"/>
<circle cx="1.55977" cy="1.55977" r="1.55977" transform="matrix(-1 0 0 1 144.758 37.9016)" fill="white" fill-opacity="0.07"/>
<circle cx="1.55977" cy="1.55977" r="1.55977" transform="matrix(-1 0 0 1 175.953 37.9016)" fill="white" fill-opacity="0.07"/>
<circle cx="1.55977" cy="1.55977" r="1.55977" transform="matrix(-1 0 0 1 129.16 37.9016)" fill="white" fill-opacity="0.07"/>
<circle cx="1.55977" cy="1.55977" r="1.55977" transform="matrix(-1 0 0 1 300.738 181.401)" fill="white" fill-opacity="0.07"/>
<circle cx="1.55977" cy="1.55977" r="1.55977" transform="matrix(-1 0 0 1 253.945 181.401)" fill="white" fill-opacity="0.07"/>
<circle cx="1.55977" cy="1.55977" r="1.55977" transform="matrix(-1 0 0 1 285.141 181.401)" fill="white" fill-opacity="0.07"/>
<circle cx="1.55977" cy="1.55977" r="1.55977" transform="matrix(-1 0 0 1 238.344 181.401)" fill="white" fill-opacity="0.07"/>
<circle cx="1.55977" cy="1.55977" r="1.55977" transform="matrix(-1 0 0 1 269.543 181.401)" fill="white" fill-opacity="0.07"/>
<circle cx="1.55977" cy="1.55977" r="1.55977" transform="matrix(-1 0 0 1 222.746 181.401)" fill="white" fill-opacity="0.07"/>
<circle cx="1.55977" cy="1.55977" r="1.55977" transform="matrix(-1 0 0 1 207.148 181.401)" fill="white" fill-opacity="0.07"/>
<circle cx="1.55977" cy="1.55977" r="1.55977" transform="matrix(-1 0 0 1 160.355 181.401)" fill="white" fill-opacity="0.07"/>
<circle cx="1.55977" cy="1.55977" r="1.55977" transform="matrix(-1 0 0 1 191.555 181.401)" fill="white" fill-opacity="0.07"/>
<circle cx="1.55977" cy="1.55977" r="1.55977" transform="matrix(-1 0 0 1 144.758 181.401)" fill="white" fill-opacity="0.07"/>
<circle cx="1.55977" cy="1.55977" r="1.55977" transform="matrix(-1 0 0 1 175.953 181.401)" fill="white" fill-opacity="0.07"/>
<circle cx="1.55977" cy="1.55977" r="1.55977" transform="matrix(-1 0 0 1 129.16 181.401)" fill="white" fill-opacity="0.07"/>
<circle cx="1.55977" cy="1.55977" r="1.55977" transform="matrix(-1 0 0 1 300.738 223.515)" fill="white" fill-opacity="0.07"/>
<circle cx="1.55977" cy="1.55977" r="1.55977" transform="matrix(-1 0 0 1 253.945 223.515)" fill="white" fill-opacity="0.07"/>
<circle cx="1.55977" cy="1.55977" r="1.55977" transform="matrix(-1 0 0 1 285.141 223.515)" fill="white" fill-opacity="0.07"/>
<circle cx="1.55977" cy="1.55977" r="1.55977" transform="matrix(-1 0 0 1 238.344 223.515)" fill="white" fill-opacity="0.07"/>
<circle cx="1.55977" cy="1.55977" r="1.55977" transform="matrix(-1 0 0 1 269.543 223.515)" fill="white" fill-opacity="0.07"/>
<circle cx="1.55977" cy="1.55977" r="1.55977" transform="matrix(-1 0 0 1 222.746 223.515)" fill="white" fill-opacity="0.07"/>
<circle cx="1.55977" cy="1.55977" r="1.55977" transform="matrix(-1 0 0 1 207.148 223.515)" fill="white" fill-opacity="0.07"/>
<circle cx="1.55977" cy="1.55977" r="1.55977" transform="matrix(-1 0 0 1 160.355 223.515)" fill="white" fill-opacity="0.07"/>
<circle cx="1.55977" cy="1.55977" r="1.55977" transform="matrix(-1 0 0 1 191.555 223.515)" fill="white" fill-opacity="0.07"/>
<circle cx="1.55977" cy="1.55977" r="1.55977" transform="matrix(-1 0 0 1 144.758 223.515)" fill="white" fill-opacity="0.07"/>
<circle cx="1.55977" cy="1.55977" r="1.55977" transform="matrix(-1 0 0 1 175.953 223.515)" fill="white" fill-opacity="0.07"/>
<circle cx="1.55977" cy="1.55977" r="1.55977" transform="matrix(-1 0 0 1 129.16 223.515)" fill="white" fill-opacity="0.07"/>
<circle cx="1.55977" cy="1.55977" r="1.55977" transform="matrix(-1 0 0 1 300.738 195.437)" fill="white" fill-opacity="0.07"/>
<circle cx="1.55977" cy="1.55977" r="1.55977" transform="matrix(-1 0 0 1 253.945 195.437)" fill="white" fill-opacity="0.07"/>
<circle cx="1.55977" cy="1.55977" r="1.55977" transform="matrix(-1 0 0 1 285.141 195.437)" fill="white" fill-opacity="0.07"/>
<circle cx="1.55977" cy="1.55977" r="1.55977" transform="matrix(-1 0 0 1 238.344 195.437)" fill="white" fill-opacity="0.07"/>
<circle cx="1.55977" cy="1.55977" r="1.55977" transform="matrix(-1 0 0 1 269.543 195.437)" fill="white" fill-opacity="0.07"/>
<circle cx="1.55977" cy="1.55977" r="1.55977" transform="matrix(-1 0 0 1 222.746 195.437)" fill="white" fill-opacity="0.07"/>
<circle cx="1.55977" cy="1.55977" r="1.55977" transform="matrix(-1 0 0 1 207.148 195.437)" fill="white" fill-opacity="0.07"/>
<circle cx="1.55977" cy="1.55977" r="1.55977" transform="matrix(-1 0 0 1 160.355 195.437)" fill="white" fill-opacity="0.07"/>
<circle cx="1.55977" cy="1.55977" r="1.55977" transform="matrix(-1 0 0 1 191.555 195.437)" fill="white" fill-opacity="0.07"/>
<circle cx="1.55977" cy="1.55977" r="1.55977" transform="matrix(-1 0 0 1 144.758 195.437)" fill="white" fill-opacity="0.07"/>
<circle cx="1.55977" cy="1.55977" r="1.55977" transform="matrix(-1 0 0 1 175.953 195.437)" fill="white" fill-opacity="0.07"/>
<circle cx="1.55977" cy="1.55977" r="1.55977" transform="matrix(-1 0 0 1 129.16 195.437)" fill="white" fill-opacity="0.07"/>
<circle cx="1.55977" cy="1.55977" r="1.55977" transform="matrix(-1 0 0 1 300.738 237.552)" fill="white" fill-opacity="0.07"/>
<circle cx="1.55977" cy="1.55977" r="1.55977" transform="matrix(-1 0 0 1 253.945 237.552)" fill="white" fill-opacity="0.07"/>
<circle cx="1.55977" cy="1.55977" r="1.55977" transform="matrix(-1 0 0 1 285.141 237.552)" fill="white" fill-opacity="0.07"/>
<circle cx="1.55977" cy="1.55977" r="1.55977" transform="matrix(-1 0 0 1 238.344 237.552)" fill="white" fill-opacity="0.07"/>
<circle cx="1.55977" cy="1.55977" r="1.55977" transform="matrix(-1 0 0 1 269.543 237.552)" fill="white" fill-opacity="0.07"/>
<circle cx="1.55977" cy="1.55977" r="1.55977" transform="matrix(-1 0 0 1 222.746 237.552)" fill="white" fill-opacity="0.07"/>
<circle cx="1.55977" cy="1.55977" r="1.55977" transform="matrix(-1 0 0 1 207.148 237.552)" fill="white" fill-opacity="0.07"/>
<circle cx="1.55977" cy="1.55977" r="1.55977" transform="matrix(-1 0 0 1 160.355 237.552)" fill="white" fill-opacity="0.07"/>
<circle cx="1.55977" cy="1.55977" r="1.55977" transform="matrix(-1 0 0 1 191.555 237.552)" fill="white" fill-opacity="0.07"/>
<circle cx="1.55977" cy="1.55977" r="1.55977" transform="matrix(-1 0 0 1 144.758 237.552)" fill="white" fill-opacity="0.07"/>
<circle cx="1.55977" cy="1.55977" r="1.55977" transform="matrix(-1 0 0 1 175.953 237.552)" fill="white" fill-opacity="0.07"/>
<circle cx="1.55977" cy="1.55977" r="1.55977" transform="matrix(-1 0 0 1 129.16 237.552)" fill="white" fill-opacity="0.07"/>
<circle cx="1.55977" cy="1.55977" r="1.55977" transform="matrix(-1 0 0 1 300.738 167.362)" fill="white" fill-opacity="0.07"/>
<circle cx="1.55977" cy="1.55977" r="1.55977" transform="matrix(-1 0 0 1 253.945 167.362)" fill="white" fill-opacity="0.07"/>
<circle cx="1.55977" cy="1.55977" r="1.55977" transform="matrix(-1 0 0 1 285.141 167.362)" fill="white" fill-opacity="0.07"/>
<circle cx="1.55977" cy="1.55977" r="1.55977" transform="matrix(-1 0 0 1 238.344 167.362)" fill="white" fill-opacity="0.07"/>
<circle cx="1.55977" cy="1.55977" r="1.55977" transform="matrix(-1 0 0 1 269.543 167.362)" fill="white" fill-opacity="0.07"/>
<circle cx="1.55977" cy="1.55977" r="1.55977" transform="matrix(-1 0 0 1 222.746 167.362)" fill="white" fill-opacity="0.07"/>
<circle cx="1.55977" cy="1.55977" r="1.55977" transform="matrix(-1 0 0 1 207.148 167.362)" fill="white" fill-opacity="0.07"/>
<circle cx="1.55977" cy="1.55977" r="1.55977" transform="matrix(-1 0 0 1 160.355 167.362)" fill="white" fill-opacity="0.07"/>
<circle cx="1.55977" cy="1.55977" r="1.55977" transform="matrix(-1 0 0 1 191.555 167.362)" fill="white" fill-opacity="0.07"/>
<circle cx="1.55977" cy="1.55977" r="1.55977" transform="matrix(-1 0 0 1 144.758 167.362)" fill="white" fill-opacity="0.07"/>
<circle cx="1.55977" cy="1.55977" r="1.55977" transform="matrix(-1 0 0 1 175.953 167.362)" fill="white" fill-opacity="0.07"/>
<circle cx="1.55977" cy="1.55977" r="1.55977" transform="matrix(-1 0 0 1 129.16 167.362)" fill="white" fill-opacity="0.07"/>
<circle cx="1.55977" cy="1.55977" r="1.55977" transform="matrix(-1 0 0 1 300.738 209.477)" fill="white" fill-opacity="0.07"/>
<circle cx="1.55977" cy="1.55977" r="1.55977" transform="matrix(-1 0 0 1 253.945 209.477)" fill="white" fill-opacity="0.07"/>
<circle cx="1.55977" cy="1.55977" r="1.55977" transform="matrix(-1 0 0 1 285.141 209.477)" fill="white" fill-opacity="0.07"/>
<circle cx="1.55977" cy="1.55977" r="1.55977" transform="matrix(-1 0 0 1 238.344 209.477)" fill="white" fill-opacity="0.07"/>
<circle cx="1.55977" cy="1.55977" r="1.55977" transform="matrix(-1 0 0 1 269.543 209.477)" fill="white" fill-opacity="0.07"/>
<circle cx="1.55977" cy="1.55977" r="1.55977" transform="matrix(-1 0 0 1 222.746 209.477)" fill="white" fill-opacity="0.07"/>
<circle cx="1.55977" cy="1.55977" r="1.55977" transform="matrix(-1 0 0 1 207.148 209.477)" fill="white" fill-opacity="0.07"/>
<circle cx="1.55977" cy="1.55977" r="1.55977" transform="matrix(-1 0 0 1 160.355 209.477)" fill="white" fill-opacity="0.07"/>
<circle cx="1.55977" cy="1.55977" r="1.55977" transform="matrix(-1 0 0 1 191.555 209.477)" fill="white" fill-opacity="0.07"/>
<circle cx="1.55977" cy="1.55977" r="1.55977" transform="matrix(-1 0 0 1 144.758 209.477)" fill="white" fill-opacity="0.07"/>
<circle cx="1.55977" cy="1.55977" r="1.55977" transform="matrix(-1 0 0 1 175.953 209.477)" fill="white" fill-opacity="0.07"/>
<circle cx="1.55977" cy="1.55977" r="1.55977" transform="matrix(-1 0 0 1 129.16 209.477)" fill="white" fill-opacity="0.07"/>
<circle cx="1.55977" cy="1.55977" r="1.55977" transform="matrix(-1 0 0 1 113.562 95.613)" fill="white" fill-opacity="0.07"/>
<circle cx="1.55977" cy="1.55977" r="1.55977" transform="matrix(-1 0 0 1 66.7695 95.613)" fill="white" fill-opacity="0.07"/>
<circle cx="1.55977" cy="1.55977" r="1.55977" transform="matrix(-1 0 0 1 97.9688 95.613)" fill="white" fill-opacity="0.07"/>
<circle cx="1.55977" cy="1.55977" r="1.55977" transform="matrix(-1 0 0 1 51.1719 95.613)" fill="white" fill-opacity="0.07"/>
<circle cx="1.55977" cy="1.55977" r="1.55977" transform="matrix(-1 0 0 1 82.3672 95.613)" fill="white" fill-opacity="0.07"/>
<circle cx="1.55977" cy="1.55977" r="1.55977" transform="matrix(-1 0 0 1 35.5742 95.613)" fill="white" fill-opacity="0.07"/>
<circle cx="1.55977" cy="1.55977" r="1.55977" transform="matrix(-1 0 0 1 19.9766 95.613)" fill="white" fill-opacity="0.07"/>
<circle cx="1.55977" cy="1.55977" r="1.55977" transform="matrix(-1 0 0 1 4.37891 95.613)" fill="white" fill-opacity="0.07"/>
<circle cx="1.55977" cy="1.55977" r="1.55977" transform="matrix(-1 0 0 1 113.562 137.727)" fill="white" fill-opacity="0.07"/>
<circle cx="1.55977" cy="1.55977" r="1.55977" transform="matrix(-1 0 0 1 66.7695 137.727)" fill="white" fill-opacity="0.07"/>
<circle cx="1.55977" cy="1.55977" r="1.55977" transform="matrix(-1 0 0 1 97.9688 137.727)" fill="white" fill-opacity="0.07"/>
<circle cx="1.55977" cy="1.55977" r="1.55977" transform="matrix(-1 0 0 1 51.1719 137.727)" fill="white" fill-opacity="0.07"/>
<circle cx="1.55977" cy="1.55977" r="1.55977" transform="matrix(-1 0 0 1 82.3672 137.727)" fill="white" fill-opacity="0.07"/>
<circle cx="1.55977" cy="1.55977" r="1.55977" transform="matrix(-1 0 0 1 35.5742 137.727)" fill="white" fill-opacity="0.07"/>
<circle cx="1.55977" cy="1.55977" r="1.55977" transform="matrix(-1 0 0 1 19.9766 137.727)" fill="white" fill-opacity="0.07"/>
<circle cx="1.55977" cy="1.55977" r="1.55977" transform="matrix(-1 0 0 1 4.37891 137.727)" fill="white" fill-opacity="0.07"/>
<circle cx="1.55977" cy="1.55977" r="1.55977" transform="matrix(-1 0 0 1 113.562 109.651)" fill="white" fill-opacity="0.07"/>
<circle cx="1.55977" cy="1.55977" r="1.55977" transform="matrix(-1 0 0 1 66.7695 109.651)" fill="white" fill-opacity="0.07"/>
<circle cx="1.55977" cy="1.55977" r="1.55977" transform="matrix(-1 0 0 1 97.9688 109.651)" fill="white" fill-opacity="0.07"/>
<circle cx="1.55977" cy="1.55977" r="1.55977" transform="matrix(-1 0 0 1 51.1719 109.651)" fill="white" fill-opacity="0.07"/>
<circle cx="1.55977" cy="1.55977" r="1.55977" transform="matrix(-1 0 0 1 82.3672 109.651)" fill="white" fill-opacity="0.07"/>
<circle cx="1.55977" cy="1.55977" r="1.55977" transform="matrix(-1 0 0 1 35.5742 109.651)" fill="white" fill-opacity="0.07"/>
<circle cx="1.55977" cy="1.55977" r="1.55977" transform="matrix(-1 0 0 1 19.9766 109.651)" fill="white" fill-opacity="0.07"/>
<circle cx="1.55977" cy="1.55977" r="1.55977" transform="matrix(-1 0 0 1 4.37891 109.651)" fill="white" fill-opacity="0.07"/>
<circle cx="1.55977" cy="1.55977" r="1.55977" transform="matrix(-1 0 0 1 113.562 151.764)" fill="white" fill-opacity="0.07"/>
<circle cx="1.55977" cy="1.55977" r="1.55977" transform="matrix(-1 0 0 1 66.7695 151.764)" fill="white" fill-opacity="0.07"/>
<circle cx="1.55977" cy="1.55977" r="1.55977" transform="matrix(-1 0 0 1 97.9688 151.764)" fill="white" fill-opacity="0.07"/>
<circle cx="1.55977" cy="1.55977" r="1.55977" transform="matrix(-1 0 0 1 51.1719 151.764)" fill="white" fill-opacity="0.07"/>
<circle cx="1.55977" cy="1.55977" r="1.55977" transform="matrix(-1 0 0 1 82.3672 151.764)" fill="white" fill-opacity="0.07"/>
<circle cx="1.55977" cy="1.55977" r="1.55977" transform="matrix(-1 0 0 1 35.5742 151.764)" fill="white" fill-opacity="0.07"/>
<circle cx="1.55977" cy="1.55977" r="1.55977" transform="matrix(-1 0 0 1 19.9766 151.764)" fill="white" fill-opacity="0.07"/>
<circle cx="1.55977" cy="1.55977" r="1.55977" transform="matrix(-1 0 0 1 4.37891 151.764)" fill="white" fill-opacity="0.07"/>
<circle cx="1.55977" cy="1.55977" r="1.55977" transform="matrix(-1 0 0 1 113.562 81.5754)" fill="white" fill-opacity="0.07"/>
<circle cx="1.55977" cy="1.55977" r="1.55977" transform="matrix(-1 0 0 1 66.7695 81.5754)" fill="white" fill-opacity="0.07"/>
<circle cx="1.55977" cy="1.55977" r="1.55977" transform="matrix(-1 0 0 1 97.9688 81.5754)" fill="white" fill-opacity="0.07"/>
<circle cx="1.55977" cy="1.55977" r="1.55977" transform="matrix(-1 0 0 1 51.1719 81.5754)" fill="white" fill-opacity="0.07"/>
<circle cx="1.55977" cy="1.55977" r="1.55977" transform="matrix(-1 0 0 1 82.3672 81.5754)" fill="white" fill-opacity="0.07"/>
<circle cx="1.55977" cy="1.55977" r="1.55977" transform="matrix(-1 0 0 1 35.5742 81.5754)" fill="white" fill-opacity="0.07"/>
<circle cx="1.55977" cy="1.55977" r="1.55977" transform="matrix(-1 0 0 1 19.9766 81.5754)" fill="white" fill-opacity="0.07"/>
<circle cx="1.55977" cy="1.55977" r="1.55977" transform="matrix(-1 0 0 1 4.37891 81.5754)" fill="white" fill-opacity="0.07"/>
<circle cx="1.55977" cy="1.55977" r="1.55977" transform="matrix(-1 0 0 1 113.562 123.689)" fill="white" fill-opacity="0.07"/>
<circle cx="1.55977" cy="1.55977" r="1.55977" transform="matrix(-1 0 0 1 66.7695 123.689)" fill="white" fill-opacity="0.07"/>
<circle cx="1.55977" cy="1.55977" r="1.55977" transform="matrix(-1 0 0 1 97.9688 123.689)" fill="white" fill-opacity="0.07"/>
<circle cx="1.55977" cy="1.55977" r="1.55977" transform="matrix(-1 0 0 1 51.1719 123.689)" fill="white" fill-opacity="0.07"/>
<circle cx="1.55977" cy="1.55977" r="1.55977" transform="matrix(-1 0 0 1 82.3672 123.689)" fill="white" fill-opacity="0.07"/>
<circle cx="1.55977" cy="1.55977" r="1.55977" transform="matrix(-1 0 0 1 35.5742 123.689)" fill="white" fill-opacity="0.07"/>
<circle cx="1.55977" cy="1.55977" r="1.55977" transform="matrix(-1 0 0 1 19.9766 123.689)" fill="white" fill-opacity="0.07"/>
<circle cx="1.55977" cy="1.55977" r="1.55977" transform="matrix(-1 0 0 1 4.37891 123.689)" fill="white" fill-opacity="0.07"/>
<circle cx="1.55977" cy="1.55977" r="1.55977" transform="matrix(-1 0 0 1 113.562 9.82544)" fill="white" fill-opacity="0.07"/>
<circle cx="1.55977" cy="1.55977" r="1.55977" transform="matrix(-1 0 0 1 66.7695 9.82544)" fill="white" fill-opacity="0.07"/>
<circle cx="1.55977" cy="1.55977" r="1.55977" transform="matrix(-1 0 0 1 97.9688 9.8252)" fill="white" fill-opacity="0.32"/>
<circle cx="1.55977" cy="1.55977" r="1.55977" transform="matrix(-1 0 0 1 51.1719 9.8252)" fill="white" fill-opacity="0.07"/>
<circle cx="1.55977" cy="1.55977" r="1.55977" transform="matrix(-1 0 0 1 82.3672 9.82544)" fill="white" fill-opacity="0.07"/>
<circle cx="1.55977" cy="1.55977" r="1.55977" transform="matrix(-1 0 0 1 35.5742 9.82544)" fill="white" fill-opacity="0.07"/>
<circle cx="1.55977" cy="1.55977" r="1.55977" transform="matrix(-1 0 0 1 19.9766 9.82544)" fill="white" fill-opacity="0.07"/>
<circle cx="1.55977" cy="1.55977" r="1.55977" transform="matrix(-1 0 0 1 4.37891 9.82544)" fill="white" fill-opacity="0.07"/>
<circle cx="1.55977" cy="1.55977" r="1.55977" transform="matrix(-1 0 0 1 113.562 51.9387)" fill="white" fill-opacity="0.07"/>
<circle cx="1.55977" cy="1.55977" r="1.55977" transform="matrix(-1 0 0 1 66.7695 51.9387)" fill="white" fill-opacity="0.07"/>
<circle cx="1.55977" cy="1.55977" r="1.55977" transform="matrix(-1 0 0 1 97.9688 51.9387)" fill="white" fill-opacity="0.07"/>
<circle cx="1.55977" cy="1.55977" r="1.55977" transform="matrix(-1 0 0 1 51.1719 51.9387)" fill="white" fill-opacity="0.07"/>
<circle cx="1.55977" cy="1.55977" r="1.55977" transform="matrix(-1 0 0 1 82.3672 51.9387)" fill="white" fill-opacity="0.07"/>
<circle cx="1.55977" cy="1.55977" r="1.55977" transform="matrix(-1 0 0 1 35.5742 51.9387)" fill="white" fill-opacity="0.07"/>
<circle cx="1.55977" cy="1.55977" r="1.55977" transform="matrix(-1 0 0 1 19.9766 51.9387)" fill="white" fill-opacity="0.07"/>
<circle cx="1.55977" cy="1.55977" r="1.55977" transform="matrix(-1 0 0 1 4.37891 51.9387)" fill="white" fill-opacity="0.07"/>
<circle cx="1.55977" cy="1.55977" r="1.55977" transform="matrix(-1 0 0 1 113.562 23.864)" fill="white" fill-opacity="0.07"/>
<circle cx="1.55977" cy="1.55977" r="1.55977" transform="matrix(-1 0 0 1 66.7695 23.864)" fill="white" fill-opacity="0.07"/>
<circle cx="1.55977" cy="1.55977" r="1.55977" transform="matrix(-1 0 0 1 97.9688 23.8638)" fill="white" fill-opacity="0.07"/>
<circle cx="1.55977" cy="1.55977" r="1.55977" transform="matrix(-1 0 0 1 51.1719 23.8638)" fill="white" fill-opacity="0.07"/>
<circle cx="1.55977" cy="1.55977" r="1.55977" transform="matrix(-1 0 0 1 82.3672 23.864)" fill="white" fill-opacity="0.07"/>
<circle cx="1.55977" cy="1.55977" r="1.55977" transform="matrix(-1 0 0 1 35.5742 23.864)" fill="white" fill-opacity="0.07"/>
<circle cx="1.55977" cy="1.55977" r="1.55977" transform="matrix(-1 0 0 1 19.9766 23.864)" fill="white" fill-opacity="0.07"/>
<circle cx="1.55977" cy="1.55977" r="1.55977" transform="matrix(-1 0 0 1 4.37891 23.864)" fill="white" fill-opacity="0.07"/>
<circle cx="1.55977" cy="1.55977" r="1.55977" transform="matrix(-1 0 0 1 113.562 65.9771)" fill="white" fill-opacity="0.07"/>
<circle cx="1.55977" cy="1.55977" r="1.55977" transform="matrix(-1 0 0 1 66.7695 65.9771)" fill="white" fill-opacity="0.07"/>
<circle cx="1.55977" cy="1.55977" r="1.55977" transform="matrix(-1 0 0 1 97.9688 65.9771)" fill="white" fill-opacity="0.07"/>
<circle cx="1.55977" cy="1.55977" r="1.55977" transform="matrix(-1 0 0 1 51.1719 65.9771)" fill="white" fill-opacity="0.07"/>
<circle cx="1.55977" cy="1.55977" r="1.55977" transform="matrix(-1 0 0 1 82.3672 65.9771)" fill="white" fill-opacity="0.07"/>
<circle cx="1.55977" cy="1.55977" r="1.55977" transform="matrix(-1 0 0 1 35.5742 65.9771)" fill="white" fill-opacity="0.07"/>
<circle cx="1.55977" cy="1.55977" r="1.55977" transform="matrix(-1 0 0 1 19.9766 65.9771)" fill="white" fill-opacity="0.07"/>
<circle cx="1.55977" cy="1.55977" r="1.55977" transform="matrix(-1 0 0 1 4.37891 65.9771)" fill="white" fill-opacity="0.07"/>
<circle cx="1.55977" cy="1.55977" r="1.55977" transform="matrix(-1 0 0 1 113.562 37.9016)" fill="white" fill-opacity="0.07"/>
<circle cx="1.55977" cy="1.55977" r="1.55977" transform="matrix(-1 0 0 1 66.7695 37.9016)" fill="white" fill-opacity="0.07"/>
<circle cx="1.55977" cy="1.55977" r="1.55977" transform="matrix(-1 0 0 1 97.9688 37.9016)" fill="white" fill-opacity="0.07"/>
<circle cx="1.55977" cy="1.55977" r="1.55977" transform="matrix(-1 0 0 1 51.1719 37.9016)" fill="white" fill-opacity="0.07"/>
<circle cx="1.55977" cy="1.55977" r="1.55977" transform="matrix(-1 0 0 1 82.3672 37.9016)" fill="white" fill-opacity="0.07"/>
<circle cx="1.55977" cy="1.55977" r="1.55977" transform="matrix(-1 0 0 1 35.5742 37.9016)" fill="white" fill-opacity="0.07"/>
<circle cx="1.55977" cy="1.55977" r="1.55977" transform="matrix(-1 0 0 1 19.9766 37.9016)" fill="white" fill-opacity="0.07"/>
<circle cx="1.55977" cy="1.55977" r="1.55977" transform="matrix(-1 0 0 1 4.37891 37.9016)" fill="white" fill-opacity="0.07"/>
<circle cx="1.55977" cy="1.55977" r="1.55977" transform="matrix(-1 0 0 1 113.562 181.401)" fill="white" fill-opacity="0.07"/>
<circle cx="1.55977" cy="1.55977" r="1.55977" transform="matrix(-1 0 0 1 66.7695 181.401)" fill="white" fill-opacity="0.07"/>
<circle cx="1.55977" cy="1.55977" r="1.55977" transform="matrix(-1 0 0 1 97.9688 181.401)" fill="white" fill-opacity="0.07"/>
<circle cx="1.55977" cy="1.55977" r="1.55977" transform="matrix(-1 0 0 1 51.1719 181.401)" fill="white" fill-opacity="0.07"/>
<circle cx="1.55977" cy="1.55977" r="1.55977" transform="matrix(-1 0 0 1 82.3672 181.401)" fill="white" fill-opacity="0.07"/>
<circle cx="1.55977" cy="1.55977" r="1.55977" transform="matrix(-1 0 0 1 35.5742 181.401)" fill="white" fill-opacity="0.07"/>
<circle cx="1.55977" cy="1.55977" r="1.55977" transform="matrix(-1 0 0 1 19.9766 181.401)" fill="white" fill-opacity="0.07"/>
<circle cx="1.55977" cy="1.55977" r="1.55977" transform="matrix(-1 0 0 1 4.37891 181.401)" fill="white" fill-opacity="0.07"/>
<circle cx="1.55977" cy="1.55977" r="1.55977" transform="matrix(-1 0 0 1 113.562 223.514)" fill="white" fill-opacity="0.07"/>
<circle cx="1.55977" cy="1.55977" r="1.55977" transform="matrix(-1 0 0 1 66.7695 223.514)" fill="white" fill-opacity="0.07"/>
<circle cx="1.55977" cy="1.55977" r="1.55977" transform="matrix(-1 0 0 1 97.9688 223.514)" fill="white" fill-opacity="0.07"/>
<circle cx="1.55977" cy="1.55977" r="1.55977" transform="matrix(-1 0 0 1 51.1719 223.514)" fill="white" fill-opacity="0.07"/>
<circle cx="1.55977" cy="1.55977" r="1.55977" transform="matrix(-1 0 0 1 82.3672 223.514)" fill="white" fill-opacity="0.07"/>
<circle cx="1.55977" cy="1.55977" r="1.55977" transform="matrix(-1 0 0 1 35.5742 223.514)" fill="white" fill-opacity="0.07"/>
<circle cx="1.55977" cy="1.55977" r="1.55977" transform="matrix(-1 0 0 1 19.9766 223.514)" fill="white" fill-opacity="0.07"/>
<circle cx="1.55977" cy="1.55977" r="1.55977" transform="matrix(-1 0 0 1 4.37891 223.514)" fill="white" fill-opacity="0.07"/>
<circle cx="1.55977" cy="1.55977" r="1.55977" transform="matrix(-1 0 0 1 113.562 195.437)" fill="white" fill-opacity="0.07"/>
<circle cx="1.55977" cy="1.55977" r="1.55977" transform="matrix(-1 0 0 1 66.7695 195.437)" fill="white" fill-opacity="0.07"/>
<circle cx="1.55977" cy="1.55977" r="1.55977" transform="matrix(-1 0 0 1 97.9688 195.437)" fill="white" fill-opacity="0.07"/>
<circle cx="1.55977" cy="1.55977" r="1.55977" transform="matrix(-1 0 0 1 51.1719 195.437)" fill="white" fill-opacity="0.07"/>
<circle cx="1.55977" cy="1.55977" r="1.55977" transform="matrix(-1 0 0 1 82.3672 195.437)" fill="white" fill-opacity="0.07"/>
<circle cx="1.55977" cy="1.55977" r="1.55977" transform="matrix(-1 0 0 1 35.5742 195.437)" fill="white" fill-opacity="0.07"/>
<circle cx="1.55977" cy="1.55977" r="1.55977" transform="matrix(-1 0 0 1 19.9766 195.437)" fill="white" fill-opacity="0.07"/>
<circle cx="1.55977" cy="1.55977" r="1.55977" transform="matrix(-1 0 0 1 4.37891 195.437)" fill="white" fill-opacity="0.07"/>
<circle cx="1.55977" cy="1.55977" r="1.55977" transform="matrix(-1 0 0 1 113.562 237.552)" fill="white" fill-opacity="0.07"/>
<circle cx="1.55977" cy="1.55977" r="1.55977" transform="matrix(-1 0 0 1 66.7695 237.552)" fill="white" fill-opacity="0.07"/>
<circle cx="1.55977" cy="1.55977" r="1.55977" transform="matrix(-1 0 0 1 97.9688 237.552)" fill="white" fill-opacity="0.07"/>
<circle cx="1.55977" cy="1.55977" r="1.55977" transform="matrix(-1 0 0 1 51.1719 237.552)" fill="white" fill-opacity="0.07"/>
<circle cx="1.55977" cy="1.55977" r="1.55977" transform="matrix(-1 0 0 1 82.3672 237.552)" fill="white" fill-opacity="0.07"/>
<circle cx="1.55977" cy="1.55977" r="1.55977" transform="matrix(-1 0 0 1 35.5742 237.552)" fill="white" fill-opacity="0.07"/>
<circle cx="1.55977" cy="1.55977" r="1.55977" transform="matrix(-1 0 0 1 19.9766 237.552)" fill="white" fill-opacity="0.07"/>
<circle cx="1.55977" cy="1.55977" r="1.55977" transform="matrix(-1 0 0 1 4.37891 237.552)" fill="white" fill-opacity="0.07"/>
<circle cx="1.55977" cy="1.55977" r="1.55977" transform="matrix(-1 0 0 1 113.562 167.362)" fill="white" fill-opacity="0.07"/>
<circle cx="1.55977" cy="1.55977" r="1.55977" transform="matrix(-1 0 0 1 66.7695 167.362)" fill="white" fill-opacity="0.07"/>
<circle cx="1.55977" cy="1.55977" r="1.55977" transform="matrix(-1 0 0 1 97.9688 167.362)" fill="white" fill-opacity="0.07"/>
<circle cx="1.55977" cy="1.55977" r="1.55977" transform="matrix(-1 0 0 1 51.1719 167.362)" fill="white" fill-opacity="0.07"/>
<circle cx="1.55977" cy="1.55977" r="1.55977" transform="matrix(-1 0 0 1 82.3672 167.362)" fill="white" fill-opacity="0.07"/>
<circle cx="1.55977" cy="1.55977" r="1.55977" transform="matrix(-1 0 0 1 35.5742 167.362)" fill="white" fill-opacity="0.07"/>
<circle cx="1.55977" cy="1.55977" r="1.55977" transform="matrix(-1 0 0 1 19.9766 167.362)" fill="white" fill-opacity="0.07"/>
<circle cx="1.55977" cy="1.55977" r="1.55977" transform="matrix(-1 0 0 1 4.37891 167.362)" fill="white" fill-opacity="0.07"/>
<circle cx="1.55977" cy="1.55977" r="1.55977" transform="matrix(-1 0 0 1 113.562 209.476)" fill="white" fill-opacity="0.07"/>
<circle cx="1.55977" cy="1.55977" r="1.55977" transform="matrix(-1 0 0 1 66.7695 209.476)" fill="white" fill-opacity="0.07"/>
<circle cx="1.55977" cy="1.55977" r="1.55977" transform="matrix(-1 0 0 1 97.9688 209.476)" fill="white" fill-opacity="0.07"/>
<circle cx="1.55977" cy="1.55977" r="1.55977" transform="matrix(-1 0 0 1 51.1719 209.476)" fill="white" fill-opacity="0.07"/>
<circle cx="1.55977" cy="1.55977" r="1.55977" transform="matrix(-1 0 0 1 82.3672 209.476)" fill="white" fill-opacity="0.07"/>
<circle cx="1.55977" cy="1.55977" r="1.55977" transform="matrix(-1 0 0 1 35.5742 209.476)" fill="white" fill-opacity="0.07"/>
<circle cx="1.55977" cy="1.55977" r="1.55977" transform="matrix(-1 0 0 1 19.9766 209.476)" fill="white" fill-opacity="0.07"/>
<circle cx="1.55977" cy="1.55977" r="1.55977" transform="matrix(-1 0 0 1 4.37891 209.476)" fill="white" fill-opacity="0.07"/>
<g filter="url(#filter0_f_11489_7874)">
<ellipse cx="322" cy="185.569" rx="322" ry="185.569" transform="matrix(-1 0 0 1 533 39.4937)" fill="#101010"/>
</g>
</g>
<g opacity="0.1" clip-path="url(#clip1_11489_7874)">
<line x1="368.221" y1="33.7175" x2="382.363" y2="19.5754" stroke="white"/>
<line x1="374.361" y1="33.7175" x2="388.503" y2="19.5754" stroke="white"/>
<line x1="380.506" y1="33.7175" x2="394.648" y2="19.5754" stroke="white"/>
<line x1="386.646" y1="33.7175" x2="400.789" y2="19.5754" stroke="white"/>
<line x1="392.787" y1="33.7175" x2="406.929" y2="19.5754" stroke="white"/>
<line x1="398.932" y1="33.7175" x2="413.074" y2="19.5754" stroke="white"/>
</g>
</g>
<rect x="0.5" y="0.5" width="421" height="319" rx="23.5" stroke="url(#paint1_linear_11489_7874)" stroke-opacity="0.1"/>
<defs>
<filter id="filter0_f_11489_7874" x="-252.9" y="-102.406" width="927.8" height="654.938" filterUnits="userSpaceOnUse" color-interpolation-filters="sRGB">
<feFlood flood-opacity="0" result="BackgroundImageFix"/>
<feBlend mode="normal" in="SourceGraphic" in2="BackgroundImageFix" result="shape"/>
<feGaussianBlur stdDeviation="70.95" result="effect1_foregroundBlur_11489_7874"/>
</filter>
<linearGradient id="paint0_linear_11489_7874" x1="211" y1="0" x2="211" y2="320" gradientUnits="userSpaceOnUse">
<stop stop-color="#181818"/>
<stop offset="1" stop-color="#181818" stop-opacity="0"/>
</linearGradient>
<linearGradient id="paint1_linear_11489_7874" x1="211" y1="0" x2="211" y2="320" gradientUnits="userSpaceOnUse">
<stop stop-color="white"/>
<stop offset="1" stop-color="white" stop-opacity="0"/>
</linearGradient>
<clipPath id="clip0_11489_7874">
<rect width="422" height="320" rx="24" fill="white"/>
</clipPath>
<clipPath id="clip1_11489_7874">
<rect width="20" height="20" fill="white" transform="translate(381 17)"/>
</clipPath>
</defs>
</svg>
