<svg width="48" height="48" viewBox="0 0 48 48" fill="none" xmlns="http://www.w3.org/2000/svg">
<path d="M0 12C0 5.37258 5.37258 0 12 0H36C42.6274 0 48 5.37258 48 12V36C48 42.6274 42.6274 48 36 48H12C5.37258 48 0 42.6274 0 36V12Z" fill="#151515"/>
<path d="M12 0.349609H36C42.4341 0.349609 47.6504 5.56588 47.6504 12V36C47.6504 42.4341 42.4341 47.6504 36 47.6504H12C5.56588 47.6504 0.349609 42.4341 0.349609 36V12C0.349609 5.56588 5.56588 0.349609 12 0.349609Z" stroke="url(#paint0_linear_0_1)" stroke-opacity="0.44" stroke-width="0.7"/>
<path d="M24.0013 29.8333C26.1707 29.8333 28.1214 28.6462 29.1399 26.7335L24.5846 24L29.1399 21.2665C28.1214 19.3537 26.1707 18.1666 24.0013 18.1666C20.7848 18.1666 18.168 20.7835 18.168 24C18.168 27.2165 20.7848 29.8333 24.0013 29.8333ZM23.7096 20.5C23.9418 20.5 24.1644 20.5923 24.3285 20.7565C24.4926 20.9207 24.5847 21.1434 24.5846 21.3755C24.5846 21.6077 24.4923 21.8303 24.3281 21.9944C24.1639 22.1585 23.9412 22.2506 23.7091 22.2505C23.4769 22.2505 23.2543 22.1582 23.0902 21.994C22.9261 21.8298 22.834 21.6071 22.8341 21.375C22.8341 21.1428 22.9264 20.9202 23.0906 20.7561C23.2548 20.592 23.4775 20.4999 23.7096 20.5Z" fill="#8EFE49"/>
<defs>
<linearGradient id="paint0_linear_0_1" x1="25.136" y1="58.1284" x2="6.71942" y2="-5.04575" gradientUnits="userSpaceOnUse">
<stop stop-color="white" stop-opacity="0.3"/>
<stop offset="1" stop-color="white" stop-opacity="0"/>
</linearGradient>
</defs>
</svg>
