<svg width="504" height="320" viewBox="0 0 504 320" fill="none" xmlns="http://www.w3.org/2000/svg">
<g clip-path="url(#clip0_258_3321)">
<path d="M480 320H24C10.7452 320 0 309.255 0 296V48.4411C0 42.0759 2.52856 35.9714 7.02944 31.4706L31.4706 7.02942C35.9714 2.52856 42.0759 0 48.4411 0H480C493.255 0 504 10.7451 504 24V296C504 309.255 493.255 320 480 320Z" fill="url(#paint0_linear_258_3321)"/>
<path d="M24 319.5H480C492.979 319.5 503.5 308.979 503.5 296V24C503.5 11.0213 492.979 0.5 480 0.5H48.4414C42.4036 0.5 36.6054 2.82374 32.2422 6.97559L31.8242 7.38281L7.38281 31.8242C2.9758 36.2313 0.5 42.2089 0.5 48.4414V296C0.5 308.979 11.0213 319.5 24 319.5Z" stroke="url(#paint1_linear_258_3321)" stroke-opacity="0.1"/>
<path d="M-474 -162H-518C-527.389 -162 -535 -154.389 -535 -145V246.5C-535 255.889 -527.389 263.5 -518 263.5H-157.5C-148.111 263.5 -140.5 271.111 -140.5 280.5V317.5C-140.5 326.889 -132.889 334.5 -123.5 334.5H93.5H-14.7453C-20.2389 334.5 -25.3939 331.845 -28.5845 327.373L-137.339 174.931C-139.395 172.049 -140.5 168.597 -140.5 165.058V98C-140.5 88.6112 -132.889 81 -123.5 81H-43.5C-34.1112 81 -26.5 73.3888 -26.5 64V-145C-26.5 -154.389 -18.8888 -162 -9.5 -162H235C244.389 -162 252 -154.389 252 -145V-9.5C252 -0.111163 244.389 7.5 235 7.5H110.5C101.111 7.5 93.5 15.1112 93.5 24.5V145C93.5 154.389 101.111 162 110.5 162H215.5" stroke="white" stroke-opacity="0.2" stroke-dasharray="6 6"/>
<path d="M-81 -88H-125C-134.389 -88 -142 -80.3888 -142 -71V320.5C-142 329.889 -134.389 337.5 -125 337.5H235.5C244.889 337.5 252.5 345.111 252.5 354.5V391.5C252.5 400.889 260.111 408.5 269.5 408.5H469.5C478.889 408.5 486.5 400.889 486.5 391.5V261.5C486.5 252.111 478.889 244.5 469.5 244.5H269.5C260.111 244.5 252.5 236.889 252.5 227.5V172C252.5 162.611 260.111 155 269.5 155H349.5C358.889 155 366.5 147.389 366.5 138V-71C366.5 -80.3888 374.111 -88 383.5 -88H628C637.389 -88 645 -80.3888 645 -71V64.5C645 73.8888 637.389 81.5 628 81.5H503.5C494.111 81.5 486.5 89.1112 486.5 98.5V219C486.5 228.389 494.111 236 503.5 236H608.5" stroke="white" stroke-opacity="0.2" stroke-dasharray="6 6"/>
</g>
<defs>
<linearGradient id="paint0_linear_258_3321" x1="252" y1="320" x2="252" y2="0" gradientUnits="userSpaceOnUse">
<stop stop-color="#181818"/>
<stop offset="1" stop-color="#181818" stop-opacity="0"/>
</linearGradient>
<linearGradient id="paint1_linear_258_3321" x1="252" y1="320" x2="252" y2="0" gradientUnits="userSpaceOnUse">
<stop stop-color="white" stop-opacity="0"/>
<stop offset="1" stop-color="white"/>
</linearGradient>
<clipPath id="clip0_258_3321">
<rect width="504" height="320" fill="white"/>
</clipPath>
</defs>
</svg>
