<svg width="18" height="16" viewBox="0 0 18 16" fill="none" xmlns="http://www.w3.org/2000/svg">
<path fill-rule="evenodd" clip-rule="evenodd" d="M16.1355 0.109461C16.3568 0.0125391 16.5991 -0.0208885 16.837 0.0126568C17.0749 0.0462021 17.2999 0.145494 17.4884 0.300199C17.677 0.454903 17.8222 0.659364 17.9091 0.8923C17.9959 1.12524 18.0212 1.37813 17.9822 1.62466L15.951 14.4443C15.754 15.6808 14.45 16.39 13.3601 15.774C12.4484 15.2587 11.0943 14.4648 9.87632 13.6363C9.26733 13.2217 7.40184 11.8938 7.63111 10.9489C7.82814 10.1409 10.9627 7.10493 12.7538 5.29992C13.4568 4.59077 13.1362 4.18169 12.306 4.83399C10.2444 6.45356 6.93435 8.91646 5.83996 9.60977C4.87452 10.2211 4.37121 10.3254 3.76938 10.2211C2.6714 10.031 1.65313 9.7365 0.822039 9.37774C-0.301014 8.89317 -0.246384 7.28664 0.821144 6.81885L16.1355 0.109461Z" fill="url(#paint0_linear_258_3390)"/>
<defs>
<linearGradient id="paint0_linear_258_3390" x1="9" y1="17.8182" x2="9" y2="-9.45454" gradientUnits="userSpaceOnUse">
<stop stop-color="#8EFE49"/>
<stop offset="1" stop-color="#8EFE49" stop-opacity="0"/>
</linearGradient>
</defs>
</svg>
