<svg width="283" height="200" viewBox="0 0 283 200" fill="none" xmlns="http://www.w3.org/2000/svg">
<path d="M258 34.0589V14C258 2.68629 258 -2.97057 254.485 -6.48528C250.971 -10 245.314 -10 234 -10H0C-4.71405 -10 -7.07108 -10 -8.53552 -8.53554C-10 -7.07108 -10 -4.71405 -10 0V176C-10 187.314 -10 192.971 -6.48529 196.485C-2.97055 200 2.68628 200 14 200H93.8565C98.8588 200 101.36 200 103.6 199.053C105.84 198.107 107.583 196.313 111.069 192.725L148.431 154.275C151.917 150.687 153.66 148.893 155.9 147.947C158.14 147 160.641 147 165.644 147H222.25C225.737 147 227.48 147 228.916 146.64C233.211 145.565 236.565 142.211 237.64 137.916C238 136.48 238 134.737 238 131.25C238 125.439 238 122.533 238.599 120.14C240.392 112.982 245.982 107.392 253.14 105.599C255.533 105 258.439 105 264.25 105H266.125C270.662 105 272.931 105 274.764 104.394C278.372 103.202 281.202 100.372 282.394 96.7642C283 94.9308 283 92.6622 283 88.125V78.9411C283 74.0361 283 71.5836 282.087 69.3784C281.173 67.1731 279.439 65.4389 275.971 61.9706L265.029 51.0294C261.561 47.5611 259.827 45.8269 258.913 43.6216C258 41.4164 258 38.9639 258 34.0589Z" fill="white" fill-opacity="0.05"/>
<path d="M258 34.0589V14C258 2.68629 258 -2.97057 254.485 -6.48528C250.971 -10 245.314 -10 234 -10H0C-4.71405 -10 -7.07108 -10 -8.53552 -8.53554C-10 -7.07108 -10 -4.71405 -10 0V176C-10 187.314 -10 192.971 -6.48529 196.485C-2.97055 200 2.68628 200 14 200H93.8565C98.8588 200 101.36 200 103.6 199.053C105.84 198.107 107.583 196.313 111.069 192.725L148.431 154.275C151.917 150.687 153.66 148.893 155.9 147.947C158.14 147 160.641 147 165.644 147H222.25C225.737 147 227.48 147 228.916 146.64C233.211 145.565 236.565 142.211 237.64 137.916C238 136.48 238 134.737 238 131.25C238 125.439 238 122.533 238.599 120.14C240.392 112.982 245.982 107.392 253.14 105.599C255.533 105 258.439 105 264.25 105H266.125C270.662 105 272.931 105 274.764 104.394C278.372 103.202 281.202 100.372 282.394 96.7642C283 94.9308 283 92.6622 283 88.125V78.9411C283 74.0361 283 71.5836 282.087 69.3784C281.173 67.1731 279.439 65.4389 275.971 61.9706L265.029 51.0294C261.561 47.5611 259.827 45.8269 258.913 43.6216C258 41.4164 258 38.9639 258 34.0589Z" fill="url(#paint0_linear_0_1)"/>
<g opacity="0.1" clip-path="url(#clip0_0_1)">
<line x1="241.22" y1="93.7175" x2="255.362" y2="79.5754" stroke="white"/>
<line x1="247.362" y1="93.7175" x2="261.504" y2="79.5754" stroke="white"/>
<line x1="253.504" y1="93.7175" x2="267.646" y2="79.5754" stroke="white"/>
<line x1="259.646" y1="93.7175" x2="273.789" y2="79.5754" stroke="white"/>
<line x1="265.789" y1="93.7175" x2="279.931" y2="79.5754" stroke="white"/>
<line x1="271.931" y1="93.7175" x2="286.073" y2="79.5754" stroke="white"/>
</g>
<defs>
<linearGradient id="paint0_linear_0_1" x1="-10" y1="-10" x2="283" y2="200" gradientUnits="userSpaceOnUse">
<stop stop-color="#181818" stop-opacity="0"/>
<stop offset="1" stop-color="#181818"/>
</linearGradient>
<clipPath id="clip0_0_1">
<rect width="20" height="20" fill="white" transform="translate(254 77)"/>
</clipPath>
</defs>
</svg>
