<svg width="448" height="456" viewBox="0 0 448 456" fill="none" xmlns="http://www.w3.org/2000/svg">
<g filter="url(#filter0_dd_11489_8741)">
<rect x="82" y="16" width="284" height="284" rx="142" fill="#52BF4E"/>
<rect x="82" y="16" width="284" height="284" rx="142" fill="url(#paint0_linear_11489_8741)" fill-opacity="0.5"/>
<rect x="84" y="18" width="280" height="280" rx="140" stroke="url(#paint1_linear_11489_8741)" stroke-opacity="0.6" stroke-width="4"/>
</g>
<rect opacity="0.1" x="94.5" y="28.5" width="259" height="259" rx="129.5" stroke="#1D1D1D"/>
<g filter="url(#filter1_i_11489_8741)">
<path d="M223.999 158L283.873 123.698M223.999 158L164.117 123.698M223.999 158V226.604M283.873 123.698C281.796 120.131 278.816 117.174 275.233 115.124L235.806 92.5332C232.212 90.4721 228.142 89.3877 223.999 89.3877C219.856 89.3877 215.785 90.4721 212.191 92.5332L172.764 115.132C169.108 117.223 166.164 120.197 164.117 123.698M283.873 123.698C285.913 127.199 287.04 131.233 287.04 135.424V180.591C287.038 184.715 285.945 188.764 283.871 192.328C281.797 195.892 278.817 198.844 275.233 200.883L235.806 223.474C232.211 225.53 228.14 226.609 223.999 226.604M164.117 123.698C162.046 127.256 160.956 131.3 160.957 135.416V180.584C160.957 188.965 165.459 196.693 172.764 200.876L212.191 223.467C215.786 225.525 219.857 226.607 223.999 226.604" stroke="#1A4D18" stroke-width="6" stroke-linejoin="round"/>
</g>
<defs>
<filter id="filter0_dd_11489_8741" x="0.699997" y="0" width="446.6" height="455.3" filterUnits="userSpaceOnUse" color-interpolation-filters="sRGB">
<feFlood flood-opacity="0" result="BackgroundImageFix"/>
<feColorMatrix in="SourceAlpha" type="matrix" values="0 0 0 0 0 0 0 0 0 0 0 0 0 0 0 0 0 0 127 0" result="hardAlpha"/>
<feMorphology radius="16" operator="dilate" in="SourceAlpha" result="effect1_dropShadow_11489_8741"/>
<feOffset/>
<feComposite in2="hardAlpha" operator="out"/>
<feColorMatrix type="matrix" values="0 0 0 0 0.286275 0 0 0 0 0.996078 0 0 0 0 0.511046 0 0 0 0.05 0"/>
<feBlend mode="normal" in2="BackgroundImageFix" result="effect1_dropShadow_11489_8741"/>
<feColorMatrix in="SourceAlpha" type="matrix" values="0 0 0 0 0 0 0 0 0 0 0 0 0 0 0 0 0 0 127 0" result="hardAlpha"/>
<feOffset dy="74"/>
<feGaussianBlur stdDeviation="40.65"/>
<feComposite in2="hardAlpha" operator="out"/>
<feColorMatrix type="matrix" values="0 0 0 0 0.38 0 0 0 0 1 0 0 0 0 0 0 0 0 1 0"/>
<feBlend mode="normal" in2="effect1_dropShadow_11489_8741" result="effect2_dropShadow_11489_8741"/>
<feBlend mode="normal" in="SourceGraphic" in2="effect2_dropShadow_11489_8741" result="shape"/>
</filter>
<filter id="filter1_i_11489_8741" x="157.957" y="86.3877" width="132.082" height="143.217" filterUnits="userSpaceOnUse" color-interpolation-filters="sRGB">
<feFlood flood-opacity="0" result="BackgroundImageFix"/>
<feBlend mode="normal" in="SourceGraphic" in2="BackgroundImageFix" result="shape"/>
<feColorMatrix in="SourceAlpha" type="matrix" values="0 0 0 0 0 0 0 0 0 0 0 0 0 0 0 0 0 0 127 0" result="hardAlpha"/>
<feOffset/>
<feGaussianBlur stdDeviation="2.75"/>
<feComposite in2="hardAlpha" operator="arithmetic" k2="-1" k3="1"/>
<feColorMatrix type="matrix" values="0 0 0 0 0 0 0 0 0 0 0 0 0 0 0 0 0 0 1 0"/>
<feBlend mode="normal" in2="shape" result="effect1_innerShadow_11489_8741"/>
</filter>
<linearGradient id="paint0_linear_11489_8741" x1="224" y1="16" x2="224" y2="300" gradientUnits="userSpaceOnUse">
<stop/>
<stop offset="1" stop-color="white" stop-opacity="0"/>
</linearGradient>
<linearGradient id="paint1_linear_11489_8741" x1="224" y1="16" x2="224" y2="300" gradientUnits="userSpaceOnUse">
<stop stop-color="white" stop-opacity="0.56"/>
<stop offset="1" stop-color="white" stop-opacity="0"/>
</linearGradient>
</defs>
</svg>
