<svg width="306" height="159" viewBox="0 0 306 159" fill="none" xmlns="http://www.w3.org/2000/svg">
<path d="M25 83.1274V103.286C25 106.745 25 108.475 25.526 109.853C26.3383 111.981 28.0191 113.662 30.147 114.474C31.525 115 33.2548 115 36.7143 115C45.3631 115 49.6874 115 53.1324 116.315C58.4523 118.346 62.6543 122.548 64.685 127.868C66 131.313 66 135.637 66 144.286V146.429C66 150.693 66 152.826 66.7923 154.471C67.5786 156.104 68.8961 157.421 70.5289 158.208C72.174 159 74.3065 159 78.5714 159H138.373C141.643 159 143.278 159 144.748 158.391C146.218 157.782 147.374 156.626 149.686 154.314L193.314 110.686C195.626 108.374 196.782 107.218 198.252 106.609C199.722 106 201.357 106 204.627 106H298C305.542 106 309.314 106 311.657 103.657C314 101.314 314 97.5425 314 90V0H16C8.45753 0 4.68629 0 2.34315 2.34315C0 4.68629 0 8.45753 0 16V44.8726C0 48.1426 0 49.7776 0.608964 51.2478C1.21793 52.7179 2.37405 53.8741 4.68629 56.1863L20.3137 71.8137C22.626 74.126 23.7821 75.2821 24.391 76.7522C25 78.2224 25 79.8574 25 83.1274Z" fill="white" fill-opacity="0.05"/>
<path d="M25 83.1274V103.286C25 106.745 25 108.475 25.526 109.853C26.3383 111.981 28.0191 113.662 30.147 114.474C31.525 115 33.2548 115 36.7143 115C45.3631 115 49.6874 115 53.1324 116.315C58.4523 118.346 62.6543 122.548 64.685 127.868C66 131.313 66 135.637 66 144.286V146.429C66 150.693 66 152.826 66.7923 154.471C67.5786 156.104 68.8961 157.421 70.5289 158.208C72.174 159 74.3065 159 78.5714 159H138.373C141.643 159 143.278 159 144.748 158.391C146.218 157.782 147.374 156.626 149.686 154.314L193.314 110.686C195.626 108.374 196.782 107.218 198.252 106.609C199.722 106 201.357 106 204.627 106H298C305.542 106 309.314 106 311.657 103.657C314 101.314 314 97.5425 314 90V0H16C8.45753 0 4.68629 0 2.34315 2.34315C0 4.68629 0 8.45753 0 16V44.8726C0 48.1426 0 49.7776 0.608964 51.2478C1.21793 52.7179 2.37405 53.8741 4.68629 56.1863L20.3137 71.8137C22.626 74.126 23.7821 75.2821 24.391 76.7522C25 78.2224 25 79.8574 25 83.1274Z" fill="url(#paint0_linear_258_75)"/>
<rect x="72" y="149" width="4" height="4" rx="2" fill="#393939"/>
<rect x="139" y="149" width="4" height="4" rx="2" fill="#393939"/>
<rect x="6" y="6" width="4" height="4" rx="2" fill="white" fill-opacity="0.05"/>
<rect x="6" y="14" width="4" height="4" rx="2" fill="white" fill-opacity="0.05"/>
<rect x="14" y="6" width="4" height="4" rx="2" fill="white" fill-opacity="0.05"/>
<defs>
<linearGradient id="paint0_linear_258_75" x1="314" y1="159" x2="79.7624" y2="-78.6253" gradientUnits="userSpaceOnUse">
<stop stop-color="#181818" stop-opacity="0"/>
<stop offset="1" stop-color="#181818"/>
</linearGradient>
</defs>
</svg>
