<svg width="283" height="200" viewBox="0 0 283 200" fill="none" xmlns="http://www.w3.org/2000/svg">
<path d="M25 165.941V186C25 197.314 25 202.971 28.5147 206.485C32.0294 210 37.6863 210 49 210H293V24C293 12.6863 293 7.02944 289.485 3.51472C285.971 0 280.314 0 269 0H189.144C184.141 0 181.64 0 179.4 0.946687C177.16 1.89337 175.417 3.68716 171.931 7.27474L134.569 45.7252C131.083 49.3128 129.34 51.1066 127.1 52.0533C124.86 53 122.359 53 117.356 53H60.75C57.2633 53 55.5199 53 54.0842 53.3596C49.7891 54.4355 46.4355 57.7891 45.3596 62.0842C45 63.5199 45 65.2633 45 68.75C45 74.5612 45 77.4668 44.4006 79.8596C42.6075 87.0181 37.0181 92.6075 29.8596 94.4006C27.4668 95 24.5612 95 18.75 95H16.875C12.3378 95 10.0692 95 8.23582 95.6057C4.62785 96.7976 1.79757 99.6278 0.605662 103.236C0 105.069 0 107.338 0 111.875V121.059C0 125.964 0 128.416 0.913446 130.622C1.82689 132.827 3.56107 134.561 7.02944 138.029L17.9706 148.971C21.4389 152.439 23.1731 154.173 24.0866 156.378C25 158.584 25 161.036 25 165.941Z" fill="white" fill-opacity="0.05"/>
<path d="M25 165.941V186C25 197.314 25 202.971 28.5147 206.485C32.0294 210 37.6863 210 49 210H293V24C293 12.6863 293 7.02944 289.485 3.51472C285.971 0 280.314 0 269 0H189.144C184.141 0 181.64 0 179.4 0.946687C177.16 1.89337 175.417 3.68716 171.931 7.27474L134.569 45.7252C131.083 49.3128 129.34 51.1066 127.1 52.0533C124.86 53 122.359 53 117.356 53H60.75C57.2633 53 55.5199 53 54.0842 53.3596C49.7891 54.4355 46.4355 57.7891 45.3596 62.0842C45 63.5199 45 65.2633 45 68.75C45 74.5612 45 77.4668 44.4006 79.8596C42.6075 87.0181 37.0181 92.6075 29.8596 94.4006C27.4668 95 24.5612 95 18.75 95H16.875C12.3378 95 10.0692 95 8.23582 95.6057C4.62785 96.7976 1.79757 99.6278 0.605662 103.236C0 105.069 0 107.338 0 111.875V121.059C0 125.964 0 128.416 0.913446 130.622C1.82689 132.827 3.56107 134.561 7.02944 138.029L17.9706 148.971C21.4389 152.439 23.1731 154.173 24.0866 156.378C25 158.584 25 161.036 25 165.941Z" fill="url(#paint0_linear_258_73)"/>
<defs>
<linearGradient id="paint0_linear_258_73" x1="293" y1="210" x2="3.82314e-06" y2="-5.33419e-06" gradientUnits="userSpaceOnUse">
<stop stop-color="#181818" stop-opacity="0"/>
<stop offset="1" stop-color="#181818"/>
</linearGradient>
</defs>
</svg>
