<svg width="1280" height="1004" viewBox="0 0 1280 1004" fill="none" xmlns="http://www.w3.org/2000/svg">
<g filter="url(#filter0_d_11616_8221)">
<path d="M198.284 35L605.5 35.0019L1131.22 35.0034C1136.52 35.0034 1141.61 37.1106 1145.36 40.8613L1185.45 80.9574C1189.2 84.7081 1194.29 86.8152 1199.6 86.8152H1262.5C1273.55 86.8152 1282.5 95.7695 1282.5 106.815V922.435C1282.5 933.48 1273.55 942.435 1262.5 942.435H19C7.95429 942.435 -1 933.481 -1 922.435V107.5C-1 96.4541 7.95431 87.4998 19 87.4998H129.216C134.52 87.4998 139.607 85.3927 143.358 81.6419L184.142 40.8579C187.893 37.1071 192.98 35 198.284 35Z" fill="#0D0D0D"/>
<path d="M198.284 35L605.5 35.0019L1131.22 35.0034C1136.52 35.0034 1141.61 37.1106 1145.36 40.8613L1185.45 80.9574C1189.2 84.7081 1194.29 86.8152 1199.6 86.8152H1262.5C1273.55 86.8152 1282.5 95.7695 1282.5 106.815V922.435C1282.5 933.48 1273.55 942.435 1262.5 942.435H19C7.95429 942.435 -1 933.481 -1 922.435V107.5C-1 96.4541 7.95431 87.4998 19 87.4998H129.216C134.52 87.4998 139.607 85.3927 143.358 81.6419L184.142 40.8579C187.893 37.1071 192.98 35 198.284 35Z" fill="url(#paint0_linear_11616_8221)" fill-opacity="0.02"/>
<path d="M198.284 35L605.5 35.0019L1131.22 35.0034C1136.52 35.0034 1141.61 37.1106 1145.36 40.8613L1185.45 80.9574C1189.2 84.7081 1194.29 86.8152 1199.6 86.8152H1262.5C1273.55 86.8152 1282.5 95.7695 1282.5 106.815V922.435C1282.5 933.48 1273.55 942.435 1262.5 942.435H19C7.95429 942.435 -1 933.481 -1 922.435V107.5C-1 96.4541 7.95431 87.4998 19 87.4998H129.216C134.52 87.4998 139.607 85.3927 143.358 81.6419L184.142 40.8579C187.893 37.1071 192.98 35 198.284 35Z" fill="url(#paint1_linear_11616_8221)" fill-opacity="0.02"/>
</g>
<path opacity="0.5" d="M155.44 906.933L231.508 981.942C235.64 986.017 241.21 988.302 247.014 988.302H373.233C383.155 988.302 391.205 980.273 391.233 970.351L391.747 783.049C391.775 773.089 383.708 765 373.747 765H193.159C187.266 765 181.617 767.355 177.47 771.542L157.613 791.585C153.465 795.772 147.817 798.127 141.923 798.127H-62.5722C-72.5133 798.127 -80.5722 806.186 -80.5722 816.127V842.701C-80.5722 852.642 -72.5133 860.701 -62.5722 860.701H100.573C106.48 860.701 112.141 863.067 116.291 867.271L155.44 906.933Z" fill="url(#paint2_linear_11616_8221)"/>
<path opacity="0.5" d="M-71.3672 847.205H111.486C116.3 847.205 120.914 849.133 124.296 852.56L164.645 893.437L241.905 969.622C245.274 972.944 249.814 974.806 254.544 974.806H400.388" stroke="url(#paint3_linear_11616_8221)"/>
<path opacity="0.5" d="M-91 875.424H94.3611C97.5708 875.424 100.647 876.71 102.901 878.994L145.012 921.656L224.025 999.569C226.27 1001.78 229.297 1003.02 232.45 1003.02H380.756" stroke="url(#paint4_linear_11616_8221)" stroke-linecap="round"/>
<path opacity="0.5" d="M-70.7539 831.254H183.756C188.451 831.254 192.961 833.089 196.322 836.367L232.388 871.538C235.75 874.816 240.26 876.651 244.955 876.651H400.388" stroke="url(#paint5_linear_11616_8221)"/>
<path opacity="0.5" d="M401.001 779.723L200.66 779.723C195.857 779.723 191.253 781.643 187.873 785.055L165.618 807.519C162.238 810.931 157.634 812.85 152.831 812.85H-69.5273" stroke="url(#paint6_linear_11616_8221)"/>
<defs>
<filter id="filter0_d_11616_8221" x="-32.6" y="0.4" width="1346.7" height="970.635" filterUnits="userSpaceOnUse" color-interpolation-filters="sRGB">
<feFlood flood-opacity="0" result="BackgroundImageFix"/>
<feColorMatrix in="SourceAlpha" type="matrix" values="0 0 0 0 0 0 0 0 0 0 0 0 0 0 0 0 0 0 127 0" result="hardAlpha"/>
<feOffset dy="-3"/>
<feGaussianBlur stdDeviation="15.8"/>
<feComposite in2="hardAlpha" operator="out"/>
<feColorMatrix type="matrix" values="0 0 0 0 0 0 0 0 0 0 0 0 0 0 0 0 0 0 0.15 0"/>
<feBlend mode="normal" in2="BackgroundImageFix" result="effect1_dropShadow_11616_8221"/>
<feBlend mode="normal" in="SourceGraphic" in2="effect1_dropShadow_11616_8221" result="shape"/>
</filter>
<linearGradient id="paint0_linear_11616_8221" x1="640.75" y1="35" x2="640.5" y2="222.435" gradientUnits="userSpaceOnUse">
<stop stop-color="white"/>
<stop offset="1" stop-color="white" stop-opacity="0"/>
</linearGradient>
<linearGradient id="paint1_linear_11616_8221" x1="640.75" y1="35" x2="640.5" y2="213.935" gradientUnits="userSpaceOnUse">
<stop stop-color="white"/>
<stop offset="1" stop-color="white" stop-opacity="0"/>
</linearGradient>
<linearGradient id="paint2_linear_11616_8221" x1="1.01884" y1="825.12" x2="271.557" y2="857.02" gradientUnits="userSpaceOnUse">
<stop stop-color="#26262A" stop-opacity="0"/>
<stop offset="0.445497" stop-color="#46464E" stop-opacity="0.19"/>
<stop offset="1" stop-color="#828290" stop-opacity="0"/>
</linearGradient>
<linearGradient id="paint3_linear_11616_8221" x1="-154.401" y1="913.368" x2="351.239" y2="1087.17" gradientUnits="userSpaceOnUse">
<stop stop-opacity="0"/>
<stop offset="0.485"/>
<stop offset="1" stop-opacity="0"/>
</linearGradient>
<linearGradient id="paint4_linear_11616_8221" x1="-114.312" y1="875.424" x2="151.974" y2="898.268" gradientUnits="userSpaceOnUse">
<stop stop-color="#61C6FF" stop-opacity="0"/>
<stop offset="0.153179" stop-color="#61C6FF" stop-opacity="0"/>
<stop offset="0.461584" stop-color="#61C6FF"/>
<stop offset="1" stop-color="#61C6FF" stop-opacity="0"/>
</linearGradient>
<linearGradient id="paint5_linear_11616_8221" x1="-153.68" y1="854.793" x2="138.724" y2="1136.94" gradientUnits="userSpaceOnUse">
<stop stop-opacity="0"/>
<stop offset="0.485"/>
<stop offset="1" stop-opacity="0"/>
</linearGradient>
<linearGradient id="paint6_linear_11616_8221" x1="-152.345" y1="796.9" x2="53.1705" y2="1068.3" gradientUnits="userSpaceOnUse">
<stop stop-opacity="0"/>
<stop offset="0.485"/>
<stop offset="1" stop-opacity="0"/>
</linearGradient>
</defs>
</svg>
